Kreon-Regular-TTF.ufo
<glyph name="exclam" format="1">
  <advance width="268"/>
  <unicode hex="0021"/>
  <outline>
    <contour>
      <point x="74" y="56" type="curve" smooth="yes" name="hr00"/>
      <point x="74" y="89.8381"/>
      <point x="100.86" y="114"/>
      <point x="134" y="114" type="curve" smooth="yes"/>
      <point x="164.737" y="114"/>
      <point x="193" y="87.0001"/>
      <point x="193" y="56" type="curve" smooth="yes"/>
      <point x="193" y="23.9202"/>
      <point x="166.414" y="-4"/>
      <point x="134" y="-4" type="curve" smooth="yes"/>
      <point x="99.2592" y="-4"/>
      <point x="74" y="21.2592"/>
    </contour>
    <contour>
      <point x="66" y="677" type="line" name="ah01"/>
      <point x="183" y="690" type="line" name="ah02"/>
      <point x="204" y="652" type="line"/>
      <point x="167" y="237" type="line"/>
      <point x="98" y="237" type="line"/>
    </contour>
  </outline>
</glyph>
<glyph name="numbersign" format="1">
  <advance width="646"/>
  <unicode hex="0023"/>
  <outline>
    <contour>
      <point x="70" y="483" type="line" name="hr00"/>
      <point x="83" y="506" type="line" name="ah09"/>
      <point x="248" y="506" type="line" name="mh01"/>
      <point x="317" y="691" type="line" name="ah01"/>
      <point x="383" y="691" type="line" name="mh02"/>
      <point x="394" y="677" type="line" name="mh03"/>
      <point x="330" y="506" type="line" name="ah03"/>
      <point x="431" y="506" type="line" name="ah04"/>
      <point x="498" y="691" type="line" name="ah02"/>
      <point x="564" y="691" type="line" name="mh04"/>
      <point x="575" y="677" type="line" name="mh05"/>
      <point x="513" y="506" type="line" name="mh06"/>
      <point x="607" y="506" type="line" smooth="yes" name="ah10"/>
      <point x="611.578" y="506"/>
      <point x="613" y="501.966"/>
      <point x="613" y="498" type="curve" smooth="yes"/>
      <point x="613" y="431" type="line" name="mh07"/>
      <point x="485" y="431" type="line"/>
      <point x="444" y="317" type="line"/>
      <point x="566" y="317" type="line" smooth="yes" name="ah12"/>
      <point x="570.578" y="317"/>
      <point x="572" y="312.966"/>
      <point x="572" y="309" type="curve" smooth="yes"/>
      <point x="572" y="242" type="line" name="mh08"/>
      <point x="416" y="242" type="line" name="mh09"/>
      <point x="346" y="48" type="line" name="mh10"/>
      <point x="280" y="48" type="line" name="mh11"/>
      <point x="269" y="61" type="line" name="mh12"/>
      <point x="335" y="242" type="line" name="ah14"/>
      <point x="233" y="242" type="line" name="ah13"/>
      <point x="162" y="48" type="line" name="mh13"/>
      <point x="96" y="48" type="line" name="mh14"/>
      <point x="85" y="61" type="line" name="mh15"/>
      <point x="151" y="242" type="line" name="mh16"/>
      <point x="42" y="242" type="line" name="mh17"/>
      <point x="29" y="294" type="line" name="mh18"/>
      <point x="42" y="317" type="line" name="ah11"/>
      <point x="179" y="317" type="line" name="mh19"/>
      <point x="221" y="431" type="line" name="mh20"/>
      <point x="83" y="431" type="line"/>
    </contour>
    <contour>
      <point x="261" y="317" type="line" name="ah07"/>
      <point x="362" y="317" type="line" name="ah08"/>
      <point x="403" y="431" type="line" name="ah06"/>
      <point x="303" y="431" type="line" name="ah05"/>
    </contour>
  </outline>
</glyph>
<glyph name="dollar" format="1">
  <advance width="482"/>
  <unicode hex="0024"/>
  <outline>
    <contour>
      <point x="198" y="-192" type="line" name="hr00"/>
      <point x="198" y="-3" type="line"/>
      <point x="144.865" y="-0.585888"/>
      <point x="90.8368" y="10.0839"/>
      <point x="43" y="34" type="curve" name="mh01"/>
      <point x="43" y="203" type="line" name="ah09"/>
      <point x="115" y="203" type="line"/>
      <point x="133" y="96" type="line" name="mh02"/>
      <point x="160.367" y="85.7469"/>
      <point x="189.767" y="80"/>
      <point x="219" y="80" type="curve" smooth="yes" name="ah05"/>
      <point x="282.328" y="80"/>
      <point x="348" y="109.861"/>
      <point x="348" y="182" type="curve" smooth="yes" name="ah12"/>
      <point x="348" y="341.392"/>
      <point x="33" y="284.041"/>
      <point x="33" y="513" type="curve" smooth="yes" name="ah07"/>
      <point x="33" y="609.854"/>
      <point x="109.842" y="668.372"/>
      <point x="198" y="686" type="curve" name="mh06"/>
      <point x="198" y="874" type="line" name="ah02"/>
      <point x="288" y="874" type="line" name="ah03"/>
      <point x="288" y="690" type="line" name="mh07"/>
      <point x="333.404" y="686.217"/>
      <point x="378.076" y="676.231"/>
      <point x="421" y="661" type="curve" name="mh08"/>
      <point x="435" y="489" type="line" name="ah10"/>
      <point x="366" y="489" type="line"/>
      <point x="322" y="597" type="line"/>
      <point x="299.244" y="604.58"/>
      <point x="274.882" y="607"/>
      <point x="251" y="607" type="curve" smooth="yes" name="ah01"/>
      <point x="195.577" y="607"/>
      <point x="138" y="586.939"/>
      <point x="138" y="522" type="curve" smooth="yes" name="ah08"/>
      <point x="138" y="379.122"/>
      <point x="452" y="413.042"/>
      <point x="452" y="195" type="curve" smooth="yes" name="mh10"/>
      <point x="452" y="89.8939"/>
      <point x="388.574" y="23.3321"/>
      <point x="288" y="2" type="curve"/>
      <point x="288" y="-192" type="line" name="ah04"/>
    </contour>
  </outline>
</glyph>
<glyph name="percent" format="1">
  <advance width="719"/>
  <unicode hex="0025"/>
  <outline>
    <contour>
      <point x="31" y="518" type="curve" smooth="yes" name="mh01"/>
      <point x="31" y="601.398"/>
      <point x="79.1627" y="690"/>
      <point x="172" y="690" type="curve" smooth="yes" name="ah01"/>
      <point x="268.343" y="690"/>
      <point x="313" y="604.359"/>
      <point x="313" y="518" type="curve" smooth="yes" name="mh02"/>
      <point x="313" y="433.349"/>
      <point x="267.627" y="342"/>
      <point x="172" y="342" type="curve" smooth="yes"/>
      <point x="75.0192" y="342"/>
      <point x="31" y="431.946"/>
    </contour>
    <contour>
      <point x="105" y="518" type="curve" smooth="yes" name="mh03"/>
      <point x="105" y="477.467"/>
      <point x="120.049" y="408"/>
      <point x="172" y="408" type="curve" smooth="yes" name="mh04"/>
      <point x="223.308" y="408"/>
      <point x="238" y="478.084"/>
      <point x="238" y="518" type="curve" smooth="yes" name="mh05"/>
      <point x="238" y="558.618"/>
      <point x="223.765" y="625"/>
      <point x="172" y="625" type="curve" smooth="yes" name="ah02"/>
      <point x="119.817" y="625"/>
      <point x="105" y="559.266"/>
    </contour>
    <contour>
      <point x="408" y="170" type="curve" smooth="yes" name="mh06"/>
      <point x="408" y="253.314"/>
      <point x="454.588" y="343"/>
      <point x="548" y="343" type="curve" smooth="yes" name="ah03"/>
      <point x="645.612" y="343"/>
      <point x="689" y="257.032"/>
      <point x="689" y="170" type="curve" smooth="yes" name="mh07"/>
      <point x="689" y="84.8607"/>
      <point x="643.714" y="-4"/>
      <point x="548" y="-4" type="curve" smooth="yes" name="mh08"/>
      <point x="452.653" y="-4"/>
      <point x="408" y="85.3177"/>
    </contour>
    <contour>
      <point x="483" y="170" type="curve" smooth="yes" name="mh09"/>
      <point x="483" y="130.637"/>
      <point x="497.075" y="61"/>
      <point x="548" y="61" type="curve" smooth="yes" name="mh10"/>
      <point x="600.206" y="61"/>
      <point x="614" y="129.353"/>
      <point x="614" y="170" type="curve" smooth="yes" name="mh11"/>
      <point x="614" y="210.8"/>
      <point x="600.242" y="278"/>
      <point x="548" y="278" type="curve" smooth="yes" name="ah04"/>
      <point x="495.494" y="278"/>
      <point x="483" y="210.81"/>
    </contour>
    <contour>
      <point x="94" y="0" type="line"/>
      <point x="88" y="13" type="line" name="ah06"/>
      <point x="531" y="691" type="line" name="ah05"/>
      <point x="615" y="691" type="line" name="ah08"/>
      <point x="616.251" y="686.357"/>
      <point x="616.266" y="681.102"/>
      <point x="619" y="677" type="curve"/>
      <point x="181" y="0" type="line" name="ah07"/>
    </contour>
  </outline>
</glyph>
<glyph name="ampersand" format="1">
  <advance width="672"/>
  <unicode hex="0026"/>
  <outline>
    <contour>
      <point x="578" y="-3" type="curve" smooth="yes" name="hr00"/>
      <point x="521.314" y="-3"/>
      <point x="472.65" y="28.2976"/>
      <point x="431" y="64" type="curve"/>
      <point x="380.392" y="16.6598"/>
      <point x="321.753" y="-4"/>
      <point x="253" y="-4" type="curve" smooth="yes"/>
      <point x="134.129" y="-4"/>
      <point x="32" y="76.8635"/>
      <point x="32" y="201" type="curve" smooth="yes"/>
      <point x="32" y="288.679"/>
      <point x="93.1943" y="355.694"/>
      <point x="158" y="407" type="curve"/>
      <point x="131.714" y="451.904"/>
      <point x="104" y="510.24"/>
      <point x="104" y="563" type="curve" smooth="yes" name="hr01"/>
      <point x="104" y="660.416"/>
      <point x="174.517" y="731"/>
      <point x="272" y="731" type="curve" smooth="yes"/>
      <point x="356.734" y="731"/>
      <point x="420" y="678.543"/>
      <point x="420" y="591" type="curve" smooth="yes"/>
      <point x="420" y="509.933"/>
      <point x="349.877" y="440.617"/>
      <point x="292" y="392" type="curve"/>
      <point x="336.186" y="331.537"/>
      <point x="384.939" y="275.399"/>
      <point x="433" y="218" type="curve"/>
      <point x="449.871" y="253.038"/>
      <point x="462.848" y="289.959"/>
      <point x="471" y="328" type="curve"/>
      <point x="426" y="328" type="line"/>
      <point x="410" y="398" type="line"/>
      <point x="566" y="398" type="line"/>
      <point x="577" y="384" type="line"/>
      <point x="565.261" y="307.062"/>
      <point x="537.615" y="213.989"/>
      <point x="496" y="148" type="curve" name="hr02"/>
      <point x="511.177" y="132.215"/>
      <point x="554.414" y="86.2468"/>
      <point x="573" y="81" type="curve"/>
      <point x="593.29" y="90.3622"/>
      <point x="614.318" y="108.76"/>
      <point x="633" y="121" type="curve"/>
      <point x="675" y="29" type="line"/>
      <point x="648.287" y="6.44569"/>
      <point x="612.326" y="-3"/>
    </contour>
    <contour>
      <point x="254" y="82" type="curve" smooth="yes"/>
      <point x="296.773" y="82"/>
      <point x="336.16" y="98.4958"/>
      <point x="367" y="128" type="curve"/>
      <point x="309.764" y="194.775"/>
      <point x="254.49" y="265.705"/>
      <point x="203" y="337" type="curve"/>
      <point x="163.916" y="299.183"/>
      <point x="136" y="259.334"/>
      <point x="136" y="203" type="curve" smooth="yes"/>
      <point x="136" y="133.203"/>
      <point x="183.229" y="82"/>
    </contour>
    <contour>
      <point x="199" y="583" type="curve" smooth="yes"/>
      <point x="199" y="540.798"/>
      <point x="225.483" y="491.958"/>
      <point x="247" y="457" type="curve"/>
      <point x="282.684" y="489.622"/>
      <point x="325" y="540.199"/>
      <point x="325" y="591" type="curve" smooth="yes"/>
      <point x="325" y="628.881"/>
      <point x="303.467" y="656"/>
      <point x="264" y="656" type="curve" smooth="yes"/>
      <point x="221.675" y="656"/>
      <point x="199" y="622.983"/>
    </contour>
  </outline>
</glyph>
<glyph name="parenleft" format="1">
  <advance width="276"/>
  <unicode hex="0028"/>
  <outline>
    <contour>
      <point x="51" y="290" type="curve" smooth="yes" name="hr00"/>
      <point x="51" y="440.198"/>
      <point x="85.5004" y="610.461"/>
      <point x="160" y="742" type="curve"/>
      <point x="244" y="742" type="line"/>
      <point x="177.004" y="607.958"/>
      <point x="146" y="440.086"/>
      <point x="146" y="291" type="curve" smooth="yes"/>
      <point x="146" y="133.084"/>
      <point x="184.925" y="-16.5525"/>
      <point x="244" y="-162" type="curve"/>
      <point x="160" y="-162" type="line"/>
      <point x="93.6401" y="-17.7178"/>
      <point x="51" y="129.87"/>
    </contour>
  </outline>
</glyph>
<glyph name="parenright" format="1">
  <advance width="276"/>
  <unicode hex="0029"/>
  <outline>
    <contour>
      <point x="116" y="-162" type="curve" name="hr00"/>
      <point x="32" y="-162" type="line"/>
      <point x="91.0755" y="-16.5525"/>
      <point x="130" y="133.084"/>
      <point x="130" y="291" type="curve" smooth="yes"/>
      <point x="130" y="440.086"/>
      <point x="98.9963" y="607.958"/>
      <point x="32" y="742" type="curve"/>
      <point x="116" y="742" type="line"/>
      <point x="190.093" y="603.02"/>
      <point x="225" y="447.145"/>
      <point x="225" y="290" type="curve" smooth="yes" name="ah01"/>
      <point x="225" y="131.129"/>
      <point x="182.959" y="-19.0094"/>
    </contour>
  </outline>
</glyph>
<glyph name="asterisk" format="1">
  <advance width="362"/>
  <unicode hex="002A"/>
  <outline>
    <contour>
      <point x="196" y="597" type="line" name="hr00"/>
      <point x="287" y="680" type="line" name="ah05"/>
      <point x="327" y="637" type="line"/>
      <point x="321" y="614" type="line"/>
      <point x="208" y="572" type="line"/>
      <point x="327" y="534" type="line" name="ah06"/>
      <point x="311" y="478" type="line" name="mh01"/>
      <point x="287" y="472" type="line" name="mh02"/>
      <point x="195" y="547" type="line"/>
      <point x="218" y="426" type="line" name="ah07"/>
      <point x="162" y="414" type="line" name="ah02"/>
      <point x="146" y="431" type="line" name="ah08"/>
      <point x="166" y="547" type="line"/>
      <point x="75" y="464" type="line" name="mh03"/>
      <point x="35" y="507" type="line" name="mh04"/>
      <point x="41" y="530" type="line" name="ah03"/>
      <point x="154" y="572" type="line"/>
      <point x="35" y="610" type="line" name="mh05"/>
      <point x="51" y="666" type="line" name="mh06"/>
      <point x="75" y="672" type="line" name="ah04"/>
      <point x="167" y="597" type="line"/>
      <point x="144" y="718" type="line" name="mh07"/>
      <point x="200" y="730" type="line" name="ah01"/>
      <point x="216" y="713" type="line"/>
    </contour>
    <contour>
      <point x="173" y="558" type="line"/>
      <point x="190" y="558" type="line"/>
      <point x="197" y="572" type="line"/>
      <point x="189" y="586" type="line"/>
      <point x="171" y="586" type="line"/>
      <point x="164" y="571" type="line"/>
    </contour>
  </outline>
</glyph>
<glyph name="plus" format="1">
  <advance width="401"/>
  <unicode hex="002B"/>
  <outline>
    <contour>
      <point x="165" y="518" type="line" name="hr00"/>
      <point x="165" y="390" type="line"/>
      <point x="47" y="390" type="line"/>
      <point x="34" y="376" type="line"/>
      <point x="34" y="315" type="line"/>
      <point x="165" y="315" type="line"/>
      <point x="165" y="177" type="line"/>
      <point x="178" y="165" type="line"/>
      <point x="240" y="165" type="line"/>
      <point x="240" y="315" type="line"/>
      <point x="365" y="315" type="line"/>
      <point x="365" y="390" type="line"/>
      <point x="240" y="390" type="line"/>
      <point x="240" y="518" type="line"/>
    </contour>
  </outline>
</glyph>
<glyph name="comma" format="1">
  <advance width="214"/>
  <unicode hex="002C"/>
  <outline>
    <contour>
      <point x="22" y="-117" type="line" name="hr00"/>
      <point x="74" y="-147" type="line"/>
      <point x="124.955" y="-96.0055"/>
      <point x="162" y="-15.3011"/>
      <point x="162" y="57" type="curve" smooth="yes"/>
      <point x="162" y="82.7664"/>
      <point x="156.37" y="107.952"/>
      <point x="151" y="133" type="curve"/>
      <point x="46" y="114" type="line"/>
      <point x="72" y="-1" type="line"/>
      <point x="22" y="-103" type="line"/>
    </contour>
  </outline>
</glyph>
<glyph name="zero" format="1">
  <advance width="583"/>
  <unicode hex="0030"/>
  <outline>
    <contour>
      <point x="46" y="343" type="curve" smooth="yes" name="hr00"/>
      <point x="46" y="504.382"/>
      <point x="95.1516" y="690"/>
      <point x="291" y="690" type="curve" smooth="yes" name="mh04"/>
      <point x="485.807" y="690"/>
      <point x="537" y="504.137"/>
      <point x="537" y="343" type="curve" smooth="yes" name="mh06"/>
      <point x="537" y="182.112"/>
      <point x="485.39" y="-4"/>
      <point x="291" y="-4" type="curve" smooth="yes" name="mv01"/>
      <point x="95.5678" y="-4"/>
      <point x="46" y="181.862"/>
    </contour>
    <contour>
      <point x="151" y="343" type="curve" smooth="yes" name="mh09"/>
      <point x="151" y="252.952"/>
      <point x="169.31" y="82"/>
      <point x="291" y="82" type="curve" smooth="yes" name="mv02"/>
      <point x="413.678" y="82"/>
      <point x="432" y="252.1"/>
      <point x="432" y="343" type="curve" smooth="yes" name="mh10"/>
      <point x="432" y="433.9"/>
      <point x="413.678" y="604"/>
      <point x="291" y="604" type="curve" smooth="yes" name="mh12"/>
      <point x="168.414" y="604"/>
      <point x="151" y="433.875"/>
    </contour>
  </outline>
</glyph>
<glyph name="two" format="1">
  <advance width="518"/>
  <unicode hex="0032"/>
  <outline>
    <contour>
      <point x="40" y="69" type="line" name="mh01"/>
      <point x="125.336" y="162.863"/>
      <point x="347" y="379.068"/>
      <point x="347" y="507" type="curve" smooth="yes"/>
      <point x="347" y="566.516"/>
      <point x="303.024" y="604"/>
      <point x="245" y="604" type="curve" smooth="yes"/>
      <point x="213.063" y="604"/>
      <point x="187.597" y="595.681"/>
      <point x="161" y="578" type="curve"/>
      <point x="134" y="494" type="line"/>
      <point x="22" y="554" type="line" name="mh04"/>
      <point x="68.1132" y="638.332"/>
      <point x="146.822" y="690"/>
      <point x="244" y="690" type="curve" smooth="yes" name="mh05"/>
      <point x="358.051" y="690"/>
      <point x="452" y="633.752"/>
      <point x="452" y="510" type="curve" smooth="yes"/>
      <point x="452" y="363.589"/>
      <point x="264.495" y="190.767"/>
      <point x="174" y="86" type="curve" name="mv01"/>
      <point x="375" y="86" type="line"/>
      <point x="414" y="193" type="line"/>
      <point x="480" y="193" type="line"/>
      <point x="459" y="0" type="line"/>
      <point x="52" y="0" type="line"/>
    </contour>
  </outline>
</glyph>
<glyph name="three" format="1">
  <advance width="523"/>
  <unicode hex="0033"/>
  <outline>
    <contour>
      <point x="85" y="144" type="line" name="hr00"/>
      <point x="130.663" y="105.253"/>
      <point x="180.344" y="82"/>
      <point x="241" y="82" type="curve" smooth="yes"/>
      <point x="309.153" y="82"/>
      <point x="370" y="112.523"/>
      <point x="370" y="189" type="curve" smooth="yes"/>
      <point x="370" y="304.929"/>
      <point x="235.771" y="305"/>
      <point x="154" y="305" type="curve"/>
      <point x="154" y="391" type="line"/>
      <point x="239.813" y="390.997"/>
      <point x="362" y="391.526"/>
      <point x="362" y="507" type="curve" smooth="yes"/>
      <point x="362" y="574.086"/>
      <point x="313.544" y="605"/>
      <point x="251" y="605" type="curve" smooth="yes"/>
      <point x="219.001" y="605"/>
      <point x="192.572" y="595.733"/>
      <point x="165" y="580" type="curve"/>
      <point x="128" y="498" type="line"/>
      <point x="27" y="556" type="line"/>
      <point x="77.5443" y="648.435"/>
      <point x="163.827" y="690"/>
      <point x="267" y="690" type="curve" smooth="yes"/>
      <point x="372.366" y="690"/>
      <point x="467" y="625.463"/>
      <point x="467" y="513" type="curve" smooth="yes"/>
      <point x="467" y="438.741"/>
      <point x="425.002" y="379.697"/>
      <point x="355" y="355" type="curve"/>
      <point x="423.376" y="332.171"/>
      <point x="475" y="267.971"/>
      <point x="475" y="195" type="curve" smooth="yes"/>
      <point x="475" y="63.4229"/>
      <point x="365.063" y="-4"/>
      <point x="244" y="-4" type="curve" smooth="yes"/>
      <point x="168.673" y="-4"/>
      <point x="91.1812" y="15.2727"/>
      <point x="32" y="64" type="curve"/>
    </contour>
  </outline>
</glyph>
<glyph name="four" format="1">
  <advance width="518"/>
  <unicode hex="0034"/>
  <outline>
    <contour>
      <point x="398" y="197" type="line" name="hr00"/>
      <point x="398" y="82" type="line"/>
      <point x="479" y="69" type="line"/>
      <point x="479" y="1" type="line"/>
      <point x="161" y="1" type="line"/>
      <point x="161" y="69" type="line"/>
      <point x="299" y="85" type="line"/>
      <point x="299" y="197" type="line"/>
      <point x="35" y="197" type="line" name="mv01"/>
      <point x="2" y="272" type="line" name="mh01"/>
      <point x="290" y="691" type="line" name="mh02"/>
      <point x="398" y="691" type="line" name="mh03"/>
      <point x="398" y="283" type="line"/>
      <point x="480" y="283" type="line" name="mv02"/>
      <point x="480" y="197" type="line"/>
    </contour>
    <contour>
      <point x="299" y="283" type="line"/>
      <point x="299" y="568" type="line" name="mh04"/>
      <point x="100" y="283" type="line"/>
    </contour>
  </outline>
</glyph>
<glyph name="five" format="1">
  <advance width="502"/>
  <unicode hex="0035"/>
  <outline>
    <contour>
      <point x="430" y="690" type="line" name="hr00"/>
      <point x="430" y="604" type="line"/>
      <point x="174" y="604" type="line"/>
      <point x="174" y="460" type="line"/>
      <point x="227.344" y="460"/>
      <point x="268.663" y="460.155"/>
      <point x="320" y="443" type="curve" smooth="yes"/>
      <point x="414.183" y="411.528"/>
      <point x="469" y="333.933"/>
      <point x="469" y="235" type="curve" smooth="yes"/>
      <point x="469" y="91.9126"/>
      <point x="345.643" y="-4"/>
      <point x="209" y="-4" type="curve" smooth="yes"/>
      <point x="140.22" y="-4"/>
      <point x="70.5584" y="18.281"/>
      <point x="19" y="65" type="curve"/>
      <point x="68" y="142" type="line"/>
      <point x="109.257" y="103.69"/>
      <point x="158.384" y="82"/>
      <point x="215" y="82" type="curve" smooth="yes"/>
      <point x="299.822" y="82"/>
      <point x="364" y="142.127"/>
      <point x="364" y="228" type="curve" smooth="yes"/>
      <point x="364" y="343.229"/>
      <point x="275.633" y="375"/>
      <point x="176" y="375" type="curve" smooth="yes"/>
      <point x="144.046" y="375"/>
      <point x="110.658" y="373.467"/>
      <point x="79" y="369" type="curve"/>
      <point x="79" y="658" type="line"/>
      <point x="111" y="690" type="line"/>
    </contour>
  </outline>
</glyph>
<glyph name="six" format="1">
  <advance width="557"/>
  <unicode hex="0036"/>
  <outline>
    <contour>
      <point x="315" y="696" type="curve" smooth="yes" name="hr00"/>
      <point x="393.526" y="696"/>
      <point x="463.833" y="663.13"/>
      <point x="509" y="598" type="curve"/>
      <point x="414" y="531" type="line"/>
      <point x="364" y="602" type="line"/>
      <point x="347.288" y="607.54"/>
      <point x="335.634" y="610"/>
      <point x="318" y="610" type="curve" smooth="yes"/>
      <point x="204.206" y="610"/>
      <point x="154.715" y="465.397"/>
      <point x="149" y="372" type="curve"/>
      <point x="187.579" y="415.594"/>
      <point x="243.612" y="437"/>
      <point x="301" y="437" type="curve" smooth="yes"/>
      <point x="431.576" y="437"/>
      <point x="518" y="350.559"/>
      <point x="518" y="220" type="curve" smooth="yes" name="hr01"/>
      <point x="518" y="95.3699"/>
      <point x="425.178" y="-4"/>
      <point x="299" y="-4" type="curve" smooth="yes"/>
      <point x="110.651" y="-4"/>
      <point x="43" y="178.394"/>
      <point x="43" y="339" type="curve" smooth="yes"/>
      <point x="43" y="503.428"/>
      <point x="124.198" y="696"/>
    </contour>
    <contour>
      <point x="294" y="352" type="curve" smooth="yes"/>
      <point x="217.115" y="352"/>
      <point x="164" y="283.626"/>
      <point x="164" y="210" type="curve" smooth="yes"/>
      <point x="164" y="203.458"/>
      <point x="178.419" y="168.111"/>
      <point x="182" y="160.5" type="curve" smooth="yes"/>
      <point x="203.845" y="114.069"/>
      <point x="240.816" y="82"/>
      <point x="294" y="82" type="curve" smooth="yes"/>
      <point x="373.715" y="82"/>
      <point x="413" y="142.552"/>
      <point x="413" y="217" type="curve" smooth="yes"/>
      <point x="413" y="286.944"/>
      <point x="369.102" y="352"/>
    </contour>
  </outline>
</glyph>
<glyph name="eight" format="1">
  <advance width="532"/>
  <unicode hex="0038"/>
  <outline>
    <contour>
      <point x="72" y="526" type="curve" smooth="yes" name="hr00"/>
      <point x="72" y="626.145"/>
      <point x="175.045" y="696"/>
      <point x="268" y="696" type="curve" smooth="yes" name="mh01"/>
      <point x="364.73" y="696"/>
      <point x="463" y="632.722"/>
      <point x="463" y="528" type="curve" smooth="yes"/>
      <point x="463" y="458.148"/>
      <point x="419.804" y="416.813"/>
      <point x="366" y="380" type="curve"/>
      <point x="441.238" y="334.858"/>
      <point x="491" y="287.623"/>
      <point x="491" y="194" type="curve" smooth="yes"/>
      <point x="491" y="73.0547"/>
      <point x="380.383" y="-5"/>
      <point x="267" y="-5" type="curve" smooth="yes"/>
      <point x="152.579" y="-5"/>
      <point x="41" y="57.7"/>
      <point x="41" y="184" type="curve" smooth="yes"/>
      <point x="41" y="268.616"/>
      <point x="92.0241" y="330.253"/>
      <point x="163" y="370" type="curve"/>
      <point x="105.102" y="408.088"/>
      <point x="72" y="455.262"/>
    </contour>
    <contour>
      <point x="146" y="187" type="curve" smooth="yes"/>
      <point x="146" y="121.355"/>
      <point x="205.732" y="81"/>
      <point x="267" y="81" type="curve" smooth="yes"/>
      <point x="326.651" y="81"/>
      <point x="386" y="121.887"/>
      <point x="386" y="186" type="curve" smooth="yes"/>
      <point x="386" y="264.199"/>
      <point x="301.921" y="297.54"/>
      <point x="243" y="327" type="curve"/>
      <point x="187.272" y="296.485"/>
      <point x="146" y="253.89"/>
    </contour>
    <contour>
      <point x="358" y="532" type="curve" smooth="yes"/>
      <point x="358" y="580.94"/>
      <point x="311.707" y="610"/>
      <point x="267" y="610" type="curve" smooth="yes"/>
      <point x="222.12" y="610"/>
      <point x="177" y="581.991"/>
      <point x="177" y="533" type="curve" smooth="yes"/>
      <point x="177" y="471.012"/>
      <point x="235.331" y="443.901"/>
      <point x="284" y="422" type="curve"/>
      <point x="327.246" y="449.025"/>
      <point x="358" y="477.86"/>
    </contour>
  </outline>
</glyph>
<glyph name="nine" format="1">
  <advance width="543"/>
  <unicode hex="0039"/>
  <outline>
    <contour>
      <point x="243" y="82" type="curve" smooth="yes" name="hr00"/>
      <point x="357.392" y="82"/>
      <point x="385.322" y="209.078"/>
      <point x="391" y="300" type="curve"/>
      <point x="356.401" y="266.546"/>
      <point x="303.233" y="245"/>
      <point x="255" y="245" type="curve" smooth="yes"/>
      <point x="125.357" y="245"/>
      <point x="43" y="328.833"/>
      <point x="43" y="458" type="curve" smooth="yes"/>
      <point x="43" y="593.963"/>
      <point x="128.481" y="694"/>
      <point x="268" y="694" type="curve" smooth="yes" name="mh01"/>
      <point x="455.054" y="694"/>
      <point x="498" y="486.61"/>
      <point x="498" y="338" type="curve" smooth="yes"/>
      <point x="498" y="184.065"/>
      <point x="431.88" y="-4"/>
      <point x="249" y="-4" type="curve" smooth="yes"/>
      <point x="171.108" y="-4"/>
      <point x="104.208" y="18.4007"/>
      <point x="42" y="65" type="curve"/>
      <point x="98" y="143" type="line"/>
      <point x="140.158" y="106.379"/>
      <point x="185.891" y="82"/>
    </contour>
    <contour>
      <point x="263" y="331" type="curve" smooth="yes"/>
      <point x="323.434" y="331"/>
      <point x="385" y="384.51"/>
      <point x="385" y="447" type="curve" smooth="yes"/>
      <point x="385" y="460.717"/>
      <point x="375.102" y="495.013"/>
      <point x="370.5" y="509" type="curve" smooth="yes"/>
      <point x="353.661" y="560.173"/>
      <point x="320.203" y="608"/>
      <point x="261" y="608" type="curve" smooth="yes"/>
      <point x="179.567" y="608"/>
      <point x="148" y="538.472"/>
      <point x="148" y="467" type="curve" smooth="yes"/>
      <point x="148" y="394.626"/>
      <point x="183.229" y="331"/>
    </contour>
  </outline>
</glyph>
<glyph name="colon" format="1">
  <advance width="235"/>
  <unicode hex="003A"/>
  <outline>
    <contour>
      <point x="58" y="432" type="curve" smooth="yes" name="hr00"/>
      <point x="58" y="465.023"/>
      <point x="85.3329" y="491"/>
      <point x="118" y="491" type="curve" smooth="yes"/>
      <point x="149.567" y="491"/>
      <point x="177" y="463.595"/>
      <point x="177" y="432" type="curve" smooth="yes"/>
      <point x="177" y="398.666"/>
      <point x="151.721" y="372"/>
      <point x="118" y="372" type="curve" smooth="yes"/>
      <point x="83.8912" y="372"/>
      <point x="58" y="397.866"/>
    </contour>
    <contour>
      <point x="58" y="196" type="curve" smooth="yes"/>
      <point x="58" y="229.14"/>
      <point x="85.5159" y="254"/>
      <point x="118" y="254" type="curve" smooth="yes"/>
      <point x="149.399" y="254"/>
      <point x="177" y="227.706"/>
      <point x="177" y="196" type="curve" smooth="yes"/>
      <point x="177" y="163.333"/>
      <point x="151.023" y="136"/>
      <point x="118" y="136" type="curve" smooth="yes"/>
      <point x="83.8659" y="136"/>
      <point x="58" y="161.891"/>
    </contour>
  </outline>
</glyph>
<glyph name="semicolon" format="1">
  <advance width="244"/>
  <unicode hex="003B"/>
  <outline>
    <contour>
      <point x="57" y="332" type="curve" smooth="yes" name="hr00"/>
      <point x="57" y="365.023"/>
      <point x="84.3329" y="391"/>
      <point x="117" y="391" type="curve" smooth="yes" name="mh01"/>
      <point x="148.567" y="391"/>
      <point x="176" y="363.595"/>
      <point x="176" y="332" type="curve" smooth="yes"/>
      <point x="176" y="298.666"/>
      <point x="150.721" y="272"/>
      <point x="117" y="272" type="curve" smooth="yes"/>
      <point x="82.8912" y="272"/>
      <point x="57" y="297.866"/>
    </contour>
    <contour>
      <point x="44" y="-103" type="line"/>
      <point x="94" y="-1" type="line"/>
      <point x="68" y="114" type="line"/>
      <point x="173" y="133" type="line"/>
      <point x="179.177" y="108.177"/>
      <point x="184" y="82.6504"/>
      <point x="184" y="57" type="curve" smooth="yes"/>
      <point x="184" y="-16.317"/>
      <point x="147.537" y="-95.4474"/>
      <point x="96" y="-147" type="curve"/>
      <point x="44" y="-117" type="line"/>
    </contour>
  </outline>
</glyph>
<glyph name="question" format="1">
  <advance width="408"/>
  <unicode hex="003F"/>
  <outline>
    <contour>
      <point x="94" y="56" type="curve" smooth="yes" name="hr00"/>
      <point x="94" y="89.8381"/>
      <point x="120.86" y="114"/>
      <point x="154" y="114" type="curve" smooth="yes"/>
      <point x="184.737" y="114"/>
      <point x="213" y="87.0001"/>
      <point x="213" y="56" type="curve" smooth="yes"/>
      <point x="213" y="23.9202"/>
      <point x="186.414" y="-4"/>
      <point x="154" y="-4" type="curve" smooth="yes"/>
      <point x="119.891" y="-4"/>
      <point x="94" y="21.8659"/>
    </contour>
    <contour>
      <point x="105" y="288" type="curve" smooth="yes"/>
      <point x="105" y="411.654"/>
      <point x="275" y="413.414"/>
      <point x="275" y="532" type="curve" smooth="yes"/>
      <point x="275" y="581.472"/>
      <point x="235.767" y="607"/>
      <point x="190" y="607" type="curve" smooth="yes"/>
      <point x="173.586" y="607"/>
      <point x="141.559" y="604.418"/>
      <point x="127" y="598" type="curve"/>
      <point x="100" y="502" type="line"/>
      <point x="39" y="502" type="line"/>
      <point x="56" y="661" type="line"/>
      <point x="103.234" y="677.76"/>
      <point x="150.509" y="691"/>
      <point x="201" y="691" type="curve" smooth="yes" name="mh01"/>
      <point x="294.686" y="691"/>
      <point x="379" y="643.4"/>
      <point x="379" y="540" type="curve" smooth="yes"/>
      <point x="379" y="463.57"/>
      <point x="338.496" y="408.655"/>
      <point x="278" y="366" type="curve" smooth="yes"/>
      <point x="223.612" y="327.652"/>
      <point x="190.039" y="308.879"/>
      <point x="190" y="237" type="curve"/>
      <point x="163.661" y="237"/>
      <point x="137.339" y="236"/>
      <point x="111" y="236" type="curve"/>
      <point x="107.66" y="253.743"/>
      <point x="105" y="269.793"/>
    </contour>
  </outline>
</glyph>
<glyph name="at" format="1">
  <advance width="831"/>
  <unicode hex="0040"/>
  <outline>
    <contour>
      <point x="604" y="48" type="curve" smooth="yes" name="hr00"/>
      <point x="573.176" y="48"/>
      <point x="540.088" y="54.4331"/>
      <point x="519" y="79" type="curve"/>
      <point x="487.192" y="58.4662"/>
      <point x="448.68" y="48"/>
      <point x="411" y="48" type="curve" smooth="yes"/>
      <point x="288.888" y="48"/>
      <point x="218" y="136.99"/>
      <point x="218" y="254" type="curve" smooth="yes"/>
      <point x="218" y="378.4"/>
      <point x="297.56" y="467"/>
      <point x="425" y="467" type="curve" smooth="yes"/>
      <point x="459.091" y="467"/>
      <point x="493.175" y="459.673"/>
      <point x="524" y="445" type="curve"/>
      <point x="560" y="459" type="line"/>
      <point x="587" y="450" type="line"/>
      <point x="587" y="164" type="line" smooth="yes"/>
      <point x="587" y="144.548"/>
      <point x="591.955" y="131"/>
      <point x="614" y="131" type="curve" smooth="yes"/>
      <point x="679.712" y="131"/>
      <point x="703" y="250.594"/>
      <point x="703" y="300" type="curve" smooth="yes"/>
      <point x="703" y="464.439"/>
      <point x="589.772" y="568"/>
      <point x="428" y="568" type="curve" smooth="yes"/>
      <point x="253.601" y="568"/>
      <point x="126" y="443.017"/>
      <point x="126" y="268" type="curve" smooth="yes"/>
      <point x="126" y="79.0682"/>
      <point x="239.467" y="-47"/>
      <point x="432" y="-47" type="curve" smooth="yes"/>
      <point x="470.318" y="-47"/>
      <point x="519.352" y="-42.2429"/>
      <point x="555" y="-28" type="curve"/>
      <point x="573" y="-32" type="line"/>
      <point x="545" y="-118" type="line"/>
      <point x="506.231" y="-129.917"/>
      <point x="463.394" y="-133"/>
      <point x="423" y="-133" type="curve" smooth="yes"/>
      <point x="183.115" y="-133"/>
      <point x="31" y="34.3433"/>
      <point x="31" y="270" type="curve" smooth="yes"/>
      <point x="31" y="497.001"/>
      <point x="203.705" y="653"/>
      <point x="427" y="653" type="curve" smooth="yes"/>
      <point x="630.804" y="653"/>
      <point x="797" y="508.005"/>
      <point x="797" y="299" type="curve" smooth="yes"/>
      <point x="797" y="186.019"/>
      <point x="734.324" y="48"/>
    </contour>
    <contour>
      <point x="494" y="145" type="curve"/>
      <point x="493.368" y="151.312"/>
      <point x="493" y="157.655"/>
      <point x="493" y="164" type="curve" smooth="yes"/>
      <point x="493" y="379" type="line"/>
      <point x="473.479" y="388.756"/>
      <point x="451.814" y="394"/>
      <point x="430" y="394" type="curve" smooth="yes"/>
      <point x="349.961" y="394"/>
      <point x="314" y="330.825"/>
      <point x="314" y="258" type="curve" smooth="yes"/>
      <point x="314" y="185.846"/>
      <point x="346.534" y="122"/>
      <point x="427" y="122" type="curve" smooth="yes"/>
      <point x="451.56" y="122"/>
      <point x="474.95" y="129.128"/>
    </contour>
  </outline>
</glyph>
<glyph name="B" format="1">
  <advance width="577"/>
  <unicode hex="0042"/>
  <outline>
    <contour>
      <point x="49" y="70" type="line" name="hr00"/>
      <point x="110" y="84" type="line"/>
      <point x="110" y="610" type="line"/>
      <point x="46" y="616" type="line"/>
      <point x="46" y="691" type="line"/>
      <point x="277" y="691" type="line" smooth="yes" name="mh01"/>
      <point x="390.233" y="691"/>
      <point x="510" y="640.496"/>
      <point x="510" y="510" type="curve" smooth="yes"/>
      <point x="510" y="445.376"/>
      <point x="472.14" y="373.549"/>
      <point x="407" y="354" type="curve"/>
      <point x="485.084" y="338.383"/>
      <point x="538" y="277.076"/>
      <point x="538" y="197" type="curve" smooth="yes"/>
      <point x="538" y="51.1187"/>
      <point x="428.188" y="0"/>
      <point x="298" y="0" type="curve" smooth="yes"/>
      <point x="59" y="0" type="line" name="hr01"/>
    </contour>
    <contour>
      <point x="405" y="500" type="curve" smooth="yes"/>
      <point x="405" y="581.535"/>
      <point x="341.935" y="605"/>
      <point x="271" y="605" type="curve" smooth="yes"/>
      <point x="210" y="605" type="line"/>
      <point x="210" y="390" type="line"/>
      <point x="254" y="390" type="line" smooth="yes"/>
      <point x="331.137" y="390"/>
      <point x="405" y="407.813"/>
    </contour>
    <contour>
      <point x="210" y="86" type="line"/>
      <point x="288" y="86" type="line" smooth="yes"/>
      <point x="361.045" y="86"/>
      <point x="433" y="112.152"/>
      <point x="433" y="197" type="curve" smooth="yes"/>
      <point x="433" y="282.106"/>
      <point x="357.194" y="304"/>
      <point x="286" y="304" type="curve" smooth="yes"/>
      <point x="210" y="304" type="line"/>
    </contour>
  </outline>
</glyph>
<glyph name="C" format="1">
  <advance width="582"/>
  <unicode hex="0043"/>
  <outline>
    <contour>
      <point x="139" y="348" type="curve" smooth="yes" name="hr00"/>
      <point x="139" y="195.716"/>
      <point x="238.14" y="82"/>
      <point x="394" y="82" type="curve" smooth="yes"/>
      <point x="435.626" y="82"/>
      <point x="491.147" y="94.7455"/>
      <point x="525" y="120" type="curve"/>
      <point x="554" y="41" type="line"/>
      <point x="504.855" y="5.90015"/>
      <point x="436.122" y="-4"/>
      <point x="377" y="-4" type="curve" smooth="yes"/>
      <point x="180.266" y="-4"/>
      <point x="34" y="141.414"/>
      <point x="34" y="338" type="curve" smooth="yes"/>
      <point x="34" y="540.793"/>
      <point x="163.475" y="691"/>
      <point x="372" y="691" type="curve" smooth="yes" name="mh01"/>
      <point x="423.039" y="691"/>
      <point x="470.383" y="683.266"/>
      <point x="520" y="672" type="curve"/>
      <point x="539" y="490" type="line"/>
      <point x="471" y="490" type="line"/>
      <point x="432" y="598" type="line"/>
      <point x="414.287" y="604.456"/>
      <point x="393.636" y="605"/>
      <point x="375" y="605" type="curve" smooth="yes"/>
      <point x="229.812" y="605"/>
      <point x="139" y="486.779"/>
    </contour>
  </outline>
</glyph>
<glyph name="D" format="1">
  <advance width="633"/>
  <unicode hex="0044"/>
  <outline>
    <contour>
      <point x="492" y="351" type="curve" smooth="yes" name="hr00"/>
      <point x="492" y="509.583"/>
      <point x="390.291" y="606"/>
      <point x="233" y="606" type="curve" smooth="yes"/>
      <point x="224.982" y="606"/>
      <point x="217.018" y="605"/>
      <point x="209" y="605" type="curve"/>
      <point x="209" y="86" type="line"/>
      <point x="211.597" y="85.6754"/>
      <point x="214.386" y="85"/>
      <point x="217" y="85" type="curve" smooth="yes"/>
      <point x="395.237" y="85"/>
      <point x="492" y="169.549"/>
    </contour>
    <contour>
      <point x="110" y="85" type="line"/>
      <point x="110" y="611" type="line"/>
      <point x="50" y="617" type="line"/>
      <point x="50" y="691" type="line"/>
      <point x="239" y="691" type="line" smooth="yes" name="mh01"/>
      <point x="454.502" y="691"/>
      <point x="597" y="571.732"/>
      <point x="597" y="350" type="curve" smooth="yes"/>
      <point x="597" y="129.4"/>
      <point x="462.123" y="0"/>
      <point x="243" y="0" type="curve" smooth="yes"/>
      <point x="59" y="0" type="line"/>
      <point x="49" y="71" type="line"/>
    </contour>
  </outline>
</glyph>
<glyph name="G" format="1">
  <advance width="615"/>
  <unicode hex="0047"/>
  <outline>
    <contour>
      <point x="559" y="14" type="line" name="hr00"/>
      <point x="505.655" y="0.674181"/>
      <point x="448.882" y="-4"/>
      <point x="394" y="-4" type="curve" smooth="yes"/>
      <point x="187.655" y="-4"/>
      <point x="33" y="124.113"/>
      <point x="33" y="337" type="curve" smooth="yes"/>
      <point x="33" y="545.399"/>
      <point x="170.49" y="691"/>
      <point x="381" y="691" type="curve" smooth="yes" name="mh01"/>
      <point x="433.435" y="691"/>
      <point x="486.279" y="683.208"/>
      <point x="537" y="670" type="curve"/>
      <point x="552" y="489" type="line"/>
      <point x="479" y="489" type="line"/>
      <point x="443" y="600" type="line"/>
      <point x="421.49" y="603.57"/>
      <point x="399.789" y="605"/>
      <point x="378" y="605" type="curve" smooth="yes"/>
      <point x="228.685" y="605"/>
      <point x="138" y="481.244"/>
      <point x="138" y="340" type="curve" smooth="yes"/>
      <point x="138" y="179.098"/>
      <point x="247.315" y="82"/>
      <point x="405" y="82" type="curve" smooth="yes"/>
      <point x="422.996" y="82"/>
      <point x="441.295" y="82.5051"/>
      <point x="459" y="86" type="curve"/>
      <point x="459" y="135.003"/>
      <point x="460" y="183.997"/>
      <point x="460" y="233" type="curve"/>
      <point x="346" y="247" type="line"/>
      <point x="364" y="318" type="line"/>
      <point x="559" y="318" type="line"/>
    </contour>
  </outline>
</glyph>
<glyph name="J" format="1">
  <advance width="367"/>
  <unicode hex="004A"/>
  <outline>
    <contour>
      <point x="104" y="691" type="line" name="hr00"/>
      <point x="333" y="691" type="line"/>
      <point x="333" y="615" type="line"/>
      <point x="271" y="610" type="line"/>
      <point x="271" y="149" type="line" smooth="yes"/>
      <point x="271" y="58.4251"/>
      <point x="226.875" y="-4"/>
      <point x="131" y="-4" type="curve" smooth="yes"/>
      <point x="84.8237" y="-4"/>
      <point x="41.2268" y="15.2185"/>
      <point x="8" y="47" type="curve"/>
      <point x="61" y="126" type="line"/>
      <point x="79.9837" y="108.481"/>
      <point x="106.997" y="85"/>
      <point x="134" y="85" type="curve" smooth="yes"/>
      <point x="167.077" y="85"/>
      <point x="171" y="113.468"/>
      <point x="171" y="140" type="curve" smooth="yes"/>
      <point x="171" y="606" type="line"/>
      <point x="94" y="616" type="line"/>
    </contour>
  </outline>
</glyph>
<glyph name="O" format="1">
  <advance width="651"/>
  <unicode hex="004F"/>
  <outline>
    <contour>
      <point x="148" y="342" type="curve" smooth="yes" name="hr00"/>
      <point x="148" y="232.104"/>
      <point x="190.394" y="82"/>
      <point x="325" y="82" type="curve" smooth="yes"/>
      <point x="460.405" y="82"/>
      <point x="504" y="230.939"/>
      <point x="504" y="342" type="curve" smooth="yes"/>
      <point x="504" y="452.722"/>
      <point x="460.87" y="606"/>
      <point x="325" y="606" type="curve" smooth="yes"/>
      <point x="189.97" y="606"/>
      <point x="148" y="451.624"/>
    </contour>
    <contour>
      <point x="325" y="-4" type="curve" smooth="yes"/>
      <point x="127.689" y="-4"/>
      <point x="43" y="168.489"/>
      <point x="43" y="344" type="curve" smooth="yes"/>
      <point x="43" y="519.511"/>
      <point x="127.689" y="692"/>
      <point x="325" y="692" type="curve" smooth="yes" name="mh01"/>
      <point x="521.291" y="692"/>
      <point x="609" y="519.395"/>
      <point x="609" y="344" type="curve" smooth="yes"/>
      <point x="609" y="168.605"/>
      <point x="521.291" y="-4"/>
    </contour>
  </outline>
</glyph>
<glyph name="P" format="1">
  <advance width="553"/>
  <unicode hex="0050"/>
  <outline>
    <contour>
      <point x="110" y="84" type="line" name="hr00"/>
      <point x="110" y="610" type="line" name="mh01"/>
      <point x="47" y="615" type="line"/>
      <point x="47" y="691" type="line"/>
      <point x="258" y="691" type="line" smooth="yes" name="mh02"/>
      <point x="402.674" y="691"/>
      <point x="532" y="634.378"/>
      <point x="532" y="470" type="curve" smooth="yes"/>
      <point x="532" y="268.564"/>
      <point x="371.724" y="244"/>
      <point x="210" y="244" type="curve" name="mh04"/>
      <point x="210" y="87" type="line"/>
      <point x="257.226" y="77.6198"/>
      <point x="307.132" y="72.9871"/>
      <point x="355" y="67" type="curve"/>
      <point x="352" y="0" type="line"/>
      <point x="56" y="0" type="line"/>
      <point x="46" y="70" type="line"/>
    </contour>
    <contour>
      <point x="252" y="330" type="line" smooth="yes"/>
      <point x="344.52" y="330"/>
      <point x="427" y="365.699"/>
      <point x="427" y="471" type="curve" smooth="yes" name="mh05"/>
      <point x="427" y="579.504"/>
      <point x="336.105" y="605"/>
      <point x="245" y="605" type="curve" smooth="yes"/>
      <point x="210" y="605" type="line" name="mh06"/>
      <point x="210" y="330" type="line"/>
    </contour>
  </outline>
</glyph>
<glyph name="R" format="1">
  <advance width="584"/>
  <unicode hex="0052"/>
  <outline>
    <contour>
      <point x="110" y="84" type="line" name="hr00"/>
      <point x="110" y="610" type="line"/>
      <point x="47" y="615" type="line"/>
      <point x="47" y="691" type="line"/>
      <point x="258" y="691" type="line" smooth="yes" name="mh01"/>
      <point x="402.846" y="691"/>
      <point x="532" y="634.247"/>
      <point x="532" y="470" type="curve" smooth="yes"/>
      <point x="532" y="380.147"/>
      <point x="484.312" y="314.283"/>
      <point x="402" y="280" type="curve"/>
      <point x="499" y="81" type="line"/>
      <point x="556" y="69" type="line"/>
      <point x="556" y="0" type="line"/>
      <point x="417" y="0" type="line"/>
      <point x="305" y="256" type="line"/>
      <point x="273.467" y="252.06"/>
      <point x="241.708" y="253"/>
      <point x="210" y="253" type="curve"/>
      <point x="210" y="83" type="line"/>
      <point x="289" y="69" type="line"/>
      <point x="289" y="0" type="line"/>
      <point x="56" y="0" type="line"/>
      <point x="46" y="70" type="line"/>
    </contour>
    <contour>
      <point x="252" y="339" type="line" smooth="yes"/>
      <point x="335.439" y="339"/>
      <point x="427" y="373.003"/>
      <point x="427" y="471" type="curve" smooth="yes"/>
      <point x="427" y="579.417"/>
      <point x="336.263" y="605"/>
      <point x="245" y="605" type="curve" smooth="yes"/>
      <point x="210" y="605" type="line"/>
      <point x="210" y="339" type="line"/>
    </contour>
  </outline>
</glyph>
<glyph name="S" format="1">
  <advance width="507"/>
  <unicode hex="0053"/>
  <outline>
    <contour>
      <point x="147" y="96" type="line" name="hr01"/>
      <point x="174.369" y="85.7484"/>
      <point x="203.765" y="80"/>
      <point x="233" y="80" type="curve" smooth="yes"/>
      <point x="296.322" y="80"/>
      <point x="362" y="109.855"/>
      <point x="362" y="182" type="curve" smooth="yes"/>
      <point x="362" y="341.386"/>
      <point x="47" y="284.047"/>
      <point x="47" y="513" type="curve" smooth="yes"/>
      <point x="47" y="631.565"/>
      <point x="160.171" y="691"/>
      <point x="266" y="691" type="curve" smooth="yes" name="mh01"/>
      <point x="323.923" y="691"/>
      <point x="380.632" y="681.03"/>
      <point x="435" y="661" type="curve"/>
      <point x="449" y="489" type="line"/>
      <point x="380" y="489" type="line"/>
      <point x="336" y="597" type="line"/>
      <point x="313.244" y="604.578"/>
      <point x="288.885" y="607"/>
      <point x="265" y="607" type="curve" smooth="yes"/>
      <point x="209.503" y="607"/>
      <point x="152" y="586.906"/>
      <point x="152" y="522" type="curve" smooth="yes"/>
      <point x="152" y="379.15"/>
      <point x="466" y="412.995"/>
      <point x="466" y="195" type="curve" smooth="yes"/>
      <point x="466" y="59.2402"/>
      <point x="361.15" y="-4"/>
      <point x="236" y="-4" type="curve" smooth="yes"/>
      <point x="175.332" y="-4"/>
      <point x="106.623" y="6.69351"/>
      <point x="52" y="34" type="curve"/>
      <point x="59" y="203" type="line"/>
      <point x="129" y="203" type="line"/>
    </contour>
  </outline>
</glyph>
<glyph name="U" format="1">
  <advance width="647"/>
  <unicode hex="0055"/>
  <outline>
    <contour>
      <point x="411" y="691" type="line" name="hr00"/>
      <point x="613" y="691" type="line"/>
      <point x="613" y="617" type="line" name="hr01"/>
      <point x="556" y="607" type="line"/>
      <point x="556" y="230" type="line" smooth="yes"/>
      <point x="556" y="92.3355"/>
      <point x="472.166" y="-4"/>
      <point x="331" y="-4" type="curve" smooth="yes"/>
      <point x="181.177" y="-4"/>
      <point x="92" y="78.0674"/>
      <point x="92" y="230" type="curve" smooth="yes"/>
      <point x="92" y="610" type="line"/>
      <point x="30" y="616" type="line"/>
      <point x="30" y="691" type="line" name="mh01"/>
      <point x="261" y="691" type="line"/>
      <point x="261" y="617" type="line"/>
      <point x="192" y="608" type="line"/>
      <point x="192" y="233" type="line" smooth="yes"/>
      <point x="192" y="139.265"/>
      <point x="237.02" y="82"/>
      <point x="334" y="82" type="curve" smooth="yes"/>
      <point x="427.608" y="82"/>
      <point x="472" y="146.075"/>
      <point x="472" y="234" type="curve" smooth="yes"/>
      <point x="472" y="609" type="line"/>
      <point x="411" y="618" type="line"/>
    </contour>
  </outline>
</glyph>
<glyph name="bracketleft" format="1">
  <advance width="321"/>
  <unicode hex="005B"/>
  <outline>
    <contour>
      <point x="318" y="702" type="line" smooth="yes" name="hr00"/>
      <point x="322.2" y="702"/>
      <point x="324" y="698.89"/>
      <point x="324" y="695" type="curve" smooth="yes"/>
      <point x="324" y="628" type="line"/>
      <point x="173" y="628" type="line" name="hr03"/>
      <point x="173" y="-105" type="line"/>
      <point x="324" y="-105" type="line" name="hr02"/>
      <point x="324" y="-171" type="line" smooth="yes"/>
      <point x="324" y="-174.966"/>
      <point x="322.578" y="-179"/>
      <point x="318" y="-179" type="curve" smooth="yes" name="hr01"/>
      <point x="89" y="-179" type="line"/>
      <point x="78" y="-165" type="line"/>
      <point x="78" y="690" type="line" name="mh01"/>
      <point x="86" y="702" type="line"/>
    </contour>
  </outline>
</glyph>
<glyph name="b" format="1">
  <advance width="490"/>
  <unicode hex="0062"/>
  <outline>
    <contour>
      <point x="159" y="459" type="line" name="hr00"/>
      <point x="188.228" y="477.895"/>
      <point x="223.516" y="486"/>
      <point x="258" y="486" type="curve" smooth="yes" name="mh01"/>
      <point x="392.053" y="486"/>
      <point x="454" y="366.884"/>
      <point x="454" y="247" type="curve" smooth="yes"/>
      <point x="454" y="111.837"/>
      <point x="389.279" y="-4"/>
      <point x="240" y="-4" type="curve" smooth="yes"/>
      <point x="206.719" y="-4"/>
      <point x="173.223" y="2.6073"/>
      <point x="144" y="19" type="curve"/>
      <point x="128.011" y="10.7299"/>
      <point x="109.143" y="-1.57564"/>
      <point x="92" y="-6" type="curve"/>
      <point x="69" y="8" type="line"/>
      <point x="69" y="656" type="line"/>
      <point x="11" y="652" type="line"/>
      <point x="2" y="712" type="line"/>
      <point x="129" y="731" type="line"/>
      <point x="159" y="699" type="line"/>
    </contour>
    <contour>
      <point x="243" y="410" type="curve" smooth="yes" name="hr01"/>
      <point x="213.724" y="410"/>
      <point x="178.642" y="399.897"/>
      <point x="159" y="377" type="curve"/>
      <point x="159" y="97" type="line"/>
      <point x="173.923" y="78.436"/>
      <point x="215.27" y="71"/>
      <point x="238" y="71" type="curve" smooth="yes"/>
      <point x="329.548" y="71"/>
      <point x="359" y="165.583"/>
      <point x="359" y="241" type="curve" smooth="yes"/>
      <point x="359" y="313.458"/>
      <point x="332.306" y="410"/>
    </contour>
  </outline>
</glyph>
<glyph name="c" format="1">
  <advance width="432"/>
  <unicode hex="0063"/>
  <outline>
    <contour>
      <point x="285" y="406" type="line" name="hr00"/>
      <point x="274.232" y="408.684"/>
      <point x="263.129" y="411"/>
      <point x="252" y="411" type="curve" smooth="yes"/>
      <point x="152.017" y="411"/>
      <point x="131" y="316.16"/>
      <point x="131" y="235" type="curve" smooth="yes"/>
      <point x="131" y="152.131"/>
      <point x="170.511" y="71"/>
      <point x="264" y="71" type="curve" smooth="yes"/>
      <point x="301.604" y="71"/>
      <point x="347.012" y="85.0154"/>
      <point x="374" y="112" type="curve"/>
      <point x="382.223" y="88.9478"/>
      <point x="387.225" y="64.859"/>
      <point x="396" y="42" type="curve"/>
      <point x="353.534" y="9.33886"/>
      <point x="302.97" y="-4"/>
      <point x="250" y="-4" type="curve" smooth="yes"/>
      <point x="110.916" y="-4"/>
      <point x="36" y="102.355"/>
      <point x="36" y="233" type="curve" smooth="yes"/>
      <point x="36" y="369.414"/>
      <point x="100.554" y="486"/>
      <point x="251" y="486" type="curve" smooth="yes" name="mv01"/>
      <point x="312.078" y="486"/>
      <point x="389.171" y="453.63"/>
      <point x="416" y="395" type="curve"/>
      <point x="317" y="348" type="line"/>
    </contour>
  </outline>
</glyph>
<glyph name="d" format="1">
  <advance width="502"/>
  <unicode hex="0064"/>
  <outline>
    <contour>
      <point x="434" y="68" type="curve" smooth="yes" name="hr00"/>
      <point x="441.624" y="68"/>
      <point x="448.357" y="71.6854"/>
      <point x="455" y="75" type="curve"/>
      <point x="477" y="22" type="line"/>
      <point x="457.284" y="5.77006"/>
      <point x="433.581" y="-4"/>
      <point x="408" y="-4" type="curve" smooth="yes"/>
      <point x="381.196" y="-4"/>
      <point x="354.095" y="3.54722"/>
      <point x="341" y="29" type="curve"/>
      <point x="309.487" y="6.77442"/>
      <point x="270.269" y="-4"/>
      <point x="232" y="-4" type="curve" smooth="yes"/>
      <point x="97.9153" y="-4"/>
      <point x="36" y="115.324"/>
      <point x="36" y="235" type="curve" smooth="yes"/>
      <point x="36" y="370.263"/>
      <point x="100.83" y="486"/>
      <point x="250" y="486" type="curve" smooth="yes" name="mh01"/>
      <point x="277.436" y="486"/>
      <point x="304.702" y="480.652"/>
      <point x="330" y="470" type="curve"/>
      <point x="330" y="656" type="line"/>
      <point x="273" y="652" type="line"/>
      <point x="264" y="712" type="line"/>
      <point x="389" y="733" type="line"/>
      <point x="420" y="699" type="line"/>
      <point x="420" y="89" type="line" smooth="yes" name="hr00"/>
      <point x="420" y="80.0912"/>
      <point x="422.631" y="68"/>
    </contour>
    <contour>
      <point x="247" y="72" type="curve" smooth="yes"/>
      <point x="276.554" y="72"/>
      <point x="309.403" y="81.8298"/>
      <point x="330" y="104" type="curve"/>
      <point x="330" y="386" type="line"/>
      <point x="312.526" y="403.395"/>
      <point x="276.018" y="411"/>
      <point x="252" y="411" type="curve" smooth="yes"/>
      <point x="160.452" y="411"/>
      <point x="131" y="316.417"/>
      <point x="131" y="241" type="curve" smooth="yes"/>
      <point x="131" y="168.542"/>
      <point x="157.694" y="72"/>
    </contour>
  </outline>
</glyph>
<glyph name="f" format="1">
  <advance width="337"/>
  <unicode hex="0066"/>
  <outline>
    <contour>
      <point x="17" y="476" type="line" name="hr00"/>
      <point x="24" y="486" type="line"/>
      <point x="99" y="486" type="line"/>
      <point x="99" y="577" type="line" smooth="yes"/>
      <point x="99" y="663.587"/>
      <point x="143.272" y="730"/>
      <point x="236" y="730" type="curve" smooth="yes" name="mh01"/>
      <point x="282.221" y="730"/>
      <point x="345.351" y="709.872"/>
      <point x="379" y="677" type="curve"/>
      <point x="308" y="594" type="line"/>
      <point x="244" y="653" type="line"/>
      <point x="239.496" y="654.489"/>
      <point x="234.725" y="655"/>
      <point x="230" y="655" type="curve" smooth="yes"/>
      <point x="195.002" y="655"/>
      <point x="190" y="616.101"/>
      <point x="190" y="589" type="curve" smooth="yes"/>
      <point x="190" y="486" type="line"/>
      <point x="303" y="486" type="line" smooth="yes"/>
      <point x="313.179" y="486"/>
      <point x="308" y="424.075"/>
      <point x="308" y="411" type="curve"/>
      <point x="190" y="411" type="line"/>
      <point x="190" y="71" type="line"/>
      <point x="304" y="54" type="line"/>
      <point x="304" y="0" type="line"/>
      <point x="54" y="0" type="line"/>
      <point x="42" y="54" type="line"/>
      <point x="99" y="66" type="line"/>
      <point x="99" y="411" type="line"/>
      <point x="31" y="411" type="line"/>
    </contour>
  </outline>
</glyph>
<glyph name="g" format="1">
  <advance width="488"/>
  <unicode hex="0067"/>
  <outline>
    <contour>
      <point x="228" y="486" type="curve" smooth="yes" name="hr02"/>
      <point x="273.436" y="486"/>
      <point x="318.591" y="470.6"/>
      <point x="354" y="442" type="curve"/>
      <point x="453" y="492" type="line"/>
      <point x="474" y="489" type="line"/>
      <point x="484" y="406" type="line"/>
      <point x="394" y="395" type="line"/>
      <point x="409.508" y="366.801"/>
      <point x="418" y="335.206"/>
      <point x="418" y="303" type="curve" smooth="yes"/>
      <point x="418" y="193.501"/>
      <point x="333.369" y="126"/>
      <point x="228" y="126" type="curve" smooth="yes"/>
      <point x="213.271" y="126"/>
      <point x="198.439" y="126.965"/>
      <point x="184" y="130" type="curve"/>
      <point x="159" y="91" type="line"/>
      <point x="163" y="74" type="line" name="hr01"/>
      <point x="266.379" y="53.504"/>
      <point x="434" y="49.3515"/>
      <point x="434" y="-94" type="curve" smooth="yes"/>
      <point x="434" y="-211.408"/>
      <point x="333.403" y="-275"/>
      <point x="225" y="-275" type="curve" smooth="yes"/>
      <point x="132.925" y="-275"/>
      <point x="18" y="-236.216"/>
      <point x="18" y="-126" type="curve" smooth="yes"/>
      <point x="18" y="-65.9037"/>
      <point x="47.1371" y="-17.9364"/>
      <point x="101" y="9" type="curve"/>
      <point x="82.522" y="24.3934"/>
      <point x="77" y="48.9477"/>
      <point x="77" y="72" type="curve" smooth="yes"/>
      <point x="77" y="104.32"/>
      <point x="93.6478" y="132.647"/>
      <point x="116" y="155" type="curve"/>
      <point x="64.5432" y="188.811"/>
      <point x="39" y="241.08"/>
      <point x="39" y="302" type="curve" smooth="yes"/>
      <point x="39" y="410.008"/>
      <point x="121.628" y="486"/>
    </contour>
    <contour>
      <point x="224" y="411" type="curve" smooth="yes"/>
      <point x="166.023" y="411"/>
      <point x="134" y="358.767"/>
      <point x="134" y="306" type="curve" smooth="yes"/>
      <point x="134" y="247.48"/>
      <point x="165.227" y="201"/>
      <point x="228" y="201" type="curve" smooth="yes"/>
      <point x="290.937" y="201"/>
      <point x="323" y="246.794"/>
      <point x="323" y="306" type="curve" smooth="yes"/>
      <point x="323" y="367.178"/>
      <point x="287.376" y="411"/>
    </contour>
    <contour>
      <point x="177" y="-24" type="curve"/>
      <point x="137.945" y="-39.94"/>
      <point x="106" y="-66.7821"/>
      <point x="106" y="-112" type="curve" smooth="yes"/>
      <point x="106" y="-170.303"/>
      <point x="185.807" y="-187"/>
      <point x="231" y="-187" type="curve" smooth="yes"/>
      <point x="277.329" y="-187"/>
      <point x="358" y="-165.308"/>
      <point x="358" y="-107" type="curve" smooth="yes"/>
      <point x="358" y="-87.0058"/>
      <point x="348.225" y="-73.8992"/>
      <point x="330.5" y="-65.5" type="curve" smooth="yes"/>
      <point x="283.047" y="-43.0134"/>
      <point x="227.11" y="-38.8444"/>
    </contour>
  </outline>
</glyph>
<glyph name="h" format="1">
  <advance width="521"/>
  <unicode hex="0068"/>
  <outline>
    <contour>
      <point x="440" y="70" type="line" name="hr00"/>
      <point x="500" y="54" type="line"/>
      <point x="500" y="0" type="line"/>
      <point x="301" y="0" type="line"/>
      <point x="289" y="54" type="line"/>
      <point x="350" y="68" type="line"/>
      <point x="350" y="331" type="line" smooth="yes" name="mh01"/>
      <point x="350" y="381.415"/>
      <point x="328.429" y="409"/>
      <point x="276" y="409" type="curve" smooth="yes"/>
      <point x="244.759" y="409"/>
      <point x="196.314" y="391.245"/>
      <point x="174" y="369" type="curve"/>
      <point x="174" y="70" type="line"/>
      <point x="233" y="54" type="line"/>
      <point x="233" y="0" type="line"/>
      <point x="34" y="0" type="line"/>
      <point x="22" y="54" type="line"/>
      <point x="84" y="68" type="line"/>
      <point x="84" y="656" type="line" name="mh02"/>
      <point x="27" y="652" type="line"/>
      <point x="18" y="712" type="line"/>
      <point x="143" y="733" type="line"/>
      <point x="174" y="699" type="line"/>
      <point x="174" y="450" type="line"/>
      <point x="207.731" y="474.349"/>
      <point x="250.779" y="486"/>
      <point x="292" y="486" type="curve" smooth="yes" name="mh03"/>
      <point x="383.401" y="486"/>
      <point x="440" y="440.576"/>
      <point x="440" y="346" type="curve" smooth="yes" name="mh04"/>
    </contour>
  </outline>
</glyph>
<glyph name="j" format="1">
  <advance width="243"/>
  <unicode hex="006A"/>
  <outline>
    <contour>
      <point x="23" y="464" type="line" name="hr00"/>
      <point x="144" y="486" type="line" name="mh01"/>
      <point x="175" y="454" type="line"/>
      <point x="175" y="-124" type="line" smooth="yes"/>
      <point x="175" y="-205.35"/>
      <point x="147.028" y="-272"/>
      <point x="55" y="-272" type="curve" smooth="yes"/>
      <point x="22.554" y="-272"/>
      <point x="-9.57037" y="-263.458"/>
      <point x="-37" y="-246" type="curve"/>
      <point x="1" y="-173" type="line"/>
      <point x="17.4856" y="-184.777"/>
      <point x="28.4175" y="-196"/>
      <point x="50" y="-196" type="curve" smooth="yes"/>
      <point x="81.3825" y="-196"/>
      <point x="85" y="-158.179"/>
      <point x="85" y="-135" type="curve" smooth="yes"/>
      <point x="85" y="408" type="line"/>
      <point x="32" y="404" type="line"/>
    </contour>
    <contour>
      <point x="52" y="666" type="curve" smooth="yes"/>
      <point x="52" y="700.818"/>
      <point x="79.182" y="728"/>
      <point x="114" y="728" type="curve" smooth="yes" name="mh02"/>
      <point x="147.585" y="728"/>
      <point x="176" y="699.638"/>
      <point x="176" y="666" type="curve" smooth="yes"/>
      <point x="176" y="631.182"/>
      <point x="148.818" y="604"/>
      <point x="114" y="604" type="curve" smooth="yes"/>
      <point x="78.5999" y="604"/>
      <point x="52" y="630.501"/>
    </contour>
  </outline>
</glyph>
<glyph name="m" format="1">
  <advance width="797"/>
  <unicode hex="006D"/>
  <outline>
    <contour>
      <point x="449" y="70" type="curve" name="hr00"/>
      <point x="509" y="54" type="line"/>
      <point x="509" y="0" type="line"/>
      <point x="310" y="0" type="line"/>
      <point x="298" y="54" type="line"/>
      <point x="359" y="68" type="line"/>
      <point x="359" y="331" type="line" smooth="yes"/>
      <point x="359" y="381.415"/>
      <point x="337.429" y="409"/>
      <point x="285" y="409" type="curve" smooth="yes"/>
      <point x="252.545" y="409"/>
      <point x="207.144" y="393.111"/>
      <point x="184" y="370" type="curve"/>
      <point x="184" y="70" type="line"/>
      <point x="242" y="54" type="line"/>
      <point x="242" y="0" type="line"/>
      <point x="43" y="0" type="line"/>
      <point x="31" y="54" type="line"/>
      <point x="94" y="68" type="line"/>
      <point x="94" y="408" type="line"/>
      <point x="39" y="404" type="line"/>
      <point x="29" y="464" type="line"/>
      <point x="69.7412" y="470.273"/>
      <point x="111.569" y="477.925"/>
      <point x="152" y="486" type="curve"/>
      <point x="181" y="449" type="line"/>
      <point x="214.195" y="474.805"/>
      <point x="259.582" y="486"/>
      <point x="301" y="486" type="curve" smooth="yes"/>
      <point x="346.126" y="486"/>
      <point x="392.194" y="475.455"/>
      <point x="421" y="438" type="curve"/>
      <point x="464.926" y="470.592"/>
      <point x="512.328" y="486"/>
      <point x="567" y="486" type="curve" smooth="yes"/>
      <point x="657.17" y="486"/>
      <point x="717" y="439.872"/>
      <point x="717" y="346" type="curve" smooth="yes"/>
      <point x="717" y="70" type="line"/>
      <point x="776" y="54" type="line"/>
      <point x="776" y="0" type="line"/>
      <point x="576" y="0" type="line"/>
      <point x="565" y="54" type="line"/>
      <point x="627" y="68" type="line"/>
      <point x="627" y="331" type="line" smooth="yes"/>
      <point x="627" y="383.787"/>
      <point x="596.42" y="409"/>
      <point x="545" y="409" type="curve" smooth="yes"/>
      <point x="513.032" y="409"/>
      <point x="472.317" y="393.822"/>
      <point x="448" y="373" type="curve"/>
      <point x="448" y="363" type="line" smooth="yes"/>
      <point x="448" y="265.412"/>
      <point x="449" y="167.638"/>
    </contour>
  </outline>
</glyph>
<glyph name="n" format="1">
  <advance width="530"/>
  <unicode hex="006E"/>
  <outline>
    <contour>
      <point x="449" y="71" type="line" name="hr00"/>
      <point x="509" y="54" type="line"/>
      <point x="509" y="0" type="line"/>
      <point x="310" y="0" type="line"/>
      <point x="298" y="54" type="line"/>
      <point x="359" y="68" type="line"/>
      <point x="359" y="331" type="line" smooth="yes"/>
      <point x="359" y="381.4"/>
      <point x="337.451" y="409"/>
      <point x="285" y="409" type="curve" smooth="yes"/>
      <point x="252.528" y="409"/>
      <point x="207.148" y="393.11"/>
      <point x="184" y="370" type="curve"/>
      <point x="184" y="70" type="line"/>
      <point x="242" y="54" type="line"/>
      <point x="242" y="0" type="line"/>
      <point x="43" y="0" type="line"/>
      <point x="31" y="54" type="line"/>
      <point x="94" y="68" type="line"/>
      <point x="94" y="408" type="line"/>
      <point x="39" y="404" type="line"/>
      <point x="29" y="464" type="line"/>
      <point x="69.7494" y="470.274"/>
      <point x="111.554" y="477.923"/>
      <point x="152" y="486" type="curve"/>
      <point x="181" y="449" type="line"/>
      <point x="214.2" y="474.807"/>
      <point x="259.574" y="486"/>
      <point x="301" y="486" type="curve" smooth="yes"/>
      <point x="392.493" y="486"/>
      <point x="449" y="440.496"/>
      <point x="449" y="346" type="curve" smooth="yes"/>
    </contour>
  </outline>
</glyph>
<glyph name="o" format="1">
  <advance width="495"/>
  <unicode hex="006F"/>
  <outline>
    <contour>
      <point x="131" y="237" type="curve" smooth="yes" name="hr00"/>
      <point x="131" y="160.85"/>
      <point x="155.094" y="71"/>
      <point x="248" y="71" type="curve" smooth="yes"/>
      <point x="340.742" y="71"/>
      <point x="365" y="161.273"/>
      <point x="365" y="237" type="curve" smooth="yes"/>
      <point x="365" y="311.318"/>
      <point x="340.223" y="411"/>
      <point x="248" y="411" type="curve" smooth="yes"/>
      <point x="155.597" y="411"/>
      <point x="131" y="311.646"/>
    </contour>
    <contour>
      <point x="36" y="243" type="curve" smooth="yes"/>
      <point x="36" y="371.635"/>
      <point x="108.364" y="486"/>
      <point x="248" y="486" type="curve" smooth="yes"/>
      <point x="387.034" y="486"/>
      <point x="460" y="371.425"/>
      <point x="460" y="243" type="curve" smooth="yes"/>
      <point x="460" y="114.767"/>
      <point x="388.367" y="-4"/>
      <point x="248" y="-4" type="curve" smooth="yes"/>
      <point x="107.205" y="-4"/>
      <point x="36" y="113.932"/>
    </contour>
  </outline>
</glyph>
<glyph name="p" format="1">
  <advance width="505"/>
  <unicode hex="0070"/>
  <outline>
    <contour>
      <point x="144" y="486" type="line" name="hr00"/>
      <point x="171" y="457" type="line"/>
      <point x="201.209" y="476.521"/>
      <point x="237.233" y="486"/>
      <point x="273" y="486" type="curve" smooth="yes" name="mh01"/>
      <point x="407.096" y="486"/>
      <point x="469" y="366.685"/>
      <point x="469" y="247" type="curve" smooth="yes"/>
      <point x="469" y="111.918"/>
      <point x="404.366" y="-4"/>
      <point x="255" y="-4" type="curve" smooth="yes"/>
      <point x="227.751" y="-4"/>
      <point x="200.082" y="-0.0610814"/>
      <point x="175" y="11" type="curve"/>
      <point x="175" y="-199" type="line"/>
      <point x="297" y="-221" type="line"/>
      <point x="297" y="-274" type="line"/>
      <point x="35" y="-274" type="line"/>
      <point x="23" y="-221" type="line"/>
      <point x="85" y="-206" type="line"/>
      <point x="85" y="409" type="line"/>
      <point x="28" y="405" type="line"/>
      <point x="19" y="465" type="line"/>
    </contour>
    <contour>
      <point x="258" y="410" type="curve" smooth="yes"/>
      <point x="228.584" y="410"/>
      <point x="196.092" y="399.077"/>
      <point x="175" y="378" type="curve"/>
      <point x="175" y="96" type="line"/>
      <point x="191.495" y="77.7434"/>
      <point x="229.306" y="71"/>
      <point x="253" y="71" type="curve" smooth="yes"/>
      <point x="344.548" y="71"/>
      <point x="374" y="165.583"/>
      <point x="374" y="241" type="curve" smooth="yes"/>
      <point x="374" y="313.458"/>
      <point x="347.306" y="410"/>
    </contour>
  </outline>
</glyph>
<glyph name="q" format="1">
  <advance width="489"/>
  <unicode hex="0071"/>
  <outline>
    <contour>
      <point x="420" y="-182" type="line" name="hr00"/>
      <point x="475" y="-201" type="line"/>
      <point x="475" y="-274" type="line"/>
      <point x="218" y="-274" type="line"/>
      <point x="207" y="-211" type="line"/>
      <point x="330" y="-187" type="line"/>
      <point x="330" y="22" type="line"/>
      <point x="301.392" y="3.51013"/>
      <point x="265.681" y="-4"/>
      <point x="232" y="-4" type="curve" smooth="yes"/>
      <point x="97.9036" y="-4"/>
      <point x="36" y="115.315"/>
      <point x="36" y="235" type="curve" smooth="yes"/>
      <point x="36" y="370.193"/>
      <point x="100.745" y="486"/>
      <point x="250" y="486" type="curve" smooth="yes" name="mh01"/>
      <point x="281.05" y="486"/>
      <point x="312.118" y="479.941"/>
      <point x="340" y="466" type="curve"/>
      <point x="397" y="487" type="line"/>
      <point x="420" y="468" type="line"/>
    </contour>
    <contour>
      <point x="247" y="72" type="curve" smooth="yes"/>
      <point x="276.554" y="72"/>
      <point x="309.403" y="81.8298"/>
      <point x="330" y="104" type="curve"/>
      <point x="330" y="386" type="line"/>
      <point x="312.526" y="403.395"/>
      <point x="276.018" y="411"/>
      <point x="252" y="411" type="curve" smooth="yes"/>
      <point x="160.452" y="411"/>
      <point x="131" y="316.417"/>
      <point x="131" y="241" type="curve" smooth="yes"/>
      <point x="131" y="168.542"/>
      <point x="157.694" y="72"/>
    </contour>
  </outline>
</glyph>
<glyph name="r" format="1">
  <advance width="405"/>
  <unicode hex="0072"/>
  <outline>
    <contour>
      <point x="29" y="464" type="line" name="hr00"/>
      <point x="68.248" y="470.04"/>
      <point x="108.059" y="477.217"/>
      <point x="147" y="485" type="curve"/>
      <point x="178" y="439" type="line"/>
      <point x="203.743" y="468.607"/>
      <point x="242.951" y="485"/>
      <point x="282" y="485" type="curve" smooth="yes"/>
      <point x="335.062" y="485"/>
      <point x="379.365" y="457.292"/>
      <point x="402" y="409" type="curve"/>
      <point x="303" y="359" type="line"/>
      <point x="272" y="407" type="line"/>
      <point x="215.741" y="407.007"/>
      <point x="183" y="351.825"/>
      <point x="183" y="301" type="curve" smooth="yes"/>
      <point x="183" y="85" type="line" smooth="yes"/>
      <point x="183" y="80.6959"/>
      <point x="197.267" y="78.5804"/>
      <point x="200" y="78" type="curve" smooth="yes"/>
      <point x="313" y="54" type="line"/>
      <point x="313" y="0" type="line"/>
      <point x="43" y="0" type="line"/>
      <point x="31" y="54" type="line"/>
      <point x="93" y="68" type="line"/>
      <point x="93" y="405" type="line"/>
      <point x="38" y="405" type="line"/>
    </contour>
  </outline>
</glyph>
<glyph name="s" format="1">
  <advance width="404"/>
  <unicode hex="0073"/>
  <outline>
    <contour>
      <point x="205" y="486" type="curve" smooth="yes" name="hr00"/>
      <point x="275.205" y="486"/>
      <point x="339.17" y="450.647"/>
      <point x="371" y="387" type="curve"/>
      <point x="269" y="348" type="line"/>
      <point x="246" y="399" type="line"/>
      <point x="230.396" y="406.694"/>
      <point x="220.347" y="409"/>
      <point x="203" y="409" type="curve" smooth="yes"/>
      <point x="171.229" y="409"/>
      <point x="142" y="390.186"/>
      <point x="142" y="356" type="curve" smooth="yes"/>
      <point x="142" y="270.168"/>
      <point x="365" y="291.289"/>
      <point x="365" y="134" type="curve" smooth="yes"/>
      <point x="365" y="39.8711"/>
      <point x="281.583" y="-4"/>
      <point x="197" y="-4" type="curve" smooth="yes"/>
      <point x="131.544" y="-4"/>
      <point x="46.0357" y="34.9116"/>
      <point x="24" y="101" type="curve"/>
      <point x="127" y="140" type="line"/>
      <point x="151" y="82" type="line"/>
      <point x="168.658" y="74.4634"/>
      <point x="183.899" y="72"/>
      <point x="203" y="72" type="curve" smooth="yes"/>
      <point x="236.743" y="72"/>
      <point x="270" y="90.9101"/>
      <point x="270" y="128" type="curve" smooth="yes"/>
      <point x="270" y="215.558"/>
      <point x="47" y="195.573"/>
      <point x="47" y="354" type="curve" smooth="yes"/>
      <point x="47" y="439.375"/>
      <point x="127.564" y="486"/>
    </contour>
  </outline>
</glyph>
<glyph name="t" format="1">
  <advance width="325"/>
  <unicode hex="0074"/>
  <outline>
    <contour>
      <point x="4" y="476" type="line" name="hr00"/>
      <point x="11" y="486" type="line"/>
      <point x="100" y="486" type="line"/>
      <point x="100" y="653" type="line"/>
      <point x="180" y="672" type="line" name="mh01"/>
      <point x="189.952" y="658.73"/>
      <point x="185" y="511.078"/>
      <point x="185" y="486" type="curve"/>
      <point x="202.934" y="486"/>
      <point x="294" y="493.116"/>
      <point x="294" y="480" type="curve" smooth="yes"/>
      <point x="294" y="411" type="line"/>
      <point x="185" y="411" type="line"/>
      <point x="185" y="124" type="line" smooth="yes"/>
      <point x="185" y="93.6412"/>
      <point x="188.672" y="73"/>
      <point x="224" y="73" type="curve" smooth="yes"/>
      <point x="244.947" y="73"/>
      <point x="275.684" y="87.964"/>
      <point x="292" y="101" type="curve"/>
      <point x="296.337" y="79.5631"/>
      <point x="306.022" y="55.9556"/>
      <point x="313" y="35" type="curve"/>
      <point x="284.506" y="8.55334"/>
      <point x="245.295" y="-4"/>
      <point x="207" y="-4" type="curve" smooth="yes"/>
      <point x="134.935" y="-4"/>
      <point x="100" y="36.3106"/>
      <point x="100" y="107" type="curve" smooth="yes"/>
      <point x="100" y="411" type="line"/>
      <point x="18" y="411" type="line"/>
    </contour>
  </outline>
</glyph>
<glyph name="y" format="1">
  <advance width="480"/>
  <unicode hex="0079"/>
  <outline>
    <contour>
      <point x="474" y="452" type="line" name="hr00"/>
      <point x="420.988" y="301.799"/>
      <point x="365.795" y="152.118"/>
      <point x="308.5" y="3.5" type="curve" smooth="yes"/>
      <point x="283.56" y="-61.1928"/>
      <point x="261.162" y="-129.361"/>
      <point x="230.5" y="-191.5" type="curve" smooth="yes"/>
      <point x="223.125" y="-206.446"/>
      <point x="214.28" y="-220.754"/>
      <point x="203.5" y="-233.5" type="curve" smooth="yes"/>
      <point x="180.079" y="-261.191"/>
      <point x="150.205" y="-275"/>
      <point x="114" y="-275" type="curve" smooth="yes"/>
      <point x="79.9817" y="-275"/>
      <point x="49.7839" y="-257.029"/>
      <point x="25" y="-235" type="curve"/>
      <point x="62" y="-166" type="line"/>
      <point x="76.0245" y="-183.1"/>
      <point x="98.0009" y="-200"/>
      <point x="121" y="-200" type="curve" smooth="yes"/>
      <point x="166.305" y="-200"/>
      <point x="200.121" y="-78.1762"/>
      <point x="211" y="-49" type="curve"/>
      <point x="49" y="416" type="line"/>
      <point x="9" y="416" type="line"/>
      <point x="1" y="478" type="line" name="hr01"/>
      <point x="125" y="486" type="line" name="mh01"/>
      <point x="260" y="81" type="line"/>
      <point x="386" y="416" type="line"/>
      <point x="334" y="416" type="line"/>
      <point x="327" y="477" type="line"/>
      <point x="448" y="486" type="line"/>
    </contour>
  </outline>
</glyph>
<glyph name="braceleft" format="1">
  <advance width="337"/>
  <unicode hex="007B"/>
  <outline>
    <contour>
      <point x="7" y="316" type="line" name="hr00"/>
      <point x="36.008" y="315.996"/>
      <point x="64.5828" y="324.468"/>
      <point x="86.5" y="344" type="curve" smooth="yes"/>
      <point x="131.563" y="384.158"/>
      <point x="116" y="455.443"/>
      <point x="116" y="509" type="curve" smooth="yes" name="hr01"/>
      <point x="116" y="622.07"/>
      <point x="131.08" y="706"/>
      <point x="265" y="706" type="curve" smooth="yes"/>
      <point x="291.291" y="706"/>
      <point x="316.249" y="700.292"/>
      <point x="342" y="696" type="curve"/>
      <point x="312" y="600" type="line"/>
      <point x="241" y="624" type="line"/>
      <point x="197.727" y="599.965"/>
      <point x="211" y="471.132"/>
      <point x="211" y="426" type="curve" smooth="yes"/>
      <point x="211" y="353.406"/>
      <point x="190.944" y="279.277"/>
      <point x="106" y="273" type="curve"/>
      <point x="231.391" y="268.382"/>
      <point x="210" y="119.762"/>
      <point x="210" y="33" type="curve" smooth="yes"/>
      <point x="210" y="2.84231"/>
      <point x="208.662" y="-64.3377"/>
      <point x="241" y="-79" type="curve"/>
      <point x="312" y="-55" type="line" name="hr02"/>
      <point x="342" y="-151" type="line"/>
      <point x="316.351" y="-155.81"/>
      <point x="291.265" y="-162"/>
      <point x="265" y="-162" type="curve" smooth="yes" name="hr03"/>
      <point x="88.43" y="-162"/>
      <point x="118" y="13.5199"/>
      <point x="118" y="135" type="curve" smooth="yes"/>
      <point x="118" y="198.444"/>
      <point x="66.2683" y="233.005"/>
      <point x="7" y="233" type="curve"/>
    </contour>
  </outline>
</glyph>
<glyph name="bar" format="1">
  <advance width="247"/>
  <unicode hex="007C"/>
  <outline>
    <contour>
      <point x="78" y="-214" type="line" name="hr00"/>
      <point x="78" y="694" type="line" name="mh01"/>
      <point x="169" y="694" type="line"/>
      <point x="169" y="-214" type="line"/>
    </contour>
  </outline>
</glyph>
<glyph name="braceright" format="1">
  <advance width="337"/>
  <unicode hex="007D"/>
  <outline>
    <contour>
      <point x="330" y="233" type="line" name="hr00"/>
      <point x="302.492" y="233.002"/>
      <point x="274.393" y="225.025"/>
      <point x="252.5" y="208" type="curve" smooth="yes"/>
      <point x="203.51" y="169.904"/>
      <point x="221" y="92.461"/>
      <point x="221" y="38" type="curve" smooth="yes"/>
      <point x="221" y="-69.3967"/>
      <point x="200.294" y="-162"/>
      <point x="72" y="-162" type="curve" smooth="yes"/>
      <point x="45.7349" y="-162"/>
      <point x="20.6492" y="-155.81"/>
      <point x="-5" y="-151" type="curve"/>
      <point x="25" y="-55" type="line"/>
      <point x="96" y="-79" type="line"/>
      <point x="139.375" y="-59.3333"/>
      <point x="126" y="78.9368"/>
      <point x="126" y="121" type="curve" smooth="yes"/>
      <point x="126" y="195.249"/>
      <point x="144.492" y="271.245"/>
      <point x="232" y="276" type="curve"/>
      <point x="104.386" y="275.968"/>
      <point x="127" y="441.54"/>
      <point x="127" y="526" type="curve" smooth="yes"/>
      <point x="127" y="555.019"/>
      <point x="124.452" y="608.197"/>
      <point x="96" y="624" type="curve"/>
      <point x="25" y="600" type="line"/>
      <point x="-5" y="696" type="line"/>
      <point x="20.7509" y="700.292"/>
      <point x="45.709" y="706"/>
      <point x="72" y="706" type="curve" smooth="yes"/>
      <point x="248.143" y="706"/>
      <point x="219" y="550.465"/>
      <point x="219" y="426" type="curve" smooth="yes"/>
      <point x="219" y="357.637"/>
      <point x="261.804" y="315.991"/>
      <point x="330" y="316" type="curve"/>
    </contour>
  </outline>
</glyph>
<glyph name="asciitilde" format="1">
  <advance width="410"/>
  <unicode hex="007E"/>
  <outline>
    <contour>
      <point x="332" y="679" type="line" name="hr00"/>
      <point x="391" y="611" type="line"/>
      <point x="365.086" y="582.36"/>
      <point x="327.361" y="552"/>
      <point x="287" y="552" type="curve" smooth="yes"/>
      <point x="235.846" y="552"/>
      <point x="196.852" y="593"/>
      <point x="146" y="593" type="curve" smooth="yes" name="hr01"/>
      <point x="115.747" y="593"/>
      <point x="94.4294" y="570.815"/>
      <point x="84" y="544" type="curve"/>
      <point x="25" y="579" type="line"/>
      <point x="26" y="592" type="line" name="hr02"/>
      <point x="48.2788" y="639.734"/>
      <point x="88.1665" y="675"/>
      <point x="143" y="675" type="curve" smooth="yes"/>
      <point x="198.492" y="675"/>
      <point x="243.839" y="630.017"/>
      <point x="277" y="630" type="curve"/>
    </contour>
  </outline>
</glyph>
<glyph name="exclamdown" format="1">
  <advance width="254"/>
  <unicode hex="00A1"/>
  <outline>
    <contour>
      <point x="67" y="432" type="curve" smooth="yes" name="hr00"/>
      <point x="67" y="466.741"/>
      <point x="92.2592" y="492"/>
      <point x="127" y="492" type="curve" smooth="yes" name="mh01"/>
      <point x="159.414" y="492"/>
      <point x="186" y="464.08"/>
      <point x="186" y="432" type="curve" smooth="yes"/>
      <point x="186" y="401"/>
      <point x="157.737" y="374"/>
      <point x="127" y="374" type="curve" smooth="yes"/>
      <point x="93.86" y="374"/>
      <point x="67" y="398.162"/>
    </contour>
    <contour>
      <point x="91" y="251" type="line"/>
      <point x="160" y="251" type="line"/>
      <point x="197" y="-164" type="line"/>
      <point x="176" y="-202" type="line"/>
      <point x="59" y="-189" type="line"/>
    </contour>
  </outline>
</glyph>
<glyph name="cent" format="1">
  <advance width="437"/>
  <unicode hex="00A2"/>
  <outline>
    <contour>
      <point x="200" y="-210" type="line" name="hr00"/>
      <point x="200" y="0" type="line"/>
      <point x="84.3408" y="23.8099"/>
      <point x="31" y="121.584"/>
      <point x="31" y="233" type="curve" smooth="yes"/>
      <point x="31" y="347.427"/>
      <point x="75.3621" y="458.339"/>
      <point x="200" y="481" type="curve"/>
      <point x="200" y="686" type="line" name="ah01"/>
      <point x="290" y="686" type="line"/>
      <point x="290" y="481" type="line"/>
      <point x="341.377" y="471.127"/>
      <point x="385.397" y="440.944"/>
      <point x="411" y="395" type="curve"/>
      <point x="312" y="348" type="line"/>
      <point x="280" y="406" type="line"/>
      <point x="269.232" y="408.684"/>
      <point x="258.129" y="411"/>
      <point x="247" y="411" type="curve" smooth="yes"/>
      <point x="147.131" y="411"/>
      <point x="126" y="316.359"/>
      <point x="126" y="235" type="curve" smooth="yes"/>
      <point x="126" y="152.101"/>
      <point x="165.54" y="71"/>
      <point x="259" y="71" type="curve" smooth="yes"/>
      <point x="296.587" y="71"/>
      <point x="341.986" y="84.9891"/>
      <point x="369" y="112" type="curve"/>
      <point x="377.225" y="88.9485"/>
      <point x="382.222" y="64.8578"/>
      <point x="391" y="42" type="curve"/>
      <point x="360.731" y="19.3002"/>
      <point x="327.304" y="5.82437"/>
      <point x="290" y="0" type="curve"/>
      <point x="290" y="-210" type="line"/>
    </contour>
  </outline>
</glyph>
<glyph name="sterling" format="1">
  <advance width="527"/>
  <unicode hex="00A3"/>
  <outline>
    <contour>
      <point x="241" y="338" type="line" name="hr00"/>
      <point x="237.383" y="271.679"/>
      <point x="230.418" y="196.312"/>
      <point x="201" y="136" type="curve"/>
      <point x="238.952" y="133.471"/>
      <point x="275.506" y="122.74"/>
      <point x="311.5" y="111" type="curve" smooth="yes"/>
      <point x="330.275" y="104.876"/>
      <point x="367.279" y="89.0578"/>
      <point x="385" y="89" type="curve"/>
      <point x="461" y="140" type="line"/>
      <point x="500" y="34" type="line"/>
      <point x="472.87" y="4.15331"/>
      <point x="425.676" y="-4"/>
      <point x="387" y="-4" type="curve" smooth="yes"/>
      <point x="307.775" y="-4"/>
      <point x="236.927" y="41"/>
      <point x="178" y="41" type="curve" smooth="yes"/>
      <point x="146.311" y="41"/>
      <point x="115.416" y="30.285"/>
      <point x="105" y="-3" type="curve"/>
      <point x="32" y="-3" type="line"/>
      <point x="30.6235" y="3.24951"/>
      <point x="30" y="9.58916"/>
      <point x="30" y="16" type="curve" smooth="yes"/>
      <point x="30" y="49.5989"/>
      <point x="48.5819" y="76.8656"/>
      <point x="72" y="99" type="curve" smooth="yes"/>
      <point x="100.481" y="125.92"/>
      <point x="118.334" y="165.488"/>
      <point x="127.5" y="203" type="curve" smooth="yes"/>
      <point x="138.305" y="247.219"/>
      <point x="144.441" y="292.578"/>
      <point x="147" y="338" type="curve"/>
      <point x="58" y="338" type="line"/>
      <point x="58" y="404" type="line" name="hr01"/>
      <point x="66" y="413" type="line"/>
      <point x="150" y="413" type="line"/>
      <point x="150" y="444.353"/>
      <point x="148" y="475.65"/>
      <point x="148" y="507" type="curve" smooth="yes"/>
      <point x="148" y="616.098"/>
      <point x="195.087" y="690"/>
      <point x="312" y="690" type="curve" smooth="yes" name="ah01"/>
      <point x="365.103" y="690"/>
      <point x="422.517" y="669.802"/>
      <point x="465" y="638" type="curve"/>
      <point x="394" y="547" type="line"/>
      <point x="314" y="615" type="line"/>
      <point x="259.43" y="612.94"/>
      <point x="246.955" y="576.671"/>
      <point x="245" y="528.5" type="curve" smooth="yes"/>
      <point x="243.44" y="490.04"/>
      <point x="244" y="451.473"/>
      <point x="244" y="413" type="curve"/>
      <point x="384" y="413" type="line" smooth="yes"/>
      <point x="397.528" y="413"/>
      <point x="391" y="350.318"/>
      <point x="391" y="338" type="curve"/>
    </contour>
  </outline>
</glyph>
<glyph name="currency" format="1">
  <advance width="602"/>
  <unicode hex="00A4"/>
  <outline>
    <contour>
      <point x="80" y="346" type="curve" smooth="yes" name="hr00"/>
      <point x="80" y="391.174"/>
      <point x="93.9802" y="436.025"/>
      <point x="120" y="473" type="curve"/>
      <point x="51" y="543" type="line"/>
      <point x="120" y="614" type="line"/>
      <point x="195" y="539" type="line"/>
      <point x="226.935" y="557.05"/>
      <point x="263.391" y="566"/>
      <point x="300" y="566" type="curve" smooth="yes" name="mh01"/>
      <point x="337.177" y="566"/>
      <point x="373.825" y="556.771"/>
      <point x="406" y="538" type="curve"/>
      <point x="482" y="614" type="line"/>
      <point x="552" y="543" type="line"/>
      <point x="480" y="472" type="line"/>
      <point x="505.887" y="435.215"/>
      <point x="520" y="390.98"/>
      <point x="520" y="346" type="curve" smooth="yes"/>
      <point x="520" y="302.17"/>
      <point x="506.989" y="259.094"/>
      <point x="482" y="223" type="curve"/>
      <point x="552" y="155" type="line"/>
      <point x="482" y="84" type="line"/>
      <point x="409" y="156" type="line"/>
      <point x="376.004" y="136.752"/>
      <point x="338.145" y="127"/>
      <point x="300" y="127" type="curve" smooth="yes"/>
      <point x="262.19" y="127"/>
      <point x="225.006" y="136.515"/>
      <point x="192" y="155" type="curve"/>
      <point x="120" y="84" type="line"/>
      <point x="51" y="155" type="line"/>
      <point x="118" y="222" type="line"/>
      <point x="92.8807" y="258.284"/>
      <point x="80" y="301.978"/>
    </contour>
    <contour>
      <point x="175" y="346" type="curve" smooth="yes"/>
      <point x="175" y="272.736"/>
      <point x="225.908" y="219"/>
      <point x="300" y="219" type="curve" smooth="yes"/>
      <point x="374.092" y="219"/>
      <point x="425" y="272.736"/>
      <point x="425" y="346" type="curve" smooth="yes"/>
      <point x="425" y="419.264"/>
      <point x="374.092" y="473"/>
      <point x="300" y="473" type="curve" smooth="yes"/>
      <point x="225.908" y="473"/>
      <point x="175" y="419.264"/>
    </contour>
  </outline>
</glyph>
<glyph name="section" format="1">
  <advance width="503"/>
  <unicode hex="00A7"/>
  <outline>
    <contour>
      <point x="459" y="241" type="curve" smooth="yes" name="hr00"/>
      <point x="459" y="195.37"/>
      <point x="436.648" y="155.647"/>
      <point x="405" y="124" type="curve"/>
      <point x="435.841" y="94.5671"/>
      <point x="451" y="59.676"/>
      <point x="451" y="17" type="curve" smooth="yes"/>
      <point x="451" y="-111.009"/>
      <point x="336.919" y="-161"/>
      <point x="225" y="-161" type="curve" smooth="yes"/>
      <point x="159.74" y="-161"/>
      <point x="108.289" y="-147.528"/>
      <point x="48" y="-124" type="curve"/>
      <point x="56" y="45" type="line"/>
      <point x="124" y="45" type="line"/>
      <point x="138" y="-68" type="line"/>
      <point x="167.555" y="-76.6857"/>
      <point x="198.156" y="-82"/>
      <point x="229" y="-82" type="curve" smooth="yes"/>
      <point x="283.057" y="-82"/>
      <point x="347" y="-61.8857"/>
      <point x="347" y="3" type="curve" smooth="yes"/>
      <point x="347" y="127.098"/>
      <point x="54" y="114.588"/>
      <point x="54" y="291" type="curve" smooth="yes"/>
      <point x="54" y="336.578"/>
      <point x="75.9523" y="375.708"/>
      <point x="109" y="406" type="curve"/>
      <point x="72.4412" y="436.93"/>
      <point x="52" y="474.569"/>
      <point x="52" y="523" type="curve" smooth="yes"/>
      <point x="52" y="633.787"/>
      <point x="160.274" y="691"/>
      <point x="259" y="691" type="curve" smooth="yes" name="ah01"/>
      <point x="319.297" y="691"/>
      <point x="376.024" y="680.491"/>
      <point x="433" y="661" type="curve"/>
      <point x="446" y="489" type="line"/>
      <point x="377" y="489" type="line" name="hr01"/>
      <point x="334" y="602" type="line"/>
      <point x="310.766" y="610.288"/>
      <point x="285.477" y="612"/>
      <point x="261" y="612" type="curve" smooth="yes"/>
      <point x="214.922" y="612"/>
      <point x="156" y="589.555"/>
      <point x="156" y="535" type="curve" smooth="yes"/>
      <point x="156" y="415.387"/>
      <point x="459" y="426.543"/>
    </contour>
    <contour>
      <point x="354" y="232" type="curve" smooth="yes"/>
      <point x="354" y="295.309"/>
      <point x="231.02" y="335.99"/>
      <point x="183" y="360" type="curve"/>
      <point x="168.397" y="345.4"/>
      <point x="158" y="327.064"/>
      <point x="158" y="306" type="curve" smooth="yes"/>
      <point x="158" y="241.276"/>
      <point x="282.953" y="204.454"/>
      <point x="331" y="177" type="curve"/>
      <point x="342.529" y="192.374"/>
      <point x="354" y="212.316"/>
    </contour>
  </outline>
</glyph>
<glyph name="dieresis" format="1">
  <advance width="386"/>
  <unicode hex="00A8"/>
  <outline>
    <contour>
      <point x="216" y="609" type="curve" smooth="yes" name="hr00"/>
      <point x="216" y="641.414"/>
      <point x="243.92" y="668"/>
      <point x="276" y="668" type="curve" smooth="yes"/>
      <point x="307.696" y="668"/>
      <point x="334" y="640.446"/>
      <point x="334" y="609" type="curve" smooth="yes"/>
      <point x="334" y="577.67"/>
      <point x="307.669" y="550"/>
      <point x="276" y="550" type="curve" smooth="yes"/>
      <point x="244.595" y="550"/>
      <point x="216" y="577.272"/>
    </contour>
    <contour>
      <point x="52" y="609" type="curve" smooth="yes"/>
      <point x="52" y="641.15"/>
      <point x="77.6261" y="668"/>
      <point x="110" y="668" type="curve" smooth="yes" name="mh01"/>
      <point x="141.563" y="668"/>
      <point x="169" y="640.606"/>
      <point x="169" y="609" type="curve" smooth="yes"/>
      <point x="169" y="576.774"/>
      <point x="142.285" y="550"/>
      <point x="110" y="550" type="curve" smooth="yes"/>
      <point x="77.7713" y="550"/>
      <point x="52" y="577.053"/>
    </contour>
  </outline>
</glyph>
<glyph name="copyright" format="1">
  <advance width="716"/>
  <unicode hex="00A9"/>
  <outline>
    <contour>
      <point x="471" y="216" type="line" name="hr00"/>
      <point x="440.434" y="196.233"/>
      <point x="406.489" y="185"/>
      <point x="370" y="185" type="curve" smooth="yes"/>
      <point x="263.325" y="185"/>
      <point x="183" y="258.856"/>
      <point x="183" y="367" type="curve" smooth="yes"/>
      <point x="183" y="479.333"/>
      <point x="256.914" y="560"/>
      <point x="371" y="560" type="curve" smooth="yes"/>
      <point x="396.162" y="560"/>
      <point x="418.191" y="557.771"/>
      <point x="443" y="553" type="curve"/>
      <point x="452" y="432" type="line"/>
      <point x="405" y="432" type="line"/>
      <point x="391" y="483" type="line"/>
      <point x="384.979" y="483.005"/>
      <point x="379.026" y="484"/>
      <point x="373" y="484" type="curve" smooth="yes"/>
      <point x="299.764" y="484"/>
      <point x="260" y="442.468"/>
      <point x="260" y="370" type="curve" smooth="yes"/>
      <point x="260" y="304.536"/>
      <point x="304.222" y="259"/>
      <point x="370" y="259" type="curve" smooth="yes"/>
      <point x="395.087" y="259"/>
      <point x="423.653" y="267.88"/>
      <point x="445" y="281" type="curve"/>
    </contour>
    <contour>
      <point x="120" y="374" type="curve" smooth="yes"/>
      <point x="120" y="241.836"/>
      <point x="225.836" y="136"/>
      <point x="358" y="136" type="curve" smooth="yes"/>
      <point x="490.074" y="136"/>
      <point x="596" y="241.973"/>
      <point x="596" y="374" type="curve" smooth="yes"/>
      <point x="596" y="505.733"/>
      <point x="489.733" y="612"/>
      <point x="358" y="612" type="curve" smooth="yes"/>
      <point x="225.973" y="612"/>
      <point x="120" y="506.074"/>
    </contour>
    <contour>
      <point x="32" y="374" type="curve" smooth="yes"/>
      <point x="32" y="554.59"/>
      <point x="177.435" y="700"/>
      <point x="358" y="700" type="curve" smooth="yes" name="mh01"/>
      <point x="537.858" y="700"/>
      <point x="684" y="553.858"/>
      <point x="684" y="374" type="curve" smooth="yes"/>
      <point x="684" y="193.435"/>
      <point x="538.59" y="48"/>
      <point x="358" y="48" type="curve" smooth="yes"/>
      <point x="176.848" y="48"/>
      <point x="32" y="192.848"/>
    </contour>
  </outline>
</glyph>
<glyph name="ordfeminine" format="1">
  <advance width="342"/>
  <unicode hex="00AA"/>
  <outline>
    <contour>
      <point x="283" y="484" type="curve" smooth="yes" name="hr00"/>
      <point x="287.439" y="484"/>
      <point x="291.643" y="486.382"/>
      <point x="296" y="487" type="curve"/>
      <point x="311" y="441" type="line"/>
      <point x="294.131" y="428.363"/>
      <point x="276.512" y="419"/>
      <point x="255" y="419" type="curve" smooth="yes"/>
      <point x="235.26" y="419"/>
      <point x="216.977" y="425.743"/>
      <point x="206" y="443" type="curve"/>
      <point x="186.533" y="423.529"/>
      <point x="158.807" y="417"/>
      <point x="132" y="417" type="curve" smooth="yes"/>
      <point x="83.8619" y="417"/>
      <point x="38" y="448.409"/>
      <point x="38" y="500" type="curve" smooth="yes"/>
      <point x="38" y="587.095"/>
      <point x="126.657" y="596"/>
      <point x="194" y="596" type="curve"/>
      <point x="194" y="605" type="line" smooth="yes"/>
      <point x="194" y="632.637"/>
      <point x="180.527" y="642"/>
      <point x="154" y="642" type="curve" smooth="yes"/>
      <point x="146.043" y="642"/>
      <point x="137.794" y="640.552"/>
      <point x="130" y="639" type="curve"/>
      <point x="126" y="615" type="line"/>
      <point x="39" y="632" type="line"/>
      <point x="51.5351" y="684.686"/>
      <point x="104.409" y="710"/>
      <point x="155" y="710" type="curve" smooth="yes" name="mh01"/>
      <point x="228.183" y="710"/>
      <point x="267.884" y="681.837"/>
      <point x="273" y="606" type="curve" smooth="yes"/>
      <point x="275.199" y="573.399"/>
      <point x="270.084" y="521.541"/>
      <point x="276.5" y="493" type="curve" smooth="yes"/>
      <point x="277.272" y="489.564"/>
      <point x="278.344" y="484"/>
    </contour>
    <contour>
      <point x="149" y="478" type="curve" smooth="yes"/>
      <point x="166.848" y="478"/>
      <point x="186.222" y="485.885"/>
      <point x="194" y="503" type="curve"/>
      <point x="194" y="546" type="line"/>
      <point x="168.313" y="546"/>
      <point x="118" y="542.284"/>
      <point x="118" y="507" type="curve" smooth="yes"/>
      <point x="118" y="487.587"/>
      <point x="130.662" y="478"/>
    </contour>
  </outline>
</glyph>
<glyph name="registered" format="1">
  <advance width="716"/>
  <unicode hex="00AE"/>
  <outline>
    <contour>
      <point x="32" y="374" type="curve" smooth="yes" name="hr00"/>
      <point x="32" y="554.59"/>
      <point x="177.435" y="700"/>
      <point x="358" y="700" type="curve" smooth="yes"/>
      <point x="537.858" y="700"/>
      <point x="684" y="553.858"/>
      <point x="684" y="374" type="curve" smooth="yes"/>
      <point x="684" y="193.435"/>
      <point x="538.59" y="48"/>
      <point x="358" y="48" type="curve" smooth="yes"/>
      <point x="176.848" y="48"/>
      <point x="32" y="192.848"/>
    </contour>
    <contour>
      <point x="120" y="374" type="curve" smooth="yes"/>
      <point x="120" y="241.836"/>
      <point x="225.836" y="136"/>
      <point x="358" y="136" type="curve" smooth="yes"/>
      <point x="490.074" y="136"/>
      <point x="596" y="241.973"/>
      <point x="596" y="374" type="curve" smooth="yes"/>
      <point x="596" y="505.733"/>
      <point x="489.733" y="612"/>
      <point x="358" y="612" type="curve" smooth="yes"/>
      <point x="225.973" y="612"/>
      <point x="120" y="506.074"/>
    </contour>
    <contour>
      <point x="507" y="243" type="line"/>
      <point x="507" y="193" type="line"/>
      <point x="419" y="193" type="line"/>
      <point x="362" y="316" type="line"/>
      <point x="348.411" y="313.526"/>
      <point x="334.76" y="314"/>
      <point x="321" y="314" type="curve"/>
      <point x="321" y="250" type="line"/>
      <point x="367" y="239" type="line"/>
      <point x="367" y="193" type="line"/>
      <point x="233" y="193" type="line"/>
      <point x="229" y="241" type="line"/>
      <point x="252" y="249" type="line"/>
      <point x="252" y="496" type="line"/>
      <point x="243.822" y="497.011"/>
      <point x="236.102" y="499.658"/>
      <point x="228" y="501" type="curve"/>
      <point x="228" y="559" type="line"/>
      <point x="328" y="559" type="line" smooth="yes"/>
      <point x="408.368" y="559"/>
      <point x="495" y="531.928"/>
      <point x="495" y="436" type="curve" smooth="yes"/>
      <point x="495" y="387.689"/>
      <point x="473.57" y="354.029"/>
      <point x="430" y="333" type="curve"/>
      <point x="476" y="249" type="line"/>
    </contour>
    <contour>
      <point x="335" y="379" type="line" smooth="yes"/>
      <point x="374.053" y="379"/>
      <point x="422" y="386.467"/>
      <point x="422" y="436" type="curve" smooth="yes"/>
      <point x="422" y="482.265"/>
      <point x="376.442" y="492"/>
      <point x="339" y="492" type="curve" smooth="yes"/>
      <point x="321" y="492" type="line"/>
      <point x="321" y="379" type="line"/>
    </contour>
  </outline>
</glyph>
<glyph name="twosuperior" format="1">
  <advance width="300"/>
  <unicode hex="00B2"/>
  <outline>
    <contour>
      <point x="46" y="461" type="line" name="hr00"/>
      <point x="79.466" y="490.641"/>
      <point x="172" y="564.496"/>
      <point x="172" y="614" type="curve" smooth="yes"/>
      <point x="172" y="636.394"/>
      <point x="161.551" y="647"/>
      <point x="139" y="647" type="curve" smooth="yes" name="ah02"/>
      <point x="131.869" y="647"/>
      <point x="124.623" y="645.648"/>
      <point x="118" y="643" type="curve"/>
      <point x="103" y="607" type="line"/>
      <point x="35" y="628" type="line"/>
      <point x="52.3952" y="680.203"/>
      <point x="97.6757" y="709"/>
      <point x="152" y="709" type="curve" smooth="yes" name="ah01"/>
      <point x="203.395" y="709"/>
      <point x="251" y="675.795"/>
      <point x="251" y="621" type="curve" smooth="yes"/>
      <point x="251" y="548.523"/>
      <point x="196.038" y="518.315"/>
      <point x="149" y="476" type="curve"/>
      <point x="201" y="476" type="line"/>
      <point x="216" y="510" type="line"/>
      <point x="258" y="510" type="line"/>
      <point x="247" y="418" type="line"/>
      <point x="56" y="418" type="line"/>
    </contour>
  </outline>
</glyph>
<glyph name="threesuperior" format="1">
  <advance width="295"/>
  <unicode hex="00B3"/>
  <outline>
    <contour>
      <point x="66" y="509" type="line" name="hr00"/>
      <point x="89.2128" y="489.883"/>
      <point x="107.339" y="474"/>
      <point x="139" y="474" type="curve" smooth="yes"/>
      <point x="161.2" y="474"/>
      <point x="180" y="485.914"/>
      <point x="180" y="510" type="curve" smooth="yes"/>
      <point x="180" y="541.049"/>
      <point x="130.777" y="541.003"/>
      <point x="109" y="541" type="curve"/>
      <point x="109" y="589" type="line"/>
      <point x="132.348" y="588.994"/>
      <point x="170" y="592.2"/>
      <point x="170" y="624" type="curve" smooth="yes"/>
      <point x="170" y="639.982"/>
      <point x="155.057" y="648"/>
      <point x="141" y="648" type="curve" smooth="yes"/>
      <point x="111.155" y="648"/>
      <point x="117.223" y="641.336"/>
      <point x="104" y="613" type="curve"/>
      <point x="38" y="635" type="line"/>
      <point x="58.0618" y="686.24"/>
      <point x="98.0019" y="709"/>
      <point x="152" y="709" type="curve" smooth="yes" name="hr01"/>
      <point x="194.373" y="709"/>
      <point x="248" y="679.479"/>
      <point x="248" y="632" type="curve" smooth="yes"/>
      <point x="248" y="599.195"/>
      <point x="231.481" y="576.373"/>
      <point x="199" y="569" type="curve"/>
      <point x="234.794" y="560.866"/>
      <point x="258" y="540.055"/>
      <point x="258" y="502" type="curve" smooth="yes"/>
      <point x="258" y="436.815"/>
      <point x="194.154" y="414"/>
      <point x="139" y="414" type="curve" smooth="yes"/>
      <point x="101.467" y="414"/>
      <point x="61.7808" y="429.236"/>
      <point x="35" y="456" type="curve"/>
    </contour>
  </outline>
</glyph>
<glyph name="mu" format="1">
  <advance width="536"/>
  <unicode hex="00B5"/>
  <unicode hex="03BC"/>
  <outline>
    <contour>
      <point x="296" y="464" type="line" name="hr00"/>
      <point x="418" y="487" type="line"/>
      <point x="447" y="453" type="line"/>
      <point x="447" y="100" type="line" smooth="yes"/>
      <point x="447" y="65.8856"/>
      <point x="452.239" y="66.8865"/>
      <point x="483" y="69" type="curve"/>
      <point x="497" y="24" type="line"/>
      <point x="479.341" y="6.37923"/>
      <point x="454.848" y="-4"/>
      <point x="430" y="-4" type="curve" smooth="yes"/>
      <point x="398.644" y="-4"/>
      <point x="375.262" y="9.68349"/>
      <point x="363" y="39" type="curve"/>
      <point x="334.016" y="10.0101"/>
      <point x="296.769" y="-4"/>
      <point x="256" y="-4" type="curve" smooth="yes"/>
      <point x="229.773" y="-4"/>
      <point x="203.347" y="-0.0244979"/>
      <point x="179" y="10" type="curve"/>
      <point x="179.496" y="7.52059"/>
      <point x="182" y="-3.10449"/>
      <point x="182" y="-5" type="curve"/>
      <point x="182" y="-274" type="line"/>
      <point x="90" y="-274" type="line"/>
      <point x="90" y="406" type="line"/>
      <point x="36" y="406" type="line"/>
      <point x="27" y="464" type="line"/>
      <point x="151" y="486" type="line"/>
      <point x="182" y="454" type="line"/>
      <point x="182" y="403.323"/>
      <point x="183" y="352.67"/>
      <point x="183" y="302" type="curve" smooth="yes"/>
      <point x="183" y="147" type="line" smooth="yes"/>
      <point x="183" y="98.9697"/>
      <point x="223.894" y="72"/>
      <point x="268" y="72" type="curve" smooth="yes"/>
      <point x="296.805" y="72"/>
      <point x="341.748" y="93.4947"/>
      <point x="355" y="120" type="curve"/>
      <point x="355" y="405" type="line"/>
      <point x="306" y="405" type="line"/>
    </contour>
  </outline>
</glyph>
<glyph name="paragraph" format="1">
  <advance width="584"/>
  <unicode hex="00B6"/>
  <outline>
    <contour>
      <point x="192" y="77" type="line" name="hr00"/>
      <point x="258" y="-13" type="line"/>
      <point x="287.508" y="9.86932"/>
      <point x="345.5" y="60.8714"/>
      <point x="349" y="100" type="curve" smooth="yes"/>
      <point x="349.952" y="110.643"/>
      <point x="350" y="122.313"/>
      <point x="350" y="133" type="curve" smooth="yes"/>
      <point x="350" y="611" type="line"/>
      <point x="395" y="611" type="line"/>
      <point x="395" y="0" type="line" name="hr01"/>
      <point x="480" y="0" type="line"/>
      <point x="480" y="611" type="line"/>
      <point x="528" y="611" type="line"/>
      <point x="528" y="691" type="line"/>
      <point x="247" y="691" type="line" smooth="yes"/>
      <point x="128.278" y="691"/>
      <point x="28" y="627.134"/>
      <point x="28" y="500" type="curve" smooth="yes"/>
      <point x="28" y="364.846"/>
      <point x="137.543" y="303.981"/>
      <point x="260" y="299" type="curve"/>
      <point x="260" y="120" type="line"/>
    </contour>
  </outline>
</glyph>
<glyph name="cedilla" format="1">
  <advance width="406"/>
  <unicode hex="00B8"/>
  <outline>
    <contour>
      <point x="141" y="-82" type="line" name="hr00"/>
      <point x="176" y="15" type="line" name="mh01"/>
      <point x="275" y="15" type="line"/>
      <point x="252" y="-43" type="line"/>
      <point x="309.096" y="-58.4268"/>
      <point x="344" y="-95.5449"/>
      <point x="344" y="-156" type="curve" smooth="yes"/>
      <point x="344" y="-240.257"/>
      <point x="265.556" y="-276"/>
      <point x="192" y="-276" type="curve" smooth="yes"/>
      <point x="149.705" y="-276"/>
      <point x="109.337" y="-269.909"/>
      <point x="72" y="-249" type="curve"/>
      <point x="115" y="-163" type="line"/>
      <point x="186" y="-210" type="line"/>
      <point x="215.297" y="-209.844"/>
      <point x="250" y="-191.934"/>
      <point x="250" y="-159" type="curve" smooth="yes"/>
      <point x="250" y="-104.23"/>
      <point x="197.016" y="-104.706"/>
      <point x="158" y="-101" type="curve"/>
    </contour>
  </outline>
</glyph>
<glyph name="ordmasculine" format="1">
  <advance width="334"/>
  <unicode hex="00BA"/>
  <outline>
    <contour>
      <point x="114" y="561" type="curve" smooth="yes" name="hr00"/>
      <point x="114" y="526.765"/>
      <point x="126.151" y="488"/>
      <point x="167" y="488" type="curve" smooth="yes"/>
      <point x="208.42" y="488"/>
      <point x="221" y="526.025"/>
      <point x="221" y="561" type="curve" smooth="yes"/>
      <point x="221" y="595.556"/>
      <point x="208.21" y="636"/>
      <point x="167" y="636" type="curve" smooth="yes"/>
      <point x="127.137" y="636"/>
      <point x="114" y="594.159"/>
    </contour>
    <contour>
      <point x="34" y="563" type="curve" smooth="yes"/>
      <point x="34" y="646.102"/>
      <point x="78.4495" y="711"/>
      <point x="167" y="711" type="curve" smooth="yes" name="mh01"/>
      <point x="255.711" y="711"/>
      <point x="300" y="646.043"/>
      <point x="300" y="563" type="curve" smooth="yes"/>
      <point x="300" y="479.619"/>
      <point x="256.367" y="414"/>
      <point x="167" y="414" type="curve" smooth="yes"/>
      <point x="77.6401" y="414"/>
      <point x="34" y="479.491"/>
    </contour>
  </outline>
</glyph>
<glyph name="onehalf" format="1">
  <advance width="701"/>
  <unicode hex="00BD"/>
  <outline>
    <contour>
      <point x="99" y="0" type="line" name="hr00"/>
      <point x="96" y="2" type="line"/>
      <point x="430" y="691" type="line"/>
      <point x="519" y="691" type="line"/>
      <point x="518" y="677" type="line"/>
      <point x="185" y="-11" type="line"/>
    </contour>
    <contour>
      <point x="395" y="49" type="line" name="hr02"/>
      <point x="448.893" y="105.882"/>
      <point x="556" y="196.799"/>
      <point x="556" y="281" type="curve" smooth="yes" name="hr01"/>
      <point x="556" y="306.058"/>
      <point x="539.815" y="320"/>
      <point x="515" y="320" type="curve" smooth="yes"/>
      <point x="504.535" y="320"/>
      <point x="497.581" y="317.826"/>
      <point x="488" y="314" type="curve"/>
      <point x="464" y="257" type="line"/>
      <point x="379" y="297" type="line"/>
      <point x="408.507" y="357.369"/>
      <point x="448.346" y="388"/>
      <point x="517" y="388" type="curve" smooth="yes"/>
      <point x="588.036" y="388"/>
      <point x="643" y="349.772"/>
      <point x="643" y="274" type="curve" smooth="yes"/>
      <point x="643" y="194.317"/>
      <point x="567.163" y="120.174"/>
      <point x="517" y="65" type="curve"/>
      <point x="606" y="65" type="line"/>
      <point x="627" y="121" type="line"/>
      <point x="672" y="121" type="line"/>
      <point x="659" y="0" type="line"/>
      <point x="408" y="0" type="line"/>
    </contour>
    <contour>
      <point x="93" y="367" type="line"/>
      <point x="93" y="622" type="line"/>
      <point x="41" y="614" type="line"/>
      <point x="33" y="665" type="line"/>
      <point x="166" y="703" type="line"/>
      <point x="178" y="695" type="line"/>
      <point x="178" y="672.396"/>
      <point x="177" y="649.471"/>
      <point x="177" y="627" type="curve" smooth="yes"/>
      <point x="177" y="371" type="line"/>
      <point x="180.154" y="362.666"/>
      <point x="205.154" y="362.218"/>
      <point x="213" y="362" type="curve"/>
      <point x="213" y="315" type="line"/>
      <point x="48" y="315" type="line"/>
      <point x="48" y="360" type="line"/>
    </contour>
  </outline>
</glyph>
<glyph name="threequarters" format="1">
  <advance width="706"/>
  <unicode hex="00BE"/>
  <outline>
    <contour>
      <point x="626" y="108" type="line" name="hr04"/>
      <point x="626" y="55" type="line"/>
      <point x="668" y="49" type="line"/>
      <point x="668" y="0" type="line"/>
      <point x="462" y="0" type="line" name="hr03"/>
      <point x="458" y="44" type="line"/>
      <point x="542" y="56" type="line"/>
      <point x="542" y="108" type="line" name="hr02"/>
      <point x="383" y="108" type="line" name="hr01"/>
      <point x="383" y="181" type="line"/>
      <point x="538" y="386" type="line" name="ah02"/>
      <point x="626" y="386" type="line"/>
      <point x="626" y="174" type="line"/>
      <point x="673" y="174" type="line"/>
      <point x="673" y="108" type="line" name="hr06"/>
    </contour>
    <contour>
      <point x="152" y="0" type="line" name="hr05"/>
      <point x="149" y="2" type="line"/>
      <point x="482" y="691" type="line"/>
      <point x="572" y="691" type="line"/>
      <point x="571" y="677" type="line"/>
      <point x="238" y="-11" type="line"/>
    </contour>
    <contour>
      <point x="94" y="400" type="line"/>
      <point x="112.145" y="385.743"/>
      <point x="135.853" y="377"/>
      <point x="159" y="377" type="curve" smooth="yes"/>
      <point x="188.368" y="377"/>
      <point x="220" y="394.37"/>
      <point x="220" y="427" type="curve" smooth="yes"/>
      <point x="220" y="480.629"/>
      <point x="162.634" y="482"/>
      <point x="123" y="482" type="curve"/>
      <point x="123" y="540" type="line"/>
      <point x="160.492" y="540"/>
      <point x="217" y="537.801"/>
      <point x="217" y="590" type="curve" smooth="yes"/>
      <point x="217" y="616.378"/>
      <point x="187.918" y="633"/>
      <point x="164" y="633" type="curve" smooth="yes"/>
      <point x="148.373" y="633"/>
      <point x="142.153" y="630.656"/>
      <point x="128" y="625" type="curve"/>
      <point x="105" y="576" type="line"/>
      <point x="29" y="611" type="line"/>
      <point x="51.2598" y="670.334"/>
      <point x="113.414" y="701"/>
      <point x="174" y="701" type="curve" smooth="yes" name="ah01"/>
      <point x="238.259" y="701"/>
      <point x="300" y="669.839"/>
      <point x="300" y="598" type="curve" smooth="yes"/>
      <point x="300" y="558.085"/>
      <point x="277.697" y="524.002"/>
      <point x="239" y="512" type="curve"/>
      <point x="279.475" y="500.623"/>
      <point x="306" y="471.121"/>
      <point x="306" y="428" type="curve" smooth="yes"/>
      <point x="306" y="345.343"/>
      <point x="230.116" y="309"/>
      <point x="157" y="309" type="curve" smooth="yes"/>
      <point x="115.91" y="309"/>
      <point x="73.3522" y="318.99"/>
      <point x="40" y="344" type="curve"/>
    </contour>
    <contour>
      <point x="542" y="174" type="line"/>
      <point x="542" y="290" type="line"/>
      <point x="452" y="174" type="line" name="ah03"/>
    </contour>
  </outline>
</glyph>
<glyph name="questiondown" format="1">
  <advance width="391"/>
  <unicode hex="00BF"/>
  <outline>
    <contour>
      <point x="307" y="427" type="curve" smooth="yes" name="hr00"/>
      <point x="307" y="394.603"/>
      <point x="278.84" y="369"/>
      <point x="247" y="369" type="curve" smooth="yes"/>
      <point x="213.672" y="369"/>
      <point x="188" y="393.283"/>
      <point x="188" y="427" type="curve" smooth="yes"/>
      <point x="188" y="460.894"/>
      <point x="212.706" y="487"/>
      <point x="247" y="487" type="curve" smooth="yes" name="mh01"/>
      <point x="280.493" y="487"/>
      <point x="307" y="460.493"/>
    </contour>
    <contour>
      <point x="295" y="201" type="curve" smooth="yes"/>
      <point x="295" y="65.2378"/>
      <point x="128" y="63.8951"/>
      <point x="128" y="-48" type="curve" smooth="yes"/>
      <point x="128" y="-95.4678"/>
      <point x="160.991" y="-123"/>
      <point x="207" y="-123" type="curve" smooth="yes"/>
      <point x="226.848" y="-123"/>
      <point x="251.309" y="-120.767"/>
      <point x="270" y="-114" type="curve"/>
      <point x="296" y="-19" type="line"/>
      <point x="357" y="-19" type="line"/>
      <point x="340" y="-177" type="line"/>
      <point x="292.184" y="-193.436"/>
      <point x="245.945" y="-206"/>
      <point x="195" y="-206" type="curve" smooth="yes"/>
      <point x="101.882" y="-206"/>
      <point x="23" y="-160.546"/>
      <point x="23" y="-59" type="curve" smooth="yes"/>
      <point x="23" y="72.6518"/>
      <point x="115.289" y="91.716"/>
      <point x="187.5" y="171.5" type="curve" smooth="yes"/>
      <point x="208.69" y="194.912"/>
      <point x="211" y="216.764"/>
      <point x="211" y="247" type="curve"/>
      <point x="237.339" y="247"/>
      <point x="263.661" y="248"/>
      <point x="290" y="248" type="curve"/>
      <point x="293.223" y="232.205"/>
      <point x="295" y="217.169"/>
    </contour>
  </outline>
</glyph>
<glyph name="Atilde" format="1">
  <advance width="608"/>
  <unicode hex="00C3"/>
  <outline>
    <contour>
      <point x="-1" y="62" type="line" name="hr00"/>
      <point x="51" y="80" type="line"/>
      <point x="253" y="691" type="line" name="mh01"/>
      <point x="349" y="691" type="line"/>
      <point x="562" y="80" type="line"/>
      <point x="608" y="62" type="line"/>
      <point x="597" y="0" type="line"/>
      <point x="362" y="0" type="line"/>
      <point x="362" y="59" type="line"/>
      <point x="450" y="80" type="line"/>
      <point x="402" y="228" type="line"/>
      <point x="188" y="228" type="line"/>
      <point x="142" y="80" type="line"/>
      <point x="228" y="60" type="line"/>
      <point x="228" y="0" type="line"/>
      <point x="12" y="0" type="line"/>
    </contour>
    <contour>
      <point x="445" y="858" type="line" name="hr02"/>
      <point x="504" y="791" type="line"/>
      <point x="479.592" y="763.884"/>
      <point x="442.82" y="730"/>
      <point x="404" y="730" type="curve" smooth="yes"/>
      <point x="345.736" y="730"/>
      <point x="315.727" y="778"/>
      <point x="261" y="778" type="curve" smooth="yes"/>
      <point x="225.274" y="778"/>
      <point x="204.662" y="758.146"/>
      <point x="190" y="727" type="curve"/>
      <point x="134" y="761" type="line"/>
      <point x="134" y="778" type="line" name="hr01"/>
      <point x="155.884" y="827.133"/>
      <point x="203.783" y="857"/>
      <point x="257" y="857" type="curve" smooth="yes" name="mh02"/>
      <point x="312.782" y="857"/>
      <point x="340.386" y="830.56"/>
      <point x="384" y="802" type="curve"/>
    </contour>
    <contour>
      <point x="214" y="314" type="line"/>
      <point x="374" y="314" type="line"/>
      <point x="292" y="565" type="line"/>
    </contour>
  </outline>
</glyph>
<glyph name="Adieresis" format="1">
  <advance width="608"/>
  <unicode hex="00C4"/>
  <outline>
    <contour>
      <point x="-1" y="62" type="line" name="hr00"/>
      <point x="51" y="80" type="line"/>
      <point x="253" y="691" type="line" name="mh01"/>
      <point x="349" y="691" type="line"/>
      <point x="562" y="80" type="line"/>
      <point x="608" y="62" type="line"/>
      <point x="597" y="0" type="line"/>
      <point x="362" y="0" type="line"/>
      <point x="362" y="59" type="line"/>
      <point x="450" y="80" type="line"/>
      <point x="402" y="228" type="line"/>
      <point x="188" y="228" type="line"/>
      <point x="142" y="80" type="line"/>
      <point x="228" y="60" type="line"/>
      <point x="228" y="0" type="line"/>
      <point x="12" y="0" type="line"/>
    </contour>
    <contour>
      <point x="214" y="314" type="line"/>
      <point x="374" y="314" type="line"/>
      <point x="292" y="565" type="line"/>
    </contour>
    <contour>
      <point x="329" y="873" type="curve" smooth="yes"/>
      <point x="329" y="908.687"/>
      <point x="358.628" y="937"/>
      <point x="394" y="937" type="curve" smooth="yes"/>
      <point x="428.911" y="937"/>
      <point x="457" y="907.63"/>
      <point x="457" y="873" type="curve" smooth="yes"/>
      <point x="457" y="838.922"/>
      <point x="428.408" y="809"/>
      <point x="394" y="809" type="curve" smooth="yes"/>
      <point x="359.878" y="809"/>
      <point x="329" y="838.567"/>
    </contour>
    <contour>
      <point x="152" y="873" type="curve" smooth="yes"/>
      <point x="152" y="908.451"/>
      <point x="179.322" y="937"/>
      <point x="215" y="937" type="curve" smooth="yes" name="mh02"/>
      <point x="249.928" y="937"/>
      <point x="278" y="907.612"/>
      <point x="278" y="873" type="curve" smooth="yes"/>
      <point x="278" y="838.932"/>
      <point x="249.455" y="809"/>
      <point x="215" y="809" type="curve" smooth="yes"/>
      <point x="180.072" y="809"/>
      <point x="152" y="838.388"/>
    </contour>
  </outline>
</glyph>
<glyph name="Aring" format="1">
  <advance width="604"/>
  <unicode hex="00C5"/>
  <outline>
    <contour>
      <point x="-3" y="62" type="line" name="hr00"/>
      <point x="49" y="80" type="line"/>
      <point x="241" y="662" type="line"/>
      <point x="213.608" y="681.171"/>
      <point x="199" y="711.819"/>
      <point x="199" y="745" type="curve" smooth="yes"/>
      <point x="199" y="800.849"/>
      <point x="243.088" y="845"/>
      <point x="299" y="845" type="curve" smooth="yes"/>
      <point x="353.933" y="845"/>
      <point x="400" y="800.241"/>
      <point x="400" y="745" type="curve" smooth="yes"/>
      <point x="400" y="711.655"/>
      <point x="384.37" y="681.156"/>
      <point x="357" y="662" type="curve"/>
      <point x="560" y="80" type="line"/>
      <point x="606" y="62" type="line"/>
      <point x="595" y="0" type="line"/>
      <point x="360" y="0" type="line"/>
      <point x="360" y="59" type="line"/>
      <point x="448" y="80" type="line"/>
      <point x="400" y="228" type="line"/>
      <point x="186" y="228" type="line"/>
      <point x="140" y="80" type="line"/>
      <point x="226" y="60" type="line"/>
      <point x="226" y="0" type="line"/>
      <point x="10" y="0" type="line"/>
    </contour>
    <contour>
      <point x="212" y="314" type="line"/>
      <point x="372" y="314" type="line"/>
      <point x="290" y="565" type="line"/>
    </contour>
    <contour>
      <point x="261" y="745" type="curve" smooth="yes"/>
      <point x="261" y="721.756"/>
      <point x="275.656" y="707"/>
      <point x="299" y="707" type="curve" smooth="yes"/>
      <point x="322.753" y="707"/>
      <point x="338" y="720.911"/>
      <point x="338" y="745" type="curve" smooth="yes"/>
      <point x="338" y="769.089"/>
      <point x="322.753" y="783"/>
      <point x="299" y="783" type="curve" smooth="yes"/>
      <point x="275.656" y="783"/>
      <point x="261" y="768.244"/>
    </contour>
  </outline>
</glyph>
<glyph name="Ccedilla" format="1">
  <advance width="583"/>
  <unicode hex="00C7"/>
  <outline>
    <contour>
      <point x="281" y="-76" type="line" name="hr00"/>
      <point x="309" y="2" type="line"/>
      <point x="141.519" y="32.4486"/>
      <point x="35" y="169.889"/>
      <point x="35" y="338" type="curve" smooth="yes"/>
      <point x="35" y="540.908"/>
      <point x="164.598" y="691"/>
      <point x="373" y="691" type="curve" smooth="yes" name="mh01"/>
      <point x="424.038" y="691"/>
      <point x="471.383" y="683.269"/>
      <point x="521" y="672" type="curve"/>
      <point x="540" y="490" type="line"/>
      <point x="472" y="490" type="line"/>
      <point x="433" y="598" type="line"/>
      <point x="415.312" y="604.471"/>
      <point x="394.616" y="605"/>
      <point x="376" y="605" type="curve" smooth="yes"/>
      <point x="229.95" y="605"/>
      <point x="140" y="487.11"/>
      <point x="140" y="348" type="curve" smooth="yes"/>
      <point x="140" y="195.734"/>
      <point x="239.137" y="82"/>
      <point x="395" y="82" type="curve" smooth="yes"/>
      <point x="436.621" y="82"/>
      <point x="492.207" y="94.7475"/>
      <point x="526" y="120" type="curve"/>
      <point x="555" y="41" type="line"/>
      <point x="511.341" y="10.019"/>
      <point x="451.55" y="-0.497659"/>
      <point x="399" y="-3" type="curve"/>
      <point x="385" y="-39" type="line"/>
      <point x="438.938" y="-52.8583"/>
      <point x="471" y="-88.4138"/>
      <point x="471" y="-145" type="curve" smooth="yes"/>
      <point x="471" y="-223.742"/>
      <point x="398.069" y="-258"/>
      <point x="329" y="-258" type="curve" smooth="yes" name="hr01"/>
      <point x="281.672" y="-258"/>
      <point x="258.844" y="-244.774"/>
      <point x="216" y="-232" type="curve"/>
      <point x="257" y="-152" type="line"/>
      <point x="323" y="-195" type="line"/>
      <point x="349.934" y="-194.782"/>
      <point x="383" y="-178.575"/>
      <point x="383" y="-148" type="curve" smooth="yes"/>
      <point x="383" y="-95.892"/>
      <point x="333.733" y="-96.9576"/>
      <point x="297" y="-93" type="curve"/>
    </contour>
  </outline>
</glyph>
<glyph name="Edieresis" format="1">
  <advance width="539"/>
  <unicode hex="00CB"/>
  <outline>
    <contour>
      <point x="49" y="691" type="line" name="mh01"/>
      <point x="475" y="691" type="line"/>
      <point x="495" y="503" type="line"/>
      <point x="432" y="503" type="line" name="hr03"/>
      <point x="394" y="605" type="line"/>
      <point x="208" y="605" type="line"/>
      <point x="208" y="395" type="line"/>
      <point x="366" y="395" type="line"/>
      <point x="366" y="309" type="line"/>
      <point x="208" y="309" type="line"/>
      <point x="208" y="86" type="line"/>
      <point x="404" y="86" type="line" name="hr02"/>
      <point x="439" y="187" type="line"/>
      <point x="502" y="187" type="line" name="hr01"/>
      <point x="482" y="0" type="line"/>
      <point x="58" y="0" type="line"/>
      <point x="48" y="71" type="line"/>
      <point x="109" y="84" type="line"/>
      <point x="109" y="611" type="line"/>
      <point x="49" y="616" type="line"/>
    </contour>
    <contour>
      <point x="303" y="884" type="curve" smooth="yes"/>
      <point x="303" y="919.687"/>
      <point x="332.628" y="948"/>
      <point x="368" y="948" type="curve" smooth="yes"/>
      <point x="402.911" y="948"/>
      <point x="431" y="918.63"/>
      <point x="431" y="884" type="curve" smooth="yes"/>
      <point x="431" y="849.922"/>
      <point x="402.408" y="820"/>
      <point x="368" y="820" type="curve" smooth="yes"/>
      <point x="333.878" y="820"/>
      <point x="303" y="849.567"/>
    </contour>
    <contour>
      <point x="126" y="884" type="curve" smooth="yes"/>
      <point x="126" y="919.451"/>
      <point x="153.322" y="948"/>
      <point x="189" y="948" type="curve" smooth="yes" name="mh02"/>
      <point x="223.928" y="948"/>
      <point x="252" y="918.612"/>
      <point x="252" y="884" type="curve" smooth="yes"/>
      <point x="252" y="849.932"/>
      <point x="223.455" y="820"/>
      <point x="189" y="820" type="curve" smooth="yes"/>
      <point x="154.072" y="820"/>
      <point x="126" y="849.388"/>
    </contour>
  </outline>
</glyph>
<glyph name="Idieresis" format="1">
  <advance width="319"/>
  <unicode hex="00CF"/>
  <outline>
    <contour>
      <point x="109" y="610" type="line" name="hr00"/>
      <point x="46" y="615" type="line"/>
      <point x="46" y="691" type="line" name="mh01"/>
      <point x="264" y="691" type="line"/>
      <point x="274" y="616" type="line"/>
      <point x="209" y="606" type="line"/>
      <point x="209" y="81" type="line"/>
      <point x="274" y="73" type="line"/>
      <point x="274" y="0" type="line"/>
      <point x="55" y="0" type="line"/>
      <point x="46" y="72" type="line"/>
      <point x="109" y="83" type="line"/>
    </contour>
    <contour>
      <point x="181" y="798" type="curve" smooth="yes"/>
      <point x="181" y="832.911"/>
      <point x="210.37" y="861"/>
      <point x="245" y="861" type="curve" smooth="yes"/>
      <point x="279.53" y="861"/>
      <point x="306" y="831.961"/>
      <point x="306" y="798" type="curve" smooth="yes"/>
      <point x="306" y="764.128"/>
      <point x="279.474" y="735"/>
      <point x="245" y="735" type="curve" smooth="yes"/>
      <point x="209.582" y="735"/>
      <point x="181" y="762.299"/>
    </contour>
    <contour>
      <point x="21" y="798" type="curve" smooth="yes"/>
      <point x="21" y="832.689"/>
      <point x="48.0187" y="861"/>
      <point x="83" y="861" type="curve" smooth="yes" name="mh02"/>
      <point x="116.658" y="861"/>
      <point x="146" y="831.587"/>
      <point x="146" y="798" type="curve" smooth="yes"/>
      <point x="146" y="764.413"/>
      <point x="116.658" y="735"/>
      <point x="83" y="735" type="curve" smooth="yes"/>
      <point x="48.0187" y="735"/>
      <point x="21" y="763.311"/>
    </contour>
  </outline>
</glyph>
<glyph name="Eth" format="1">
  <advance width="632"/>
  <unicode hex="00D0"/>
  <outline>
    <contour>
      <point x="37" y="379" type="line" name="hr00"/>
      <point x="47" y="390" type="line"/>
      <point x="109" y="390" type="line"/>
      <point x="109" y="611" type="line" name="mh01"/>
      <point x="49" y="617" type="line"/>
      <point x="49" y="691" type="line" name="ah01"/>
      <point x="238" y="691" type="line" smooth="yes"/>
      <point x="453.502" y="691"/>
      <point x="596" y="571.732"/>
      <point x="596" y="350" type="curve" smooth="yes" name="mh02"/>
      <point x="596" y="129.4"/>
      <point x="461.123" y="0"/>
      <point x="242" y="0" type="curve" smooth="yes"/>
      <point x="58" y="0" type="line"/>
      <point x="48" y="71" type="line" name="mh03"/>
      <point x="109" y="85" type="line"/>
      <point x="109" y="311" type="line"/>
      <point x="37" y="311" type="line"/>
    </contour>
    <contour>
      <point x="491" y="351" type="curve" smooth="yes" name="mh04"/>
      <point x="491" y="527.179"/>
      <point x="374.303" y="607.011"/>
      <point x="208" y="607" type="curve"/>
      <point x="208" y="390" type="line"/>
      <point x="374" y="390" type="line" smooth="yes"/>
      <point x="378.902" y="390"/>
      <point x="381" y="386.547"/>
      <point x="381" y="382" type="curve" smooth="yes"/>
      <point x="381" y="311" type="line"/>
      <point x="208" y="311" type="line"/>
      <point x="208" y="86" type="line"/>
      <point x="232" y="86" type="line" smooth="yes"/>
      <point x="402.006" y="86"/>
      <point x="491" y="183.412"/>
    </contour>
  </outline>
</glyph>
<glyph name="Ntilde" format="1">
  <advance width="696"/>
  <unicode hex="00D1"/>
  <outline>
    <contour>
      <point x="194" y="597" type="line" name="hr00"/>
      <point x="194" y="161" type="line" smooth="yes"/>
      <point x="194" y="136.541"/>
      <point x="191.043" y="104.691"/>
      <point x="196" y="81" type="curve"/>
      <point x="253" y="71" type="line"/>
      <point x="253" y="0" type="line"/>
      <point x="59" y="0" type="line"/>
      <point x="47" y="71" type="line"/>
      <point x="110" y="84" type="line"/>
      <point x="110" y="609" type="line"/>
      <point x="50" y="615" type="line"/>
      <point x="50" y="691" type="line"/>
      <point x="259" y="691" type="line"/>
      <point x="511" y="96" type="line"/>
      <point x="511" y="609" type="line"/>
      <point x="449" y="617" type="line"/>
      <point x="449" y="691" type="line"/>
      <point x="646" y="691" type="line"/>
      <point x="659" y="616" type="line"/>
      <point x="595" y="604" type="line"/>
      <point x="595" y="0" type="line"/>
      <point x="478" y="0" type="line"/>
    </contour>
    <contour>
      <point x="478" y="858" type="line"/>
      <point x="537" y="791" type="line"/>
      <point x="512.592" y="763.884"/>
      <point x="475.82" y="730"/>
      <point x="437" y="730" type="curve" smooth="yes"/>
      <point x="378.736" y="730"/>
      <point x="348.727" y="778"/>
      <point x="294" y="778" type="curve" smooth="yes"/>
      <point x="258.274" y="778"/>
      <point x="237.662" y="758.146"/>
      <point x="223" y="727" type="curve"/>
      <point x="167" y="761" type="line"/>
      <point x="167" y="778" type="line"/>
      <point x="188.884" y="827.133"/>
      <point x="236.783" y="857"/>
      <point x="290" y="857" type="curve" smooth="yes"/>
      <point x="345.782" y="857"/>
      <point x="373.386" y="830.56"/>
      <point x="417" y="802" type="curve"/>
    </contour>
  </outline>
</glyph>
<glyph name="Oacute" format="1">
  <advance width="651"/>
  <unicode hex="00D3"/>
  <outline>
    <contour>
      <point x="148" y="342" type="curve" smooth="yes" name="hr00"/>
      <point x="148" y="232.104"/>
      <point x="190.394" y="82"/>
      <point x="325" y="82" type="curve" smooth="yes"/>
      <point x="460.405" y="82"/>
      <point x="504" y="230.939"/>
      <point x="504" y="342" type="curve" smooth="yes"/>
      <point x="504" y="452.722"/>
      <point x="460.87" y="606"/>
      <point x="325" y="606" type="curve" smooth="yes"/>
      <point x="189.97" y="606"/>
      <point x="148" y="451.624"/>
    </contour>
    <contour>
      <point x="325" y="-4" type="curve" smooth="yes"/>
      <point x="127.689" y="-4"/>
      <point x="43" y="168.489"/>
      <point x="43" y="344" type="curve" smooth="yes"/>
      <point x="43" y="519.511"/>
      <point x="127.689" y="692"/>
      <point x="325" y="692" type="curve" smooth="yes" name="mh01"/>
      <point x="521.291" y="692"/>
      <point x="609" y="519.395"/>
      <point x="609" y="344" type="curve" smooth="yes"/>
      <point x="609" y="168.605"/>
      <point x="521.291" y="-4"/>
    </contour>
    <contour>
      <point x="362" y="928" type="line" name="mh02"/>
      <point x="396" y="932" type="line"/>
      <point x="453" y="841" type="line"/>
      <point x="258" y="729" type="line"/>
      <point x="219" y="780" type="line"/>
    </contour>
  </outline>
</glyph>
<glyph name="Ocircumflex" format="1">
  <advance width="651"/>
  <unicode hex="00D4"/>
  <outline>
    <contour>
      <point x="148" y="342" type="curve" smooth="yes" name="hr00"/>
      <point x="148" y="232.104"/>
      <point x="190.394" y="82"/>
      <point x="325" y="82" type="curve" smooth="yes"/>
      <point x="460.405" y="82"/>
      <point x="504" y="230.939"/>
      <point x="504" y="342" type="curve" smooth="yes"/>
      <point x="504" y="452.722"/>
      <point x="460.87" y="606"/>
      <point x="325" y="606" type="curve" smooth="yes"/>
      <point x="189.97" y="606"/>
      <point x="148" y="451.624"/>
    </contour>
    <contour>
      <point x="325" y="-4" type="curve" smooth="yes"/>
      <point x="127.689" y="-4"/>
      <point x="43" y="168.489"/>
      <point x="43" y="344" type="curve" smooth="yes"/>
      <point x="43" y="519.511"/>
      <point x="127.689" y="692"/>
      <point x="325" y="692" type="curve" smooth="yes" name="mh01"/>
      <point x="521.291" y="692"/>
      <point x="609" y="519.395"/>
      <point x="609" y="344" type="curve" smooth="yes"/>
      <point x="609" y="168.605"/>
      <point x="521.291" y="-4"/>
    </contour>
    <contour>
      <point x="339" y="894" type="line"/>
      <point x="495" y="731" type="line"/>
      <point x="494" y="726" type="line"/>
      <point x="412" y="726" type="line"/>
      <point x="325" y="785" type="line"/>
      <point x="239" y="726" type="line"/>
      <point x="157" y="726" type="line"/>
      <point x="156" y="732" type="line"/>
      <point x="313" y="894" type="line" name="mh02"/>
    </contour>
  </outline>
</glyph>
<glyph name="Otilde" format="1">
  <advance width="651"/>
  <unicode hex="00D5"/>
  <outline>
    <contour>
      <point x="148" y="342" type="curve" smooth="yes" name="hr00"/>
      <point x="148" y="232.104"/>
      <point x="190.394" y="82"/>
      <point x="325" y="82" type="curve" smooth="yes"/>
      <point x="460.405" y="82"/>
      <point x="504" y="230.939"/>
      <point x="504" y="342" type="curve" smooth="yes"/>
      <point x="504" y="452.722"/>
      <point x="460.87" y="606"/>
      <point x="325" y="606" type="curve" smooth="yes"/>
      <point x="189.97" y="606"/>
      <point x="148" y="451.624"/>
    </contour>
    <contour>
      <point x="325" y="-4" type="curve" smooth="yes"/>
      <point x="127.689" y="-4"/>
      <point x="43" y="168.489"/>
      <point x="43" y="344" type="curve" smooth="yes"/>
      <point x="43" y="519.511"/>
      <point x="127.689" y="692"/>
      <point x="325" y="692" type="curve" smooth="yes" name="mh01"/>
      <point x="521.291" y="692"/>
      <point x="609" y="519.395"/>
      <point x="609" y="344" type="curve" smooth="yes"/>
      <point x="609" y="168.605"/>
      <point x="521.291" y="-4"/>
    </contour>
    <contour>
      <point x="454" y="858" type="line"/>
      <point x="513" y="791" type="line"/>
      <point x="491.242" y="763.813"/>
      <point x="450.629" y="730"/>
      <point x="414" y="730" type="curve" smooth="yes"/>
      <point x="353.518" y="730"/>
      <point x="326.441" y="778"/>
      <point x="271" y="778" type="curve" smooth="yes"/>
      <point x="235.421" y="778"/>
      <point x="214.846" y="756.922"/>
      <point x="199" y="727" type="curve"/>
      <point x="145" y="761" type="line"/>
      <point x="145" y="778" type="line"/>
      <point x="167.185" y="827.828"/>
      <point x="212.725" y="857"/>
      <point x="267" y="857" type="curve" smooth="yes" name="mh02"/>
      <point x="317.768" y="857"/>
      <point x="354.414" y="832.196"/>
      <point x="393" y="802" type="curve"/>
    </contour>
  </outline>
</glyph>
<glyph name="Odieresis" format="1">
  <advance width="651"/>
  <unicode hex="00D6"/>
  <outline>
    <contour>
      <point x="148" y="342" type="curve" smooth="yes" name="hr00"/>
      <point x="148" y="232.104"/>
      <point x="190.394" y="82"/>
      <point x="325" y="82" type="curve" smooth="yes"/>
      <point x="460.405" y="82"/>
      <point x="504" y="230.939"/>
      <point x="504" y="342" type="curve" smooth="yes"/>
      <point x="504" y="452.722"/>
      <point x="460.87" y="606"/>
      <point x="325" y="606" type="curve" smooth="yes"/>
      <point x="189.97" y="606"/>
      <point x="148" y="451.624"/>
    </contour>
    <contour>
      <point x="325" y="-4" type="curve" smooth="yes"/>
      <point x="127.689" y="-4"/>
      <point x="43" y="168.489"/>
      <point x="43" y="344" type="curve" smooth="yes"/>
      <point x="43" y="519.511"/>
      <point x="127.689" y="692"/>
      <point x="325" y="692" type="curve" smooth="yes" name="mh01"/>
      <point x="521.291" y="692"/>
      <point x="609" y="519.395"/>
      <point x="609" y="344" type="curve" smooth="yes"/>
      <point x="609" y="168.605"/>
      <point x="521.291" y="-4"/>
    </contour>
    <contour>
      <point x="358" y="884" type="curve" smooth="yes"/>
      <point x="358" y="919.687"/>
      <point x="387.628" y="948"/>
      <point x="423" y="948" type="curve" smooth="yes"/>
      <point x="457.911" y="948"/>
      <point x="486" y="918.63"/>
      <point x="486" y="884" type="curve" smooth="yes"/>
      <point x="486" y="849.922"/>
      <point x="457.408" y="820"/>
      <point x="423" y="820" type="curve" smooth="yes"/>
      <point x="388.878" y="820"/>
      <point x="358" y="849.567"/>
    </contour>
    <contour>
      <point x="181" y="884" type="curve" smooth="yes"/>
      <point x="181" y="919.451"/>
      <point x="208.322" y="948"/>
      <point x="244" y="948" type="curve" smooth="yes" name="mh02"/>
      <point x="278.928" y="948"/>
      <point x="307" y="918.612"/>
      <point x="307" y="884" type="curve" smooth="yes"/>
      <point x="307" y="849.932"/>
      <point x="278.455" y="820"/>
      <point x="244" y="820" type="curve" smooth="yes"/>
      <point x="209.072" y="820"/>
      <point x="181" y="849.388"/>
    </contour>
  </outline>
</glyph>
<glyph name="multiply" format="1">
  <advance width="478"/>
  <unicode hex="00D7"/>
  <outline>
    <contour>
      <point x="293" y="353" type="line" name="hr00"/>
      <point x="426" y="221" type="line" name="ah06"/>
      <point x="373" y="168" type="line" name="ah07"/>
      <point x="240" y="300" type="line"/>
      <point x="105" y="165" type="line" name="ah08"/>
      <point x="52" y="219" type="line" name="ah09"/>
      <point x="187" y="354" type="line" name="ah02"/>
      <point x="49" y="492" type="line"/>
      <point x="102" y="545" type="line" name="ah01"/>
      <point x="240" y="407" type="line" name="ah03"/>
      <point x="374" y="541" type="line" name="ah04"/>
      <point x="428" y="488" type="line" name="ah05"/>
    </contour>
  </outline>
</glyph>
<glyph name="Oslash" format="1">
  <advance width="651"/>
  <unicode hex="00D8"/>
  <outline>
    <contour>
      <point x="95" y="-53" type="line" name="hr00"/>
      <point x="92" y="-35" type="line"/>
      <point x="140" y="69" type="line"/>
      <point x="68.0155" y="139.515"/>
      <point x="43" y="246.16"/>
      <point x="43" y="344" type="curve" smooth="yes"/>
      <point x="43" y="519.436"/>
      <point x="127.639" y="692"/>
      <point x="325" y="692" type="curve" smooth="yes" name="mh01"/>
      <point x="357.331" y="692"/>
      <point x="389.563" y="687.068"/>
      <point x="420" y="676" type="curve"/>
      <point x="454" y="751" type="line"/>
      <point x="552" y="751" type="line"/>
      <point x="552.004" y="744.642"/>
      <point x="550.996" y="738.358"/>
      <point x="551" y="732" type="curve"/>
      <point x="502" y="626" type="line"/>
      <point x="580.437" y="556.281"/>
      <point x="609" y="445.672"/>
      <point x="609" y="344" type="curve" smooth="yes"/>
      <point x="609" y="168.675"/>
      <point x="521.339" y="-4"/>
      <point x="325" y="-4" type="curve" smooth="yes"/>
      <point x="289.286" y="-4"/>
      <point x="253.08" y="1.03858"/>
      <point x="220" y="15" type="curve"/>
      <point x="189" y="-53" type="line"/>
    </contour>
    <contour>
      <point x="504" y="342" type="curve" smooth="yes"/>
      <point x="504" y="405.99"/>
      <point x="491.154" y="474.049"/>
      <point x="457" y="529" type="curve"/>
      <point x="258" y="97" type="line"/>
      <point x="278.763" y="86.6182"/>
      <point x="301.867" y="82"/>
      <point x="325" y="82" type="curve" smooth="yes"/>
      <point x="460.405" y="82"/>
      <point x="504" y="230.939"/>
    </contour>
    <contour>
      <point x="148" y="342" type="curve" smooth="yes"/>
      <point x="148" y="284.151"/>
      <point x="156.947" y="219.849"/>
      <point x="186" y="169" type="curve"/>
      <point x="382" y="595" type="line"/>
      <point x="363.923" y="602.366"/>
      <point x="344.506" y="606"/>
      <point x="325" y="606" type="curve" smooth="yes"/>
      <point x="189.939" y="606"/>
      <point x="148" y="451.582"/>
    </contour>
  </outline>
</glyph>
<glyph name="Ugrave" format="1">
  <advance width="638"/>
  <unicode hex="00D9"/>
  <outline>
    <contour>
      <point x="205" y="843" type="line" name="hr00"/>
      <point x="261" y="925" type="line" name="mh01"/>
      <point x="295" y="919" type="line"/>
      <point x="435" y="764" type="line"/>
      <point x="398" y="720" type="line"/>
    </contour>
    <contour>
      <point x="402" y="691" type="line"/>
      <point x="604" y="691" type="line"/>
      <point x="604" y="617" type="line" name="hr01"/>
      <point x="547" y="607" type="line"/>
      <point x="547" y="230" type="line" smooth="yes"/>
      <point x="547" y="93.0296"/>
      <point x="469.279" y="-4"/>
      <point x="327" y="-4" type="curve" smooth="yes"/>
      <point x="176.472" y="-4"/>
      <point x="92" y="78.7635"/>
      <point x="92" y="230" type="curve" smooth="yes"/>
      <point x="92" y="610" type="line"/>
      <point x="30" y="616" type="line"/>
      <point x="30" y="691" type="line" name="mh02"/>
      <point x="261" y="691" type="line"/>
      <point x="261" y="617" type="line"/>
      <point x="192" y="608" type="line"/>
      <point x="192" y="233" type="line" smooth="yes"/>
      <point x="192" y="140.127"/>
      <point x="232.396" y="82"/>
      <point x="330" y="82" type="curve" smooth="yes"/>
      <point x="423.931" y="82"/>
      <point x="463" y="147.683"/>
      <point x="463" y="234" type="curve" smooth="yes"/>
      <point x="463" y="609" type="line"/>
      <point x="402" y="618" type="line"/>
    </contour>
  </outline>
</glyph>
<glyph name="Udieresis" format="1">
  <advance width="647"/>
  <unicode hex="00DC"/>
  <outline>
    <contour>
      <point x="411" y="691" type="line" name="hr00"/>
      <point x="613" y="691" type="line"/>
      <point x="613" y="617" type="line" name="hr01"/>
      <point x="556" y="607" type="line"/>
      <point x="556" y="230" type="line" smooth="yes"/>
      <point x="556" y="92.3355"/>
      <point x="472.166" y="-4"/>
      <point x="331" y="-4" type="curve" smooth="yes"/>
      <point x="181.177" y="-4"/>
      <point x="92" y="78.0674"/>
      <point x="92" y="230" type="curve" smooth="yes"/>
      <point x="92" y="610" type="line"/>
      <point x="30" y="616" type="line"/>
      <point x="30" y="691" type="line" name="mh01"/>
      <point x="261" y="691" type="line"/>
      <point x="261" y="617" type="line"/>
      <point x="192" y="608" type="line"/>
      <point x="192" y="233" type="line" smooth="yes"/>
      <point x="192" y="139.265"/>
      <point x="237.02" y="82"/>
      <point x="334" y="82" type="curve" smooth="yes"/>
      <point x="427.608" y="82"/>
      <point x="472" y="146.075"/>
      <point x="472" y="234" type="curve" smooth="yes"/>
      <point x="472" y="609" type="line"/>
      <point x="411" y="618" type="line"/>
    </contour>
    <contour>
      <point x="370" y="884" type="curve" smooth="yes"/>
      <point x="370" y="919.687"/>
      <point x="399.628" y="948"/>
      <point x="435" y="948" type="curve" smooth="yes"/>
      <point x="469.911" y="948"/>
      <point x="498" y="918.63"/>
      <point x="498" y="884" type="curve" smooth="yes"/>
      <point x="498" y="849.922"/>
      <point x="469.408" y="820"/>
      <point x="435" y="820" type="curve" smooth="yes"/>
      <point x="400.878" y="820"/>
      <point x="370" y="849.567"/>
    </contour>
    <contour>
      <point x="193" y="884" type="curve" smooth="yes"/>
      <point x="193" y="919.451"/>
      <point x="220.322" y="948"/>
      <point x="256" y="948" type="curve" smooth="yes" name="mh02"/>
      <point x="290.928" y="948"/>
      <point x="319" y="918.612"/>
      <point x="319" y="884" type="curve" smooth="yes"/>
      <point x="319" y="849.932"/>
      <point x="290.455" y="820"/>
      <point x="256" y="820" type="curve" smooth="yes"/>
      <point x="221.072" y="820"/>
      <point x="193" y="849.388"/>
    </contour>
  </outline>
</glyph>
<glyph name="Thorn" format="1">
  <advance width="525"/>
  <unicode hex="00DE"/>
  <outline>
    <contour>
      <point x="109" y="610" type="line" name="hr00"/>
      <point x="46" y="615" type="line"/>
      <point x="46" y="691" type="line" name="ah01"/>
      <point x="264" y="691" type="line"/>
      <point x="274" y="616" type="line"/>
      <point x="209" y="606" type="line"/>
      <point x="211" y="569" type="line"/>
      <point x="353.642" y="569.017"/>
      <point x="505" y="535.829"/>
      <point x="505" y="362" type="curve" smooth="yes"/>
      <point x="505" y="186.263"/>
      <point x="352.427" y="152"/>
      <point x="209" y="152" type="curve"/>
      <point x="209" y="81" type="line"/>
      <point x="324" y="63" type="line"/>
      <point x="324" y="0" type="line"/>
      <point x="55" y="0" type="line"/>
      <point x="46" y="72" type="line"/>
      <point x="109" y="83" type="line" name="hr01"/>
    </contour>
    <contour>
      <point x="209" y="478" type="curve"/>
      <point x="209" y="238" type="line"/>
      <point x="225" y="238" type="line" smooth="yes"/>
      <point x="304.45" y="238"/>
      <point x="400" y="253.389"/>
      <point x="400" y="354" type="curve" smooth="yes"/>
      <point x="400" y="468.292"/>
      <point x="299.26" y="478"/>
    </contour>
  </outline>
</glyph>
<glyph name="germandbls" format="1">
  <advance width="527"/>
  <unicode hex="00DF"/>
  <outline>
    <contour>
      <point x="273" y="110" type="line" name="hr00"/>
      <point x="289.624" y="95.933"/>
      <point x="304.626" y="78.7115"/>
      <point x="323" y="67" type="curve"/>
      <point x="378.595" y="66.9852"/>
      <point x="411" y="112.988"/>
      <point x="411" y="165" type="curve" smooth="yes"/>
      <point x="411" y="267.585"/>
      <point x="241" y="277.917"/>
      <point x="241" y="379" type="curve" smooth="yes"/>
      <point x="241" y="455.805"/>
      <point x="344" y="473.791"/>
      <point x="344" y="578" type="curve" smooth="yes"/>
      <point x="344" y="621.616"/>
      <point x="302.66" y="656"/>
      <point x="261" y="656" type="curve" smooth="yes"/>
      <point x="195.235" y="656"/>
      <point x="175" y="608.06"/>
      <point x="175" y="550" type="curve" smooth="yes" name="hr01"/>
      <point x="175" y="0" type="line"/>
      <point x="32" y="0" type="line"/>
      <point x="32" y="58" type="line"/>
      <point x="83" y="68" type="line"/>
      <point x="83" y="531" type="line" smooth="yes"/>
      <point x="83" y="646.593"/>
      <point x="139.769" y="731"/>
      <point x="263" y="731" type="curve" smooth="yes" name="ah01"/>
      <point x="353.463" y="731"/>
      <point x="436" y="674.755"/>
      <point x="436" y="578" type="curve" smooth="yes"/>
      <point x="436" y="459.132"/>
      <point x="330" y="427.366"/>
      <point x="330" y="381" type="curve" smooth="yes"/>
      <point x="330" y="335.966"/>
      <point x="506" y="312.83"/>
      <point x="506" y="163" type="curve" smooth="yes"/>
      <point x="506" y="64.6286"/>
      <point x="428.472" y="-8"/>
      <point x="331" y="-8" type="curve" smooth="yes"/>
      <point x="292.477" y="-8"/>
      <point x="254.131" y="0.249901"/>
      <point x="219" y="16" type="curve"/>
    </contour>
  </outline>
</glyph>
<glyph name="atilde" format="1">
  <advance width="460"/>
  <unicode hex="00E3"/>
  <outline>
    <contour>
      <point x="332" y="680" type="line" name="hr02"/>
      <point x="388" y="614" type="line"/>
      <point x="361.778" y="585.279"/>
      <point x="333.121" y="559"/>
      <point x="292" y="559" type="curve" smooth="yes"/>
      <point x="249.229" y="559"/>
      <point x="216" y="596"/>
      <point x="178" y="596" type="curve" smooth="yes"/>
      <point x="148.74" y="596"/>
      <point x="133.357" y="576.155"/>
      <point x="123" y="551" type="curve" name="hr01"/>
      <point x="70" y="585" type="line"/>
      <point x="70.0787" y="636.4"/>
      <point x="128.988" y="676"/>
      <point x="176" y="676" type="curve" smooth="yes" name="mh01"/>
      <point x="218.948" y="676"/>
      <point x="247.243" y="649.736"/>
      <point x="285" y="636" type="curve"/>
      <point x="286" y="633" type="line"/>
    </contour>
    <contour>
      <point x="397" y="68" type="curve" smooth="yes"/>
      <point x="404.624" y="68"/>
      <point x="411.357" y="71.6854"/>
      <point x="418" y="75" type="curve"/>
      <point x="440" y="22" type="line"/>
      <point x="420.253" y="5.74401"/>
      <point x="396.611" y="-4"/>
      <point x="371" y="-4" type="curve" smooth="yes"/>
      <point x="337.499" y="-4"/>
      <point x="310.274" y="7.11762"/>
      <point x="299" y="41" type="curve"/>
      <point x="268.734" y="9.14187"/>
      <point x="232.614" y="-5"/>
      <point x="189" y="-5" type="curve" smooth="yes"/>
      <point x="107.452" y="-5"/>
      <point x="36" y="41.0445"/>
      <point x="36" y="129" type="curve" smooth="yes"/>
      <point x="36" y="269.341"/>
      <point x="184.494" y="287.831"/>
      <point x="293" y="290" type="curve"/>
      <point x="293" y="361" type="line" smooth="yes"/>
      <point x="293" y="401.086"/>
      <point x="249.456" y="414"/>
      <point x="217" y="414" type="curve" smooth="yes"/>
      <point x="198.873" y="414"/>
      <point x="175.905" y="410.507"/>
      <point x="162" y="398" type="curve"/>
      <point x="142" y="333" type="line"/>
      <point x="37" y="364" type="line"/>
      <point x="60.6672" y="448.532"/>
      <point x="139.506" y="486"/>
      <point x="222" y="486" type="curve" smooth="yes" name="mh02"/>
      <point x="311.617" y="486"/>
      <point x="383" y="441.609"/>
      <point x="383" y="345" type="curve" smooth="yes"/>
      <point x="383" y="89" type="line" smooth="yes"/>
      <point x="383" y="80.0912"/>
      <point x="385.631" y="68"/>
    </contour>
    <contour>
      <point x="202" y="69" type="curve" smooth="yes"/>
      <point x="232.83" y="69"/>
      <point x="266.088" y="84.5567"/>
      <point x="283" y="111" type="curve" smooth="yes"/>
      <point x="284.847" y="113.888"/>
      <point x="293" y="128.109"/>
      <point x="293" y="131" type="curve" smooth="yes"/>
      <point x="293" y="217" type="line"/>
      <point x="236.412" y="216.998"/>
      <point x="131" y="212.036"/>
      <point x="131" y="134" type="curve" smooth="yes"/>
      <point x="131" y="91.8649"/>
      <point x="161.708" y="69"/>
    </contour>
  </outline>
</glyph>
<glyph name="adieresis" format="1">
  <advance width="460"/>
  <unicode hex="00E4"/>
  <outline>
    <contour>
      <point x="69" y="624" type="curve" smooth="yes" name="hr04"/>
      <point x="69" y="658.818"/>
      <point x="96.182" y="686"/>
      <point x="131" y="686" type="curve" smooth="yes"/>
      <point x="165.818" y="686"/>
      <point x="193" y="658.818"/>
      <point x="193" y="624" type="curve" smooth="yes"/>
      <point x="193" y="589.182"/>
      <point x="165.818" y="562"/>
      <point x="131" y="562" type="curve" smooth="yes" name="hr03"/>
      <point x="96.182" y="562"/>
      <point x="69" y="589.182"/>
    </contour>
    <contour>
      <point x="230" y="624" type="curve" smooth="yes"/>
      <point x="230" y="658.818"/>
      <point x="257.182" y="686"/>
      <point x="292" y="686" type="curve" smooth="yes"/>
      <point x="326.818" y="686"/>
      <point x="354" y="658.818"/>
      <point x="354" y="624" type="curve" smooth="yes" name="hr02"/>
      <point x="354" y="589.182"/>
      <point x="326.818" y="562"/>
      <point x="292" y="562" type="curve" smooth="yes"/>
      <point x="257.182" y="562"/>
      <point x="230" y="589.182"/>
    </contour>
    <contour>
      <point x="397" y="68" type="curve" smooth="yes" name="hr01"/>
      <point x="404.624" y="68"/>
      <point x="411.357" y="71.6854"/>
      <point x="418" y="75" type="curve"/>
      <point x="440" y="22" type="line"/>
      <point x="420.253" y="5.74401"/>
      <point x="396.611" y="-4"/>
      <point x="371" y="-4" type="curve" smooth="yes"/>
      <point x="337.499" y="-4"/>
      <point x="310.274" y="7.11762"/>
      <point x="299" y="41" type="curve"/>
      <point x="268.734" y="9.14187"/>
      <point x="232.614" y="-5"/>
      <point x="189" y="-5" type="curve" smooth="yes"/>
      <point x="107.452" y="-5"/>
      <point x="36" y="41.0445"/>
      <point x="36" y="129" type="curve" smooth="yes"/>
      <point x="36" y="269.341"/>
      <point x="184.494" y="287.831"/>
      <point x="293" y="290" type="curve"/>
      <point x="293" y="361" type="line" smooth="yes"/>
      <point x="293" y="401.086"/>
      <point x="249.456" y="414"/>
      <point x="217" y="414" type="curve" smooth="yes"/>
      <point x="198.873" y="414"/>
      <point x="175.905" y="410.507"/>
      <point x="162" y="398" type="curve"/>
      <point x="142" y="333" type="line"/>
      <point x="37" y="364" type="line"/>
      <point x="60.6672" y="448.532"/>
      <point x="139.506" y="486"/>
      <point x="222" y="486" type="curve" smooth="yes" name="mh01"/>
      <point x="311.617" y="486"/>
      <point x="383" y="441.609"/>
      <point x="383" y="345" type="curve" smooth="yes"/>
      <point x="383" y="89" type="line" smooth="yes"/>
      <point x="383" y="80.0912"/>
      <point x="385.631" y="68"/>
    </contour>
    <contour>
      <point x="202" y="69" type="curve" smooth="yes"/>
      <point x="232.83" y="69"/>
      <point x="266.088" y="84.5567"/>
      <point x="283" y="111" type="curve" smooth="yes"/>
      <point x="284.847" y="113.888"/>
      <point x="293" y="128.109"/>
      <point x="293" y="131" type="curve" smooth="yes"/>
      <point x="293" y="217" type="line"/>
      <point x="236.412" y="216.998"/>
      <point x="131" y="212.036"/>
      <point x="131" y="134" type="curve" smooth="yes"/>
      <point x="131" y="91.8649"/>
      <point x="161.708" y="69"/>
    </contour>
  </outline>
</glyph>
<glyph name="aring" format="1">
  <advance width="460"/>
  <unicode hex="00E5"/>
  <outline>
    <contour>
      <point x="190" y="630" type="curve" smooth="yes" name="hr00"/>
      <point x="190" y="609.983"/>
      <point x="205.983" y="594"/>
      <point x="226" y="594" type="curve" smooth="yes"/>
      <point x="245.909" y="594"/>
      <point x="263" y="609.81"/>
      <point x="263" y="630" type="curve" smooth="yes"/>
      <point x="263" y="650.19"/>
      <point x="245.909" y="666"/>
      <point x="226" y="666" type="curve" smooth="yes"/>
      <point x="205.983" y="666"/>
      <point x="190" y="650.017"/>
    </contour>
    <contour>
      <point x="131" y="630" type="curve" smooth="yes"/>
      <point x="131" y="683.636"/>
      <point x="172.364" y="725"/>
      <point x="226" y="725" type="curve" smooth="yes" name="mh01"/>
      <point x="280.112" y="725"/>
      <point x="322" y="684.527"/>
      <point x="322" y="630" type="curve" smooth="yes"/>
      <point x="322" y="575.473"/>
      <point x="280.112" y="535"/>
      <point x="226" y="535" type="curve" smooth="yes"/>
      <point x="172.364" y="535"/>
      <point x="131" y="576.364"/>
    </contour>
    <contour>
      <point x="397" y="68" type="curve" smooth="yes"/>
      <point x="404.624" y="68"/>
      <point x="411.357" y="71.6854"/>
      <point x="418" y="75" type="curve"/>
      <point x="440" y="22" type="line"/>
      <point x="420.253" y="5.74401"/>
      <point x="396.611" y="-4"/>
      <point x="371" y="-4" type="curve" smooth="yes"/>
      <point x="337.499" y="-4"/>
      <point x="310.274" y="7.11762"/>
      <point x="299" y="41" type="curve"/>
      <point x="268.734" y="9.14187"/>
      <point x="232.614" y="-5"/>
      <point x="189" y="-5" type="curve" smooth="yes"/>
      <point x="107.452" y="-5"/>
      <point x="36" y="41.0445"/>
      <point x="36" y="129" type="curve" smooth="yes"/>
      <point x="36" y="269.341"/>
      <point x="184.494" y="287.831"/>
      <point x="293" y="290" type="curve"/>
      <point x="293" y="361" type="line" smooth="yes"/>
      <point x="293" y="401.086"/>
      <point x="249.456" y="414"/>
      <point x="217" y="414" type="curve" smooth="yes"/>
      <point x="198.873" y="414"/>
      <point x="175.905" y="410.507"/>
      <point x="162" y="398" type="curve"/>
      <point x="142" y="333" type="line"/>
      <point x="37" y="364" type="line"/>
      <point x="60.6672" y="448.532"/>
      <point x="139.506" y="486"/>
      <point x="222" y="486" type="curve" smooth="yes" name="mh02"/>
      <point x="311.617" y="486"/>
      <point x="383" y="441.609"/>
      <point x="383" y="345" type="curve" smooth="yes"/>
      <point x="383" y="89" type="line" smooth="yes"/>
      <point x="383" y="80.0912"/>
      <point x="385.631" y="68"/>
    </contour>
    <contour>
      <point x="202" y="69" type="curve" smooth="yes"/>
      <point x="232.83" y="69"/>
      <point x="266.088" y="84.5567"/>
      <point x="283" y="111" type="curve" smooth="yes"/>
      <point x="284.847" y="113.888"/>
      <point x="293" y="128.109"/>
      <point x="293" y="131" type="curve" smooth="yes"/>
      <point x="293" y="217" type="line"/>
      <point x="236.412" y="216.998"/>
      <point x="131" y="212.036"/>
      <point x="131" y="134" type="curve" smooth="yes"/>
      <point x="131" y="91.8649"/>
      <point x="161.708" y="69"/>
    </contour>
  </outline>
</glyph>
<glyph name="ae" format="1">
  <advance width="704"/>
  <unicode hex="00E6"/>
  <outline>
    <contour>
      <point x="36" y="129" type="curve" smooth="yes" name="hr00"/>
      <point x="36" y="263.781"/>
      <point x="187.459" y="290"/>
      <point x="293" y="290" type="curve"/>
      <point x="293" y="361" type="line" smooth="yes"/>
      <point x="293" y="401.052"/>
      <point x="249.454" y="414"/>
      <point x="217" y="414" type="curve" smooth="yes"/>
      <point x="198.768" y="414"/>
      <point x="176" y="410.589"/>
      <point x="162" y="398" type="curve"/>
      <point x="142" y="333" type="line"/>
      <point x="37" y="364" type="line"/>
      <point x="60.6752" y="448.563"/>
      <point x="139.533" y="486"/>
      <point x="222" y="486" type="curve" smooth="yes"/>
      <point x="277.204" y="486"/>
      <point x="329.974" y="470.045"/>
      <point x="362" y="422" type="curve"/>
      <point x="403.01" y="463.014"/>
      <point x="458.978" y="486"/>
      <point x="517" y="486" type="curve" smooth="yes"/>
      <point x="597.641" y="486"/>
      <point x="676" y="444.787"/>
      <point x="676" y="355" type="curve" smooth="yes"/>
      <point x="676" y="219.437"/>
      <point x="489.758" y="195.792"/>
      <point x="388" y="206" type="curve"/>
      <point x="396.378" y="124.94"/>
      <point x="442.163" y="71"/>
      <point x="527" y="71" type="curve" smooth="yes"/>
      <point x="563.91" y="71"/>
      <point x="603.205" y="84.5425"/>
      <point x="632" y="108" type="curve"/>
      <point x="651" y="40" type="line"/>
      <point x="621.812" y="8.53811"/>
      <point x="557.224" y="-4"/>
      <point x="516" y="-4" type="curve" smooth="yes"/>
      <point x="441.309" y="-4"/>
      <point x="372.131" y="25.7932"/>
      <point x="330" y="89" type="curve"/>
      <point x="306.009" y="30.7589"/>
      <point x="251.763" y="-5"/>
      <point x="189" y="-5" type="curve" smooth="yes"/>
      <point x="107.53" y="-5"/>
      <point x="36" y="40.9523"/>
    </contour>
    <contour>
      <point x="202" y="69" type="curve" smooth="yes"/>
      <point x="232.83" y="69"/>
      <point x="266.088" y="84.5567"/>
      <point x="283" y="111" type="curve" smooth="yes"/>
      <point x="284.847" y="113.888"/>
      <point x="293" y="128.109"/>
      <point x="293" y="131" type="curve" smooth="yes"/>
      <point x="293" y="217" type="line"/>
      <point x="237.022" y="216.998"/>
      <point x="131" y="210.864"/>
      <point x="131" y="134" type="curve" smooth="yes"/>
      <point x="131" y="91.8649"/>
      <point x="161.708" y="69"/>
    </contour>
    <contour>
      <point x="512" y="411" type="curve" smooth="yes"/>
      <point x="441.521" y="411"/>
      <point x="395.739" y="343.884"/>
      <point x="388" y="280" type="curve"/>
      <point x="425" y="280" type="line" smooth="yes"/>
      <point x="474.471" y="280"/>
      <point x="581" y="281.887"/>
      <point x="581" y="352" type="curve" smooth="yes"/>
      <point x="581" y="393.194"/>
      <point x="549.334" y="411"/>
    </contour>
  </outline>
</glyph>
<glyph name="ccedilla" format="1">
  <advance width="431"/>
  <unicode hex="00E7"/>
  <outline>
    <contour>
      <point x="225" y="-160" type="line" name="hr00"/>
      <point x="248.222" y="-159.848"/>
      <point x="275" y="-146.038"/>
      <point x="275" y="-120" type="curve" smooth="yes"/>
      <point x="275" y="-81.6784"/>
      <point x="233.948" y="-75.9814"/>
      <point x="204" y="-76" type="curve"/>
      <point x="192" y="-61" type="line"/>
      <point x="213" y="-1" type="line"/>
      <point x="93.4893" y="19.4858"/>
      <point x="36" y="118.458"/>
      <point x="36" y="233" type="curve" smooth="yes"/>
      <point x="36" y="369.412"/>
      <point x="100.552" y="486"/>
      <point x="251" y="486" type="curve" smooth="yes" name="mh01"/>
      <point x="312.079" y="486"/>
      <point x="389.207" y="453.639"/>
      <point x="416" y="395" type="curve"/>
      <point x="317" y="348" type="line"/>
      <point x="285" y="406" type="line"/>
      <point x="274.232" y="408.684"/>
      <point x="263.129" y="411"/>
      <point x="252" y="411" type="curve" smooth="yes"/>
      <point x="152.18" y="411"/>
      <point x="131" y="316.445"/>
      <point x="131" y="235" type="curve" smooth="yes"/>
      <point x="131" y="152.033"/>
      <point x="170.604" y="71"/>
      <point x="264" y="71" type="curve" smooth="yes"/>
      <point x="301.604" y="71"/>
      <point x="347.013" y="85.0156"/>
      <point x="374" y="112" type="curve"/>
      <point x="382.225" y="88.9485"/>
      <point x="387.222" y="64.8578"/>
      <point x="396" y="42" type="curve"/>
      <point x="364.323" y="16.3589"/>
      <point x="325.171" y="2.58744"/>
      <point x="285" y="-2" type="curve"/>
      <point x="273" y="-37" type="line"/>
      <point x="315.07" y="-48.3234"/>
      <point x="341" y="-74.0597"/>
      <point x="341" y="-119" type="curve" smooth="yes"/>
      <point x="341" y="-182.518"/>
      <point x="280.822" y="-208"/>
      <point x="226" y="-208" type="curve" smooth="yes"/>
      <point x="194.61" y="-208"/>
      <point x="166.936" y="-200.574"/>
      <point x="138" y="-189" type="curve"/>
      <point x="171" y="-123" type="line"/>
    </contour>
  </outline>
</glyph>
<glyph name="egrave" format="1">
  <advance width="453"/>
  <unicode hex="00E8"/>
  <outline>
    <contour>
      <point x="360" y="596" type="line" name="hr00"/>
      <point x="319" y="553" type="line"/>
      <point x="155" y="673" type="line"/>
      <point x="214" y="752" type="line" name="mh01"/>
      <point x="246" y="744" type="line"/>
    </contour>
    <contour>
      <point x="408" y="352" type="curve" smooth="yes"/>
      <point x="408" y="440.502"/>
      <point x="332.029" y="486"/>
      <point x="251" y="486" type="curve" smooth="yes" name="mh02"/>
      <point x="110.304" y="486"/>
      <point x="35" y="366.511"/>
      <point x="35" y="237" type="curve" smooth="yes"/>
      <point x="35" y="93.4046"/>
      <point x="114.26" y="-4"/>
      <point x="263" y="-4" type="curve" smooth="yes"/>
      <point x="303.352" y="-4"/>
      <point x="375.125" y="11.1455"/>
      <point x="405" y="40" type="curve"/>
      <point x="383" y="110" type="line"/>
      <point x="356.669" y="84.2049"/>
      <point x="306.945" y="71"/>
      <point x="271" y="71" type="curve" smooth="yes"/>
      <point x="196.182" y="71"/>
      <point x="150.065" y="111.655"/>
      <point x="135" y="184" type="curve"/>
      <point x="246.809" y="185.312"/>
      <point x="408" y="207.318"/>
    </contour>
    <contour>
      <point x="245" y="410" type="curve" smooth="yes"/>
      <point x="283.276" y="410"/>
      <point x="313" y="393.177"/>
      <point x="313" y="351" type="curve" smooth="yes"/>
      <point x="313" y="262.772"/>
      <point x="193.989" y="258.004"/>
      <point x="130" y="258" type="curve"/>
      <point x="134.849" y="322.72"/>
      <point x="166.759" y="410"/>
    </contour>
  </outline>
</glyph>
<glyph name="eacute" format="1">
  <advance width="444"/>
  <unicode hex="00E9"/>
  <outline>
    <contour>
      <point x="408" y="352" type="curve" smooth="yes" name="hr00"/>
      <point x="408" y="207.318"/>
      <point x="246.809" y="185.312"/>
      <point x="135" y="184" type="curve"/>
      <point x="150.065" y="111.655"/>
      <point x="196.182" y="71"/>
      <point x="271" y="71" type="curve" smooth="yes"/>
      <point x="306.945" y="71"/>
      <point x="356.669" y="84.2049"/>
      <point x="383" y="110" type="curve"/>
      <point x="405" y="40" type="line"/>
      <point x="375.125" y="11.1455"/>
      <point x="303.352" y="-4"/>
      <point x="263" y="-4" type="curve" smooth="yes"/>
      <point x="114.26" y="-4"/>
      <point x="35" y="93.4046"/>
      <point x="35" y="237" type="curve" smooth="yes" name="mh01"/>
      <point x="35" y="366.511"/>
      <point x="110.304" y="486"/>
      <point x="251" y="486" type="curve" smooth="yes" name="mh02"/>
      <point x="332.029" y="486"/>
      <point x="408" y="440.502"/>
    </contour>
    <contour>
      <point x="245" y="410" type="curve" smooth="yes"/>
      <point x="166.759" y="410"/>
      <point x="134.849" y="322.72"/>
      <point x="130" y="258" type="curve"/>
      <point x="193.989" y="258.004"/>
      <point x="313" y="262.772"/>
      <point x="313" y="351" type="curve" smooth="yes"/>
      <point x="313" y="393.177"/>
      <point x="283.276" y="410"/>
    </contour>
    <contour>
      <point x="271" y="722" type="line"/>
      <point x="303" y="730" type="line"/>
      <point x="363" y="650" type="line"/>
      <point x="197" y="529" type="line"/>
      <point x="156" y="573" type="line"/>
    </contour>
  </outline>
</glyph>
<glyph name="ecircumflex" format="1">
  <advance width="453"/>
  <unicode hex="00EA"/>
  <outline>
    <contour>
      <point x="97" y="541" type="line" name="hr00"/>
      <point x="230" y="700" type="line" name="mh01"/>
      <point x="263" y="700" type="line"/>
      <point x="397" y="540" type="line"/>
      <point x="391" y="529" type="line"/>
      <point x="313" y="529" type="line"/>
      <point x="246" y="581" type="line"/>
      <point x="179" y="529" type="line"/>
      <point x="102" y="529" type="line"/>
    </contour>
    <contour>
      <point x="408" y="352" type="curve" smooth="yes" name="mh02"/>
      <point x="408" y="207.318"/>
      <point x="246.809" y="185.312"/>
      <point x="135" y="184" type="curve"/>
      <point x="150.065" y="111.655"/>
      <point x="196.182" y="71"/>
      <point x="271" y="71" type="curve" smooth="yes"/>
      <point x="306.945" y="71"/>
      <point x="356.669" y="84.2049"/>
      <point x="383" y="110" type="curve"/>
      <point x="405" y="40" type="line"/>
      <point x="375.125" y="11.1455"/>
      <point x="303.352" y="-4"/>
      <point x="263" y="-4" type="curve" smooth="yes"/>
      <point x="114.26" y="-4"/>
      <point x="35" y="93.4046"/>
      <point x="35" y="237" type="curve" smooth="yes"/>
      <point x="35" y="366.511"/>
      <point x="110.304" y="486"/>
      <point x="251" y="486" type="curve" smooth="yes" name="mh03"/>
      <point x="332.029" y="486"/>
      <point x="408" y="440.502"/>
    </contour>
    <contour>
      <point x="245" y="410" type="curve" smooth="yes" name="mh04"/>
      <point x="166.759" y="410"/>
      <point x="134.849" y="322.72"/>
      <point x="130" y="258" type="curve"/>
      <point x="193.989" y="258.004"/>
      <point x="313" y="262.772"/>
      <point x="313" y="351" type="curve" smooth="yes"/>
      <point x="313" y="393.177"/>
      <point x="283.276" y="410"/>
    </contour>
  </outline>
</glyph>
<glyph name="edieresis" format="1">
  <advance width="453"/>
  <unicode hex="00EB"/>
  <outline>
    <contour>
      <point x="106" y="627" type="curve" smooth="yes" name="hr00"/>
      <point x="106" y="658.032"/>
      <point x="130.355" y="681"/>
      <point x="161" y="681" type="curve" smooth="yes" name="mh01"/>
      <point x="190.357" y="681"/>
      <point x="216" y="656.718"/>
      <point x="216" y="627" type="curve" smooth="yes"/>
      <point x="216" y="596.318"/>
      <point x="192.048" y="571"/>
      <point x="161" y="571" type="curve" smooth="yes"/>
      <point x="128.775" y="571"/>
      <point x="106" y="595.082"/>
    </contour>
    <contour>
      <point x="256" y="627" type="curve" smooth="yes"/>
      <point x="256" y="658.032"/>
      <point x="280.355" y="681"/>
      <point x="311" y="681" type="curve" smooth="yes"/>
      <point x="340.357" y="681"/>
      <point x="366" y="656.718"/>
      <point x="366" y="627" type="curve" smooth="yes"/>
      <point x="366" y="596.318"/>
      <point x="342.048" y="571"/>
      <point x="311" y="571" type="curve" smooth="yes"/>
      <point x="279.401" y="571"/>
      <point x="256" y="595.675"/>
    </contour>
    <contour>
      <point x="408" y="352" type="curve" smooth="yes"/>
      <point x="408" y="207.318"/>
      <point x="246.809" y="185.312"/>
      <point x="135" y="184" type="curve"/>
      <point x="150.065" y="111.655"/>
      <point x="196.182" y="71"/>
      <point x="271" y="71" type="curve" smooth="yes"/>
      <point x="306.945" y="71"/>
      <point x="356.669" y="84.2049"/>
      <point x="383" y="110" type="curve"/>
      <point x="405" y="40" type="line" name="hr01"/>
      <point x="375.125" y="11.1455"/>
      <point x="303.352" y="-4"/>
      <point x="263" y="-4" type="curve" smooth="yes"/>
      <point x="114.26" y="-4"/>
      <point x="35" y="93.4046"/>
      <point x="35" y="237" type="curve" smooth="yes"/>
      <point x="35" y="366.511"/>
      <point x="110.304" y="486"/>
      <point x="251" y="486" type="curve" smooth="yes" name="mh02"/>
      <point x="332.029" y="486"/>
      <point x="408" y="440.502"/>
    </contour>
    <contour>
      <point x="245" y="410" type="curve" smooth="yes"/>
      <point x="166.759" y="410"/>
      <point x="134.849" y="322.72"/>
      <point x="130" y="258" type="curve"/>
      <point x="193.989" y="258.004"/>
      <point x="313" y="262.772"/>
      <point x="313" y="351" type="curve" smooth="yes"/>
      <point x="313" y="393.177"/>
      <point x="283.276" y="410"/>
    </contour>
  </outline>
</glyph>
<glyph name="idieresis" format="1">
  <advance width="268"/>
  <unicode hex="00EF"/>
  <outline>
    <contour>
      <point x="138" y="627" type="curve" smooth="yes" name="mh01"/>
      <point x="138" y="658.162"/>
      <point x="163.511" y="681"/>
      <point x="194" y="681" type="curve" smooth="yes" name="mh02"/>
      <point x="222.658" y="681"/>
      <point x="249" y="655.985"/>
      <point x="249" y="627" type="curve" smooth="yes" name="mh03"/>
      <point x="249" y="596.983"/>
      <point x="224.411" y="571"/>
      <point x="194" y="571" type="curve" smooth="yes"/>
      <point x="162.541" y="571"/>
      <point x="138" y="595.514"/>
    </contour>
    <contour>
      <point x="-1" y="627" type="curve" smooth="yes" name="mh04"/>
      <point x="-1" y="658.032"/>
      <point x="23.3548" y="681"/>
      <point x="54" y="681" type="curve" smooth="yes" name="mh05"/>
      <point x="83.3573" y="681"/>
      <point x="109" y="656.718"/>
      <point x="109" y="627" type="curve" smooth="yes"/>
      <point x="109" y="596.318"/>
      <point x="85.048" y="571"/>
      <point x="54" y="571" type="curve" smooth="yes"/>
      <point x="21.7753" y="571"/>
      <point x="-1" y="595.082"/>
    </contour>
    <contour>
      <point x="184" y="70" type="line"/>
      <point x="243" y="54" type="line"/>
      <point x="243" y="0" type="line"/>
      <point x="43" y="0" type="line"/>
      <point x="32" y="54" type="line"/>
      <point x="94" y="68" type="line"/>
      <point x="94" y="408" type="line"/>
      <point x="39" y="404" type="line"/>
      <point x="29" y="464" type="line"/>
      <point x="152" y="486" type="line" name="mh06"/>
      <point x="184" y="454" type="line" name="mh07"/>
    </contour>
  </outline>
</glyph>
<glyph name="eth" format="1">
  <advance width="511"/>
  <unicode hex="00F0"/>
  <outline>
    <contour>
      <point x="161" y="730" type="line" name="hr00"/>
      <point x="214.982" y="709.354"/>
      <point x="264.929" y="677.115"/>
      <point x="309" y="640" type="curve"/>
      <point x="416" y="713" type="line"/>
      <point x="465" y="633" type="line"/>
      <point x="368" y="578" type="line"/>
      <point x="432.513" y="499.324"/>
      <point x="469" y="401.857"/>
      <point x="469" y="300" type="curve" smooth="yes"/>
      <point x="469" y="161.742"/>
      <point x="410.98" y="-4"/>
      <point x="247" y="-4" type="curve" smooth="yes"/>
      <point x="119.107" y="-4"/>
      <point x="35" y="87.4492"/>
      <point x="35" y="214" type="curve" smooth="yes"/>
      <point x="35" y="328.391"/>
      <point x="106.675" y="442"/>
      <point x="231" y="442" type="curve" smooth="yes" name="ah01"/>
      <point x="276.652" y="442"/>
      <point x="325.508" y="429.97"/>
      <point x="358" y="396" type="curve"/>
      <point x="343.261" y="446.372"/>
      <point x="317.673" y="491.473"/>
      <point x="282" y="530" type="curve"/>
      <point x="176" y="470" type="line"/>
      <point x="144" y="527" type="line"/>
      <point x="225" y="582" type="line"/>
      <point x="193.918" y="605.912"/>
      <point x="159.584" y="624.689"/>
      <point x="124" y="641" type="curve"/>
    </contour>
    <contour>
      <point x="248" y="82" type="curve" smooth="yes"/>
      <point x="301.064" y="82"/>
      <point x="335.355" y="115.895"/>
      <point x="353" y="163.5" type="curve" smooth="yes"/>
      <point x="356.76" y="173.644"/>
      <point x="367" y="206.436"/>
      <point x="367" y="216" type="curve" smooth="yes"/>
      <point x="367" y="294.244"/>
      <point x="324.741" y="357"/>
      <point x="241" y="357" type="curve" smooth="yes"/>
      <point x="159.3" y="357"/>
      <point x="130" y="284.813"/>
      <point x="130" y="214" type="curve" smooth="yes"/>
      <point x="130" y="141.446"/>
      <point x="170.546" y="82"/>
    </contour>
  </outline>
</glyph>
<glyph name="ntilde" format="1">
  <advance width="530"/>
  <unicode hex="00F1"/>
  <outline>
    <contour>
      <point x="449" y="71" type="line" name="hr00"/>
      <point x="509" y="54" type="line"/>
      <point x="509" y="0" type="line"/>
      <point x="310" y="0" type="line"/>
      <point x="298" y="54" type="line"/>
      <point x="359" y="68" type="line" name="mh01"/>
      <point x="359" y="331" type="line" smooth="yes" name="mh02"/>
      <point x="359" y="381.4"/>
      <point x="337.451" y="409"/>
      <point x="285" y="409" type="curve" smooth="yes"/>
      <point x="252.528" y="409"/>
      <point x="207.148" y="393.11"/>
      <point x="184" y="370" type="curve" name="mh03"/>
      <point x="184" y="70" type="line"/>
      <point x="242" y="54" type="line"/>
      <point x="242" y="0" type="line"/>
      <point x="43" y="0" type="line"/>
      <point x="31" y="54" type="line"/>
      <point x="94" y="68" type="line"/>
      <point x="94" y="408" type="line" name="mh04"/>
      <point x="39" y="404" type="line"/>
      <point x="29" y="464" type="line"/>
      <point x="69.7494" y="470.274"/>
      <point x="111.554" y="477.923"/>
      <point x="152" y="486" type="curve" name="mh06"/>
      <point x="181" y="449" type="line"/>
      <point x="214.2" y="474.807"/>
      <point x="259.574" y="486"/>
      <point x="301" y="486" type="curve" smooth="yes"/>
      <point x="392.493" y="486"/>
      <point x="449" y="440.496"/>
      <point x="449" y="346" type="curve" smooth="yes" name="mh07"/>
    </contour>
    <contour>
      <point x="382" y="680" type="line"/>
      <point x="438" y="614" type="line"/>
      <point x="411.778" y="585.279"/>
      <point x="383.121" y="559"/>
      <point x="342" y="559" type="curve" smooth="yes"/>
      <point x="299.229" y="559"/>
      <point x="266" y="596"/>
      <point x="228" y="596" type="curve" smooth="yes"/>
      <point x="198.74" y="596"/>
      <point x="183.357" y="576.155"/>
      <point x="173" y="551" type="curve"/>
      <point x="120" y="585" type="line"/>
      <point x="120.079" y="636.4"/>
      <point x="178.988" y="676"/>
      <point x="226" y="676" type="curve" smooth="yes" name="mh08"/>
      <point x="268.948" y="676"/>
      <point x="297.243" y="649.736"/>
      <point x="335" y="636" type="curve"/>
      <point x="336" y="633" type="line"/>
    </contour>
  </outline>
</glyph>
<glyph name="ocircumflex" format="1">
  <advance width="494"/>
  <unicode hex="00F4"/>
  <outline>
    <contour>
      <point x="234" y="695" type="line" name="hr00"/>
      <point x="258" y="695" type="line"/>
      <point x="383" y="545" type="line" name="mh01"/>
      <point x="379" y="537" type="line"/>
      <point x="313" y="537" type="line"/>
      <point x="246" y="591" type="line"/>
      <point x="179" y="537" type="line"/>
      <point x="114" y="537" type="line"/>
      <point x="109" y="544" type="line"/>
    </contour>
    <contour>
      <point x="131" y="237" type="curve" smooth="yes"/>
      <point x="131" y="160.85"/>
      <point x="155.094" y="71"/>
      <point x="248" y="71" type="curve" smooth="yes"/>
      <point x="340.742" y="71"/>
      <point x="365" y="161.273"/>
      <point x="365" y="237" type="curve" smooth="yes"/>
      <point x="365" y="311.318"/>
      <point x="340.223" y="411"/>
      <point x="248" y="411" type="curve" smooth="yes"/>
      <point x="155.597" y="411"/>
      <point x="131" y="311.646"/>
    </contour>
    <contour>
      <point x="36" y="243" type="curve" smooth="yes" name="mh02"/>
      <point x="36" y="371.635"/>
      <point x="108.364" y="486"/>
      <point x="248" y="486" type="curve" smooth="yes" name="mh03"/>
      <point x="387.034" y="486"/>
      <point x="460" y="371.425"/>
      <point x="460" y="243" type="curve" smooth="yes"/>
      <point x="460" y="114.767"/>
      <point x="388.367" y="-4"/>
      <point x="248" y="-4" type="curve" smooth="yes"/>
      <point x="107.205" y="-4"/>
      <point x="36" y="113.932"/>
    </contour>
  </outline>
</glyph>
<glyph name="otilde" format="1">
  <advance width="494"/>
  <unicode hex="00F5"/>
  <outline>
    <contour>
      <point x="357" y="679" type="line" name="hr02"/>
      <point x="413" y="613" type="line"/>
      <point x="384.823" y="583.541"/>
      <point x="359.183" y="559"/>
      <point x="316" y="559" type="curve" smooth="yes" name="mv01"/>
      <point x="270.701" y="559"/>
      <point x="243.185" y="595"/>
      <point x="202" y="595" type="curve" smooth="yes" name="mh01"/>
      <point x="174.507" y="595"/>
      <point x="155.448" y="575.324"/>
      <point x="148" y="550" type="curve" name="hr01"/>
      <point x="94" y="584" type="line"/>
      <point x="94.0779" y="634.926"/>
      <point x="153.133" y="676"/>
      <point x="200" y="676" type="curve" smooth="yes" name="mh03"/>
      <point x="242.708" y="676"/>
      <point x="272.202" y="649.752"/>
      <point x="310" y="636" type="curve"/>
      <point x="311" y="633" type="line"/>
    </contour>
    <contour>
      <point x="131" y="237" type="curve" smooth="yes" name="mh04"/>
      <point x="131" y="160.85"/>
      <point x="155.094" y="71"/>
      <point x="248" y="71" type="curve" smooth="yes"/>
      <point x="340.742" y="71"/>
      <point x="365" y="161.273"/>
      <point x="365" y="237" type="curve" smooth="yes"/>
      <point x="365" y="311.318"/>
      <point x="340.223" y="411"/>
      <point x="248" y="411" type="curve" smooth="yes" name="ah02"/>
      <point x="155.597" y="411"/>
      <point x="131" y="311.646"/>
    </contour>
    <contour>
      <point x="36" y="243" type="curve" smooth="yes" name="mh06"/>
      <point x="36" y="371.635"/>
      <point x="108.364" y="486"/>
      <point x="248" y="486" type="curve" smooth="yes" name="ah01"/>
      <point x="387.034" y="486"/>
      <point x="460" y="371.425"/>
      <point x="460" y="243" type="curve" smooth="yes" name="mh07"/>
      <point x="460" y="114.767"/>
      <point x="388.367" y="-4"/>
      <point x="248" y="-4" type="curve" smooth="yes"/>
      <point x="107.205" y="-4"/>
      <point x="36" y="113.932"/>
    </contour>
  </outline>
</glyph>
<glyph name="odieresis" format="1">
  <advance width="494"/>
  <unicode hex="00F6"/>
  <outline>
    <contour>
      <point x="270" y="627" type="curve" smooth="yes" name="hr00"/>
      <point x="270" y="658.032"/>
      <point x="294.355" y="681"/>
      <point x="325" y="681" type="curve" smooth="yes"/>
      <point x="354.357" y="681"/>
      <point x="380" y="656.718"/>
      <point x="380" y="627" type="curve" smooth="yes"/>
      <point x="380" y="596.318"/>
      <point x="356.048" y="571"/>
      <point x="325" y="571" type="curve" smooth="yes" name="mv01"/>
      <point x="293.401" y="571"/>
      <point x="270" y="595.675"/>
    </contour>
    <contour>
      <point x="120" y="627" type="curve" smooth="yes"/>
      <point x="120" y="658.032"/>
      <point x="144.355" y="681"/>
      <point x="175" y="681" type="curve" smooth="yes"/>
      <point x="204.357" y="681"/>
      <point x="230" y="656.718"/>
      <point x="230" y="627" type="curve" smooth="yes"/>
      <point x="230" y="596.318"/>
      <point x="206.048" y="571"/>
      <point x="175" y="571" type="curve" smooth="yes" name="mv02"/>
      <point x="142.775" y="571"/>
      <point x="120" y="595.082"/>
    </contour>
    <contour>
      <point x="131" y="237" type="curve" smooth="yes" name="mv03"/>
      <point x="131" y="160.85"/>
      <point x="155.094" y="71"/>
      <point x="248" y="71" type="curve" smooth="yes"/>
      <point x="340.742" y="71"/>
      <point x="365" y="161.273"/>
      <point x="365" y="237" type="curve" smooth="yes"/>
      <point x="365" y="311.318"/>
      <point x="340.223" y="411"/>
      <point x="248" y="411" type="curve" smooth="yes"/>
      <point x="155.597" y="411"/>
      <point x="131" y="311.646"/>
    </contour>
    <contour>
      <point x="36" y="243" type="curve" smooth="yes"/>
      <point x="36" y="371.635"/>
      <point x="108.364" y="486"/>
      <point x="248" y="486" type="curve" smooth="yes" name="mh02"/>
      <point x="387.034" y="486"/>
      <point x="460" y="371.425"/>
      <point x="460" y="243" type="curve" smooth="yes"/>
      <point x="460" y="114.767"/>
      <point x="388.367" y="-4"/>
      <point x="248" y="-4" type="curve" smooth="yes"/>
      <point x="107.205" y="-4"/>
      <point x="36" y="113.932"/>
    </contour>
  </outline>
</glyph>
<glyph name="divide" format="1">
  <advance width="419"/>
  <unicode hex="00F7"/>
  <outline>
    <contour>
      <point x="160" y="139" type="curve" smooth="yes" name="hr00"/>
      <point x="160" y="170.032"/>
      <point x="184.355" y="193"/>
      <point x="215" y="193" type="curve" smooth="yes"/>
      <point x="244.357" y="193"/>
      <point x="270" y="168.718"/>
      <point x="270" y="139" type="curve" smooth="yes"/>
      <point x="270" y="108.318"/>
      <point x="246.048" y="83"/>
      <point x="215" y="83" type="curve" smooth="yes"/>
      <point x="183.401" y="83"/>
      <point x="160" y="107.675"/>
    </contour>
    <contour>
      <point x="160" y="448" type="curve" smooth="yes"/>
      <point x="160" y="479.032"/>
      <point x="184.355" y="502"/>
      <point x="215" y="502" type="curve" smooth="yes"/>
      <point x="244.357" y="502"/>
      <point x="270" y="477.718"/>
      <point x="270" y="448" type="curve" smooth="yes"/>
      <point x="270" y="417.318"/>
      <point x="246.048" y="392"/>
      <point x="215" y="392" type="curve" smooth="yes"/>
      <point x="182.775" y="392"/>
      <point x="160" y="416.082"/>
    </contour>
    <contour>
      <point x="374" y="330" type="line"/>
      <point x="374" y="254" type="line"/>
      <point x="45" y="254" type="line"/>
      <point x="45" y="330" type="line"/>
    </contour>
  </outline>
</glyph>
<glyph name="oslash" format="1">
  <advance width="494"/>
  <unicode hex="00F8"/>
  <outline>
    <contour>
      <point x="36" y="243" type="curve" smooth="yes" name="hr00"/>
      <point x="36" y="371.017"/>
      <point x="109.352" y="486"/>
      <point x="248" y="486" type="curve" smooth="yes"/>
      <point x="268.62" y="486"/>
      <point x="289.194" y="482.656"/>
      <point x="309" y="477" type="curve"/>
      <point x="362" y="593" type="line" name="ah01"/>
      <point x="447" y="593" type="line" name="ah02"/>
      <point x="444.935" y="561.689"/>
      <point x="397.175" y="471.669"/>
      <point x="382" y="438" type="curve"/>
      <point x="438.047" y="388.181"/>
      <point x="459" y="315.971"/>
      <point x="459" y="243" type="curve" smooth="yes" name="mh02"/>
      <point x="459" y="115.611"/>
      <point x="387.737" y="-4"/>
      <point x="248" y="-4" type="curve" smooth="yes"/>
      <point x="227.017" y="-4"/>
      <point x="206.162" y="-0.757784"/>
      <point x="186" y="5" type="curve"/>
      <point x="140" y="-98" type="line"/>
      <point x="58" y="-98" type="line"/>
      <point x="55" y="-85" type="line"/>
      <point x="114" y="45" type="line"/>
      <point x="57.0056" y="94.2923"/>
      <point x="36" y="169.979"/>
    </contour>
    <contour>
      <point x="364" y="237" type="curve" smooth="yes" name="mh03"/>
      <point x="364" y="274.78"/>
      <point x="359.048" y="314.241"/>
      <point x="341" y="348" type="curve" name="mh04"/>
      <point x="218" y="75" type="line"/>
      <point x="227.625" y="71.8237"/>
      <point x="237.923" y="71"/>
      <point x="248" y="71" type="curve" smooth="yes"/>
      <point x="340.625" y="71"/>
      <point x="364" y="161.669"/>
    </contour>
    <contour>
      <point x="131" y="237" type="curve" smooth="yes" name="mh05"/>
      <point x="131" y="201.183"/>
      <point x="134.74" y="162.073"/>
      <point x="152" y="130" type="curve"/>
      <point x="277" y="405" type="line" name="mh06"/>
      <point x="267.55" y="407.703"/>
      <point x="257.825" y="409"/>
      <point x="248" y="409" type="curve" smooth="yes"/>
      <point x="155.278" y="409"/>
      <point x="131" y="312.45"/>
    </contour>
  </outline>
</glyph>
<glyph name="ugrave" format="1">
  <advance width="510"/>
  <unicode hex="00F9"/>
  <outline>
    <contour>
      <point x="77" y="406" type="line" name="hr00"/>
      <point x="77" y="161" type="line" smooth="yes"/>
      <point x="77" y="59.8496"/>
      <point x="133.852" y="-4"/>
      <point x="237" y="-4" type="curve" smooth="yes"/>
      <point x="278.432" y="-4"/>
      <point x="319.031" y="12.3923"/>
      <point x="349" y="41" type="curve"/>
      <point x="360.142" y="9.62878"/>
      <point x="384.538" y="-4"/>
      <point x="417" y="-4" type="curve" smooth="yes"/>
      <point x="442.807" y="-4"/>
      <point x="463.766" y="5.79911"/>
      <point x="482" y="24" type="curve"/>
      <point x="468" y="69" type="line"/>
      <point x="461.934" y="68.5832"/>
      <point x="456.118" y="67"/>
      <point x="450" y="67" type="curve" smooth="yes"/>
      <point x="432.105" y="67"/>
      <point x="432" y="87.0356"/>
      <point x="432" y="100" type="curve" smooth="yes"/>
      <point x="432" y="453" type="line"/>
      <point x="403" y="487" type="line"/>
      <point x="281" y="464" type="line"/>
      <point x="290" y="406" type="line"/>
      <point x="342" y="406" type="line"/>
      <point x="342" y="125" type="line"/>
      <point x="329.191" y="94.2632"/>
      <point x="286.261" y="72"/>
      <point x="254" y="72" type="curve" smooth="yes"/>
      <point x="181.89" y="72"/>
      <point x="167" y="118.968"/>
      <point x="167" y="182" type="curve" smooth="yes"/>
      <point x="167" y="453" type="line"/>
      <point x="136" y="486" type="line" name="ah02"/>
      <point x="12" y="464" type="line"/>
      <point x="22" y="406" type="line"/>
    </contour>
    <contour>
      <point x="280" y="530" type="line"/>
      <point x="115" y="651" type="line"/>
      <point x="174" y="731" type="line" name="ah01"/>
      <point x="206" y="723" type="line"/>
      <point x="321" y="573" type="line"/>
    </contour>
  </outline>
</glyph>
<glyph name="uacute" format="1">
  <advance width="510"/>
  <unicode hex="00FA"/>
  <outline>
    <contour>
      <point x="22" y="406" type="line" name="hr00"/>
      <point x="12" y="464" type="line"/>
      <point x="136" y="486" type="line"/>
      <point x="167" y="453" type="line"/>
      <point x="167" y="182" type="line" smooth="yes"/>
      <point x="167" y="118.968"/>
      <point x="181.89" y="72"/>
      <point x="254" y="72" type="curve" smooth="yes"/>
      <point x="286.261" y="72"/>
      <point x="329.191" y="94.2632"/>
      <point x="342" y="125" type="curve"/>
      <point x="342" y="406" type="line"/>
      <point x="290" y="406" type="line"/>
      <point x="281" y="464" type="line"/>
      <point x="403" y="487" type="line"/>
      <point x="432" y="453" type="line"/>
      <point x="432" y="100" type="line" smooth="yes"/>
      <point x="432" y="66.5644"/>
      <point x="437.744" y="66.9212"/>
      <point x="468" y="69" type="curve"/>
      <point x="482" y="24" type="line"/>
      <point x="463.766" y="5.79911"/>
      <point x="442.807" y="-4"/>
      <point x="417" y="-4" type="curve" smooth="yes"/>
      <point x="384.538" y="-4"/>
      <point x="360.142" y="9.62878"/>
      <point x="349" y="41" type="curve"/>
      <point x="319.031" y="12.3923"/>
      <point x="278.432" y="-4"/>
      <point x="237" y="-4" type="curve" smooth="yes"/>
      <point x="133.852" y="-4"/>
      <point x="77" y="59.8496"/>
      <point x="77" y="161" type="curve" smooth="yes"/>
      <point x="77" y="406" type="line"/>
    </contour>
    <contour>
      <point x="264" y="722" type="line" name="av01"/>
      <point x="296" y="730" type="line"/>
      <point x="356" y="650" type="line"/>
      <point x="190" y="529" type="line"/>
      <point x="149" y="573" type="line"/>
    </contour>
  </outline>
</glyph>
<glyph name="udieresis" format="1">
  <advance width="510"/>
  <unicode hex="00FC"/>
  <outline>
    <contour>
      <point x="125" y="627" type="curve" smooth="yes" name="hr00"/>
      <point x="125" y="658.032"/>
      <point x="149.355" y="681"/>
      <point x="180" y="681" type="curve" smooth="yes" name="ah02"/>
      <point x="209.357" y="681"/>
      <point x="235" y="656.718"/>
      <point x="235" y="627" type="curve" smooth="yes"/>
      <point x="235" y="596.318"/>
      <point x="211.048" y="571"/>
      <point x="180" y="571" type="curve" smooth="yes"/>
      <point x="147.775" y="571"/>
      <point x="125" y="595.082"/>
    </contour>
    <contour>
      <point x="275" y="627" type="curve" smooth="yes"/>
      <point x="275" y="658.032"/>
      <point x="299.355" y="681"/>
      <point x="330" y="681" type="curve" smooth="yes"/>
      <point x="359.357" y="681"/>
      <point x="385" y="656.718"/>
      <point x="385" y="627" type="curve" smooth="yes"/>
      <point x="385" y="596.318"/>
      <point x="361.048" y="571"/>
      <point x="330" y="571" type="curve" smooth="yes"/>
      <point x="298.401" y="571"/>
      <point x="275" y="595.675"/>
    </contour>
    <contour>
      <point x="22" y="406" type="line"/>
      <point x="12" y="464" type="line"/>
      <point x="136" y="486" type="line" name="ah01"/>
      <point x="167" y="453" type="line"/>
      <point x="167" y="182" type="line" smooth="yes"/>
      <point x="167" y="118.968"/>
      <point x="181.89" y="72"/>
      <point x="254" y="72" type="curve" smooth="yes"/>
      <point x="286.261" y="72"/>
      <point x="329.191" y="94.2632"/>
      <point x="342" y="125" type="curve"/>
      <point x="342" y="406" type="line"/>
      <point x="290" y="406" type="line"/>
      <point x="281" y="464" type="line"/>
      <point x="403" y="487" type="line"/>
      <point x="432" y="453" type="line"/>
      <point x="432" y="100" type="line" smooth="yes"/>
      <point x="432" y="66.5644"/>
      <point x="437.744" y="66.9212"/>
      <point x="468" y="69" type="curve"/>
      <point x="482" y="24" type="line"/>
      <point x="463.766" y="5.79911"/>
      <point x="442.807" y="-4"/>
      <point x="417" y="-4" type="curve" smooth="yes"/>
      <point x="384.538" y="-4"/>
      <point x="360.142" y="9.62878"/>
      <point x="349" y="41" type="curve"/>
      <point x="319.031" y="12.3923"/>
      <point x="278.432" y="-4"/>
      <point x="237" y="-4" type="curve" smooth="yes"/>
      <point x="133.852" y="-4"/>
      <point x="77" y="59.8496"/>
      <point x="77" y="161" type="curve" smooth="yes"/>
      <point x="77" y="406" type="line"/>
    </contour>
  </outline>
</glyph>
<glyph name="yacute" format="1">
  <advance width="480"/>
  <unicode hex="00FD"/>
  <outline>
    <contour>
      <point x="474" y="452" type="line" name="hr00"/>
      <point x="420.988" y="301.799"/>
      <point x="365.795" y="152.118"/>
      <point x="308.5" y="3.5" type="curve" smooth="yes"/>
      <point x="283.56" y="-61.1928"/>
      <point x="261.162" y="-129.361"/>
      <point x="230.5" y="-191.5" type="curve" smooth="yes"/>
      <point x="223.125" y="-206.446"/>
      <point x="214.28" y="-220.754"/>
      <point x="203.5" y="-233.5" type="curve" smooth="yes"/>
      <point x="180.079" y="-261.191"/>
      <point x="150.205" y="-275"/>
      <point x="114" y="-275" type="curve" smooth="yes"/>
      <point x="79.9817" y="-275"/>
      <point x="49.7839" y="-257.029"/>
      <point x="25" y="-235" type="curve"/>
      <point x="62" y="-166" type="line"/>
      <point x="76.0245" y="-183.1"/>
      <point x="98.0009" y="-200"/>
      <point x="121" y="-200" type="curve" smooth="yes"/>
      <point x="166.305" y="-200"/>
      <point x="200.121" y="-78.1762"/>
      <point x="211" y="-49" type="curve"/>
      <point x="49" y="416" type="line"/>
      <point x="9" y="416" type="line"/>
      <point x="1" y="478" type="line"/>
      <point x="125" y="486" type="line" name="mh01"/>
      <point x="260" y="81" type="line"/>
      <point x="386" y="416" type="line"/>
      <point x="334" y="416" type="line"/>
      <point x="327" y="477" type="line"/>
      <point x="448" y="486" type="line"/>
    </contour>
    <contour>
      <point x="253" y="722" type="line"/>
      <point x="285" y="730" type="line"/>
      <point x="345" y="650" type="line"/>
      <point x="179" y="529" type="line"/>
      <point x="138" y="573" type="line" name="mh02"/>
    </contour>
  </outline>
</glyph>
